<svg width="109" height="100" viewBox="0 0 109 100" fill="none" xmlns="http://www.w3.org/2000/svg">
<g id="Group 1">
<g id="&#229;&#189;&#162;&#231;&#138;&#182;_19_&#230;&#139;&#183;&#232;&#180;&#157;_2" opacity="0.5" filter="url(#filter0_f_76_4714)">
<path fill-rule="evenodd" clip-rule="evenodd" d="M104.915 61.7475C105.264 61.9661 105.538 62.2555 105.738 62.6157C105.937 62.976 106.037 63.362 106.037 63.7738C106.037 64.1855 105.937 64.5715 105.738 64.9318C105.538 65.2921 105.264 65.5815 104.915 65.8001L56.1107 96.2929C55.5862 96.6208 55.0148 96.7848 54.3962 96.7848C53.7777 96.7848 53.2062 96.6208 52.6818 96.2929L3.87749 65.8001C3.5285 65.5815 3.2544 65.2921 3.05496 64.9318C2.85553 64.5716 2.75576 64.1855 2.75576 63.7738C2.75576 63.362 2.85553 62.976 3.05496 62.6157C3.2544 62.2555 3.5285 61.9661 3.87749 61.7475L52.6818 31.2546C53.2062 30.9267 53.7777 30.7627 54.3962 30.7627C55.0148 30.7627 55.5862 30.9267 56.1107 31.2546L104.915 61.7475Z" fill="url(#paint0_linear_76_4714)" fill-opacity="0.2"/>
<path fill-rule="evenodd" clip-rule="evenodd" d="M104.915 61.7475C105.264 61.9661 105.538 62.2555 105.738 62.6157C105.937 62.976 106.037 63.362 106.037 63.7738C106.037 64.1855 105.937 64.5715 105.738 64.9318C105.538 65.2921 105.264 65.5815 104.915 65.8001L56.1107 96.2929C55.5862 96.6208 55.0148 96.7848 54.3962 96.7848C53.7777 96.7848 53.2062 96.6208 52.6818 96.2929L3.87749 65.8001C3.5285 65.5815 3.2544 65.2921 3.05496 64.9318C2.85553 64.5716 2.75576 64.1855 2.75576 63.7738C2.75576 63.362 2.85553 62.976 3.05496 62.6157C3.2544 62.2555 3.5285 61.9661 3.87749 61.7475L52.6818 31.2546C53.2062 30.9267 53.7777 30.7627 54.3962 30.7627C55.0148 30.7627 55.5862 30.9267 56.1107 31.2546L104.915 61.7475Z" stroke="url(#paint1_linear_76_4714)" stroke-width="1.06816"/>
</g>
<path id="&#229;&#189;&#162;&#231;&#138;&#182;_20" fill-rule="evenodd" clip-rule="evenodd" d="M93.5866 40.3716L55.7202 16.5629C55.3139 16.3068 54.8706 16.1787 54.3903 16.1787C53.9101 16.1787 53.4668 16.3068 53.0605 16.5629L15.1941 40.3716C14.597 40.7476 14.3086 41.2883 14.3289 41.9936V57.9359C14.3086 58.6413 14.5969 59.182 15.1941 59.5579L53.0605 83.3667C53.4668 83.6228 53.9101 83.7509 54.3903 83.7509C54.8706 83.7509 55.3139 83.6228 55.7202 83.3667L93.5866 59.5579C94.1837 59.182 94.4721 58.6413 94.4518 57.9359V41.9936C94.4721 41.2883 94.1837 40.7476 93.5866 40.3716Z" fill="url(#paint2_linear_76_4714)"/>
<path id="&#229;&#189;&#162;&#231;&#138;&#182;_19_&#230;&#139;&#183;&#232;&#180;&#157;" opacity="0.5" fill-rule="evenodd" clip-rule="evenodd" d="M93.8484 56.3937C94.1204 56.5647 94.3342 56.7909 94.4896 57.0722C94.645 57.3535 94.7228 57.6548 94.7228 57.9762C94.7228 58.2975 94.645 58.5988 94.4896 58.8802C94.3342 59.1614 94.1204 59.3876 93.8484 59.5586L55.7364 83.368C55.3272 83.6241 54.8812 83.7521 54.3985 83.7521C53.9157 83.7521 53.4698 83.6241 53.0606 83.368L14.9485 59.5586C14.6765 59.3876 14.4628 59.1614 14.3074 58.8802C14.152 58.5988 14.0742 58.2975 14.0742 57.9762C14.0742 57.6548 14.152 57.3535 14.3074 57.0722C14.4628 56.7909 14.6765 56.5647 14.9485 56.3937L53.0606 32.5843C53.4698 32.3283 53.9157 32.2002 54.3985 32.2002C54.8812 32.2002 55.3272 32.3283 55.7364 32.5843L93.8484 56.3937Z" fill="url(#paint3_linear_76_4714)" fill-opacity="0.8" stroke="url(#paint4_linear_76_4714)" stroke-width="0.534081"/>
<path id="&#229;&#189;&#162;&#231;&#138;&#182;_19_&#230;&#139;&#183;&#232;&#180;&#157;_4" opacity="0.3" fill-rule="evenodd" clip-rule="evenodd" d="M93.8493 49.4503C94.1213 49.6214 94.335 49.8475 94.4905 50.1288C94.6459 50.4101 94.7236 50.7115 94.7236 51.0328C94.7236 51.3542 94.6459 51.6555 94.4905 51.9368C94.335 52.2181 94.1213 52.4443 93.8493 52.6153L55.7373 76.4247C55.3281 76.6807 54.8821 76.8088 54.3994 76.8088C53.9166 76.8088 53.4707 76.6807 53.0615 76.4247L14.9495 52.6153C14.6774 52.4443 14.4637 52.2181 14.3083 51.9368C14.1529 51.6555 14.0752 51.3542 14.0752 51.0328C14.0752 50.7115 14.1529 50.4101 14.3083 50.1288C14.4637 49.8475 14.6774 49.6214 14.9495 49.4503L53.0615 25.6409C53.4707 25.3849 53.9166 25.2568 54.3994 25.2568C54.8821 25.2568 55.3281 25.3849 55.7373 25.6409L93.8493 49.4503Z" fill="url(#paint5_linear_76_4714)" fill-opacity="0.8" stroke="url(#paint6_linear_76_4714)" stroke-width="1.06816"/>
<path id="&#229;&#189;&#162;&#231;&#138;&#182;_19" fill-rule="evenodd" clip-rule="evenodd" d="M93.8484 40.3713C94.1204 40.5423 94.3342 40.7685 94.4896 41.0497C94.645 41.3311 94.7228 41.6324 94.7228 41.9538C94.7228 42.2751 94.645 42.5765 94.4896 42.8577C94.3342 43.139 94.1204 43.3652 93.8484 43.5362L55.7364 67.3456C55.3272 67.6017 54.8812 67.7297 54.3985 67.7297C53.9157 67.7297 53.4698 67.6017 53.0606 67.3456L14.9485 43.5362C14.6765 43.3652 14.4628 43.139 14.3074 42.8577C14.152 42.5765 14.0742 42.2751 14.0742 41.9538C14.0742 41.6324 14.152 41.3311 14.3074 41.0497C14.4628 40.7685 14.6765 40.5423 14.9485 40.3713L53.0606 16.5619C53.4698 16.3058 53.9157 16.1777 54.3985 16.1777C54.8812 16.1777 55.3272 16.3058 55.7364 16.5619L93.8484 40.3713Z" fill="url(#paint7_linear_76_4714)" fill-opacity="0.8" stroke="url(#paint8_linear_76_4714)" stroke-width="1.06816"/>
<path id="&#229;&#189;&#162;&#231;&#138;&#182;_19_&#230;&#139;&#183;&#232;&#180;&#157;_3" fill-rule="evenodd" clip-rule="evenodd" d="M79.6266 40.936C79.8013 41.0471 79.9384 41.1933 80.038 41.3747C80.1376 41.5561 80.1874 41.7503 80.1874 41.9572C80.1874 42.1642 80.1376 42.3583 80.038 42.5397C79.9384 42.7211 79.8013 42.8673 79.6266 42.9784L55.1444 58.3423C54.5711 58.7028 53.9979 58.7028 53.4246 58.3423L28.9477 42.9784C28.772 42.8681 28.6339 42.7222 28.5335 42.5407C28.4331 42.3592 28.3828 42.1647 28.3828 41.9572C28.3828 41.7498 28.4331 41.5553 28.5335 41.3737C28.6339 41.1922 28.772 41.0463 28.9477 40.936L53.4246 25.5721C53.9979 25.2116 54.5711 25.2116 55.1444 25.5721L79.6266 40.936Z" fill="url(#paint9_linear_76_4714)" fill-opacity="0.8" stroke="url(#paint10_linear_76_4714)" stroke-width="1.06816"/>
<path id="&#231;&#159;&#169;&#229;&#189;&#162;_7" fill-rule="evenodd" clip-rule="evenodd" d="M55.0578 58.3424C54.4863 58.7031 53.9148 58.7031 53.3433 58.3424L28.9412 42.9785C28.6579 42.801 28.4817 42.5488 28.4124 42.2217H28.2041V0.0292969H79.8444V41.3351C80.0145 41.6157 80.0621 41.9158 79.9874 42.2352C79.9126 42.5547 79.7368 42.8025 79.4599 42.9785L55.0578 58.3424Z" fill="url(#paint11_linear_76_4714)"/>
<path id="&#230;&#164;&#173;&#229;&#156;&#134;_5" fill-rule="evenodd" clip-rule="evenodd" d="M64.3966 21.3926C65.5071 21.3926 66.4074 22.2929 66.4074 23.4034C66.4074 24.5139 65.5071 25.4142 64.3966 25.4142C63.286 25.4142 62.3857 24.5139 62.3857 23.4034C62.3857 22.2929 63.286 21.3926 64.3966 21.3926Z" fill="#35FFD7"/>
<g id="&#230;&#164;&#173;&#229;&#156;&#134;_5_&#230;&#139;&#183;&#232;&#180;&#157;" filter="url(#filter1_f_76_4714)">
<path fill-rule="evenodd" clip-rule="evenodd" d="M46.6969 36.8809C47.4712 36.8809 48.0988 37.5085 48.0988 38.2828C48.0988 39.0571 47.4712 39.6848 46.6969 39.6848C45.9226 39.6848 45.2949 39.0571 45.2949 38.2828C45.2949 37.5085 45.9226 36.8809 46.6969 36.8809Z" fill="#35FFD7"/>
</g>
<g id="&#230;&#164;&#173;&#229;&#156;&#134;_5_&#230;&#139;&#183;&#232;&#180;&#157;_2" opacity="0.67" filter="url(#filter2_f_76_4714)">
<path fill-rule="evenodd" clip-rule="evenodd" d="M60.0494 43.8252C60.8237 43.8252 61.4514 44.4529 61.4514 45.2272C61.4514 46.0014 60.8237 46.6291 60.0494 46.6291C59.2751 46.6291 58.6475 46.0014 58.6475 45.2272C58.6475 44.4529 59.2751 43.8252 60.0494 43.8252Z" fill="#35FFD7"/>
</g>
<g id="Group 552">
<path id="Vector" d="M66.5837 18.2462C67.7713 18.2462 68.7348 19.2098 68.7348 20.3973V34.73C68.7348 35.9175 67.7713 36.8811 66.5837 36.8811H63.7183C62.5308 36.8811 61.5669 35.9175 61.5669 34.73V20.3946C61.5669 19.207 62.5305 18.2432 63.7183 18.2432H66.5837V18.2462ZM46.5169 21.1116C47.7044 21.1116 48.668 22.0751 48.668 23.2627V34.7273C48.668 35.9148 47.7044 36.8787 46.5169 36.8787H43.6515C42.464 36.8787 41.5004 35.9152 41.5004 34.7273V23.26C41.5004 22.0724 42.464 21.1085 43.6515 21.1085H46.5169V21.1116ZM56.5501 23.977C57.7377 23.977 58.7012 24.9405 58.7012 26.1281V34.7273C58.7012 35.9148 57.7377 36.8787 56.5501 36.8787H53.6847C52.4972 36.8787 51.5333 35.9152 51.5333 34.7273V26.1281C51.5333 24.9405 52.4969 23.977 53.6847 23.977H56.5501ZM63.9703 10.0211L62.2782 10.0323C61.6856 10.0354 61.2011 9.55907 61.1956 8.96376C61.1898 8.37425 61.6689 7.88975 62.2614 7.88396L66.5749 7.85259C66.8527 7.84986 67.1306 7.95488 67.343 8.16729C67.448 8.27231 67.5271 8.39403 67.5783 8.52154C67.6264 8.63474 67.6577 8.77658 67.6577 8.92694V13.2465C67.6577 13.8391 67.176 14.3208 66.5837 14.3208C65.9915 14.3208 65.5094 13.8391 65.5094 13.2465V11.5233L55.8784 21.1539C55.5637 21.4686 55.0878 21.5566 54.6824 21.3748L41.781 15.6441C41.2396 15.403 40.9931 14.7682 41.2341 14.224C41.4748 13.6826 42.11 13.4361 42.6542 13.6771L54.8784 19.1102L63.9703 10.0211Z" fill="#1A6E94"/>
<path id="Vector_2" d="M65.5056 16.0905C66.6931 16.0905 67.6567 17.054 67.6567 18.2415V32.5742C67.6567 33.7618 66.6931 34.7253 65.5056 34.7253H62.6402C61.4527 34.7253 60.4888 33.7618 60.4888 32.5742V18.2388C60.4888 17.0513 61.4523 16.0874 62.6402 16.0874H65.5056V16.0905ZM45.4387 18.9558C46.6263 18.9558 47.5898 19.9194 47.5898 21.1069V32.5715C47.5898 33.759 46.6263 34.7229 45.4387 34.7229H42.5734C41.3858 34.7229 40.4223 33.7594 40.4223 32.5715V21.1042C40.4223 19.9167 41.3858 18.9528 42.5734 18.9528H45.4387V18.9558ZM55.472 21.8212C56.6595 21.8212 57.6231 22.7848 57.6231 23.9723V32.5715C57.6231 33.759 56.6595 34.7229 55.472 34.7229H52.6066C51.4191 34.7229 50.4552 33.7594 50.4552 32.5715V23.9723C50.4552 22.7848 51.4187 21.8212 52.6066 21.8212H55.472ZM62.8922 7.8653L61.2 7.87655C60.6075 7.87962 60.123 7.4033 60.1175 6.808C60.1117 6.21849 60.5907 5.73399 61.1833 5.7282L65.4967 5.69683C65.7746 5.6941 66.0525 5.79912 66.2649 6.01153C66.3699 6.11654 66.449 6.23826 66.5002 6.36578C66.5482 6.47898 66.5796 6.62081 66.5796 6.77117V11.0907C66.5796 11.6833 66.0978 12.1651 65.5056 12.1651C64.9134 12.1651 64.4312 11.6833 64.4312 11.0907V9.36754L54.8003 18.9981C54.4856 19.3128 54.0097 19.4008 53.6043 19.2191L40.7029 13.4883C40.1615 13.2473 39.915 12.6124 40.156 12.0682C40.3967 11.5268 41.0319 11.2803 41.5761 11.5213L53.8003 16.9544L62.8922 7.8653Z" fill="url(#paint12_linear_76_4714)"/>
</g>
</g>
<defs>
<filter id="filter0_f_76_4714" x="0.0853531" y="28.0922" width="108.621" height="71.363" filterUnits="userSpaceOnUse" color-interpolation-filters="sRGB">
<feFlood flood-opacity="0" result="BackgroundImageFix"/>
<feBlend mode="normal" in="SourceGraphic" in2="BackgroundImageFix" result="shape"/>
<feGaussianBlur stdDeviation="1.06816" result="effect1_foregroundBlur_76_4714"/>
</filter>
<filter id="filter1_f_76_4714" x="43.1586" y="34.7445" width="7.07636" height="7.07636" filterUnits="userSpaceOnUse" color-interpolation-filters="sRGB">
<feFlood flood-opacity="0" result="BackgroundImageFix"/>
<feBlend mode="normal" in="SourceGraphic" in2="BackgroundImageFix" result="shape"/>
<feGaussianBlur stdDeviation="1.06816" result="effect1_foregroundBlur_76_4714"/>
</filter>
<filter id="filter2_f_76_4714" x="56.5111" y="41.6889" width="7.07636" height="7.07636" filterUnits="userSpaceOnUse" color-interpolation-filters="sRGB">
<feFlood flood-opacity="0" result="BackgroundImageFix"/>
<feBlend mode="normal" in="SourceGraphic" in2="BackgroundImageFix" result="shape"/>
<feGaussianBlur stdDeviation="1.06816" result="effect1_foregroundBlur_76_4714"/>
</filter>
<linearGradient id="paint0_linear_76_4714" x1="106.053" y1="96.7986" x2="106.053" y2="30.7723" gradientUnits="userSpaceOnUse">
<stop stop-color="#2CC8F4"/>
<stop offset="1" stop-color="#009CFF"/>
</linearGradient>
<linearGradient id="paint1_linear_76_4714" x1="106.053" y1="96.7986" x2="106.053" y2="30.7723" gradientUnits="userSpaceOnUse">
<stop stop-color="#4BD4FF"/>
<stop offset="1" stop-color="#0C2436"/>
</linearGradient>
<linearGradient id="paint2_linear_76_4714" x1="14.3342" y1="83.7538" x2="94.4465" y2="83.7538" gradientUnits="userSpaceOnUse">
<stop stop-color="#00235C"/>
<stop offset="0.526" stop-color="#1773C3"/>
<stop offset="0.533" stop-color="#1772C1"/>
<stop offset="1" stop-color="#00235C"/>
</linearGradient>
<linearGradient id="paint3_linear_76_4714" x1="94.7335" y1="83.7627" x2="94.7335" y2="32.2073" gradientUnits="userSpaceOnUse">
<stop stop-color="#2CC8F4"/>
<stop offset="1" stop-color="#009CFF"/>
</linearGradient>
<linearGradient id="paint4_linear_76_4714" x1="94.7335" y1="83.7627" x2="94.7335" y2="32.2073" gradientUnits="userSpaceOnUse">
<stop stop-color="#4BD4FF"/>
<stop offset="1" stop-color="#2B9ACD"/>
</linearGradient>
<linearGradient id="paint5_linear_76_4714" x1="94.7344" y1="76.8193" x2="94.7344" y2="25.2639" gradientUnits="userSpaceOnUse">
<stop stop-color="#2CC8F4"/>
<stop offset="1" stop-color="#00235C"/>
</linearGradient>
<linearGradient id="paint6_linear_76_4714" x1="94.7344" y1="76.8193" x2="94.7344" y2="25.2639" gradientUnits="userSpaceOnUse">
<stop stop-color="#4BD4FF"/>
<stop offset="1" stop-color="#00DDFF" stop-opacity="0.5"/>
</linearGradient>
<linearGradient id="paint7_linear_76_4714" x1="94.7334" y1="67.7403" x2="94.7334" y2="16.1849" gradientUnits="userSpaceOnUse">
<stop stop-color="#2CC8F4"/>
<stop offset="1" stop-color="#00235C"/>
</linearGradient>
<linearGradient id="paint8_linear_76_4714" x1="94.7334" y1="67.7403" x2="94.7334" y2="16.1849" gradientUnits="userSpaceOnUse">
<stop stop-color="#4BD4FF"/>
<stop offset="1" stop-color="#0C2436"/>
</linearGradient>
<linearGradient id="paint9_linear_76_4714" x1="80.1899" y1="58.5944" x2="80.1899" y2="25.3313" gradientUnits="userSpaceOnUse">
<stop stop-color="#0E3B5E"/>
<stop offset="1" stop-color="#0C253B"/>
</linearGradient>
<linearGradient id="paint10_linear_76_4714" x1="80.1899" y1="58.5944" x2="80.1899" y2="25.3313" gradientUnits="userSpaceOnUse">
<stop stop-color="#4BD4FF"/>
<stop offset="1" stop-color="#103D60"/>
</linearGradient>
<linearGradient id="paint11_linear_76_4714" x1="80.0164" y1="58.5945" x2="80.0164" y2="0.0292969" gradientUnits="userSpaceOnUse">
<stop stop-color="#00DEFF"/>
<stop offset="1" stop-color="#00235C" stop-opacity="0"/>
</linearGradient>
<linearGradient id="paint12_linear_76_4714" x1="40.0634" y1="5.69678" x2="40.0634" y2="34.7253" gradientUnits="userSpaceOnUse">
<stop offset="0.0152672" stop-color="white"/>
<stop offset="1" stop-color="#198ABD"/>
</linearGradient>
</defs>
</svg>
