<svg width="17" height="17" viewBox="0 0 17 17" fill="none" xmlns="http://www.w3.org/2000/svg">
<mask id="path-1-outside-1_218_1108" maskUnits="userSpaceOnUse" x="1.04474" y="0.61377" width="15" height="15" fill="black">
<rect fill="white" x="1.04474" y="0.61377" width="15" height="15"/>
<path d="M12.9431 1.61377C13.1659 1.61405 13.3801 1.69952 13.5418 1.85266C13.7035 2.00581 13.8006 2.21502 13.813 2.43741L13.8143 2.48715V6.63579C13.8143 6.81737 13.6676 6.96443 13.4868 6.96443C13.4056 6.96437 13.3273 6.93417 13.2671 6.87968C13.2069 6.82519 13.169 6.75029 13.1609 6.6695L13.1592 6.63579V2.48715C13.1593 2.4345 13.1401 2.38365 13.1053 2.34411C13.0705 2.30458 13.0225 2.27909 12.9703 2.27241L12.9431 2.27051H2.91595C2.86331 2.27063 2.81252 2.28993 2.77309 2.32481C2.73366 2.35968 2.70829 2.40774 2.70175 2.45997L2.69984 2.48715V13.7881C2.69984 13.8985 2.78248 13.9898 2.88904 14.0029L2.91622 14.0048H6.72099C6.90176 14.0048 7.04855 14.1516 7.04855 14.3331C7.04855 14.503 6.9197 14.643 6.75443 14.6599L6.72099 14.6615H2.91595C2.69321 14.6612 2.47902 14.5758 2.31728 14.4226C2.15555 14.2695 2.05852 14.0603 2.0461 13.8379L2.04474 13.7878V2.48715C2.0445 2.26433 2.12952 2.04985 2.28237 1.88771C2.43521 1.72557 2.64429 1.62804 2.86675 1.61513L2.91595 1.61377H12.9431ZM12.1192 8.35999L12.1589 8.38745L14.8777 10.4533C14.9383 10.4993 14.9885 10.5575 15.0252 10.6242C15.0618 10.6908 15.0841 10.7644 15.0906 10.8401L15.0925 10.8864V14.3897C15.0925 14.4563 15.068 14.5205 15.0238 14.5703C14.9795 14.62 14.9186 14.6518 14.8525 14.6596L14.8206 14.6615H12.6814C12.6148 14.6615 12.5505 14.6371 12.5008 14.5928C12.451 14.5486 12.4192 14.4876 12.4114 14.4215L12.4095 14.3897V12.5241C12.4095 12.4575 12.3851 12.3933 12.3408 12.3435C12.2966 12.2938 12.2356 12.262 12.1695 12.2542L12.1377 12.2523H11.7014C11.6348 12.2523 11.5705 12.2768 11.5207 12.3211C11.471 12.3654 11.4392 12.4264 11.4315 12.4926L11.4296 12.5241V14.3897C11.4296 14.4563 11.4051 14.5205 11.3609 14.5703C11.3167 14.62 11.2557 14.6518 11.1896 14.6596L11.1578 14.6615H8.83935C8.77277 14.6615 8.70851 14.6371 8.65875 14.5928C8.609 14.5486 8.57721 14.4876 8.56942 14.4215L8.56752 14.3897V10.8864C8.56751 10.8103 8.58347 10.735 8.61438 10.6655C8.64528 10.596 8.69044 10.5337 8.74693 10.4827L8.78226 10.4533L11.5011 8.38745C11.5891 8.32057 11.6954 8.28211 11.8059 8.2772C11.9163 8.2723 12.0256 8.30118 12.1192 8.35999ZM11.83 8.96019L9.22262 10.9415V14.0064H10.7745V12.5241C10.7745 12.2871 10.8653 12.059 11.0282 11.8869C11.1912 11.7147 11.4139 11.6115 11.6506 11.5985L11.7014 11.5972H12.1377C12.3748 11.5972 12.6028 11.688 12.7749 11.8509C12.9471 12.0139 13.0503 12.2366 13.0633 12.4733L13.0646 12.5241V14.0064H14.4374V10.9418L11.83 8.96019ZM7.6974 8.95312C7.78426 8.95314 7.86756 8.98765 7.92897 9.04908C7.99039 9.11051 8.02489 9.19381 8.02489 9.28067C8.02489 9.36753 7.99039 9.45084 7.92897 9.51226C7.86756 9.57369 7.78426 9.60821 7.6974 9.60823H4.00326C3.9164 9.60821 3.8331 9.57369 3.77169 9.51226C3.71027 9.45084 3.67577 9.36753 3.67577 9.28067C3.67577 9.19381 3.71027 9.11051 3.77169 9.04908C3.8331 8.98765 3.9164 8.95314 4.00326 8.95312H7.6974ZM11.3413 6.23484C11.4854 6.23484 11.6237 6.29212 11.7257 6.39408C11.8276 6.49603 11.8849 6.63431 11.8849 6.7785C11.8849 6.92268 11.8276 7.06097 11.7257 7.16292C11.6237 7.26488 11.4854 7.32215 11.3413 7.32215C11.1971 7.32215 11.0588 7.26488 10.9568 7.16292C10.8549 7.06097 10.7976 6.92268 10.7976 6.7785C10.7976 6.63431 10.8549 6.49603 10.9568 6.39408C11.0588 6.29212 11.1971 6.23484 11.3413 6.23484ZM9.32837 6.50667C9.41523 6.50669 9.49852 6.5412 9.55994 6.60263C9.62135 6.66406 9.65585 6.74736 9.65585 6.83422C9.65585 6.92108 9.62135 7.00439 9.55994 7.06581C9.49852 7.12724 9.41523 7.16176 9.32837 7.16178H4.00326C3.9164 7.16176 3.8331 7.12724 3.77169 7.06581C3.71027 7.00439 3.67577 6.92108 3.67577 6.83422C3.67577 6.74736 3.71027 6.66406 3.77169 6.60263C3.8331 6.5412 3.9164 6.50669 4.00326 6.50667H9.32837ZM11.3413 3.78839C11.4854 3.78839 11.6237 3.84567 11.7257 3.94763C11.8276 4.04958 11.8849 4.18786 11.8849 4.33205C11.8849 4.47623 11.8276 4.61452 11.7257 4.71647C11.6237 4.81843 11.4854 4.8757 11.3413 4.8757C11.1971 4.8757 11.0588 4.81843 10.9568 4.71647C10.8549 4.61452 10.7976 4.47623 10.7976 4.33205C10.7976 4.18786 10.8549 4.04958 10.9568 3.94763C11.0588 3.84567 11.1971 3.78839 11.3413 3.78839ZM9.32837 4.06022C9.41524 4.06022 9.49855 4.09473 9.55998 4.15616C9.62141 4.21759 9.65592 4.3009 9.65592 4.38777C9.65592 4.47464 9.62141 4.55796 9.55998 4.61939C9.49855 4.68081 9.41524 4.71532 9.32837 4.71532H4.00326C3.91639 4.71532 3.83307 4.68081 3.77164 4.61939C3.71022 4.55796 3.67571 4.47464 3.67571 4.38777C3.67571 4.3009 3.71022 4.21759 3.77164 4.15616C3.83307 4.09473 3.91639 4.06022 4.00326 4.06022H9.32837Z"/>
</mask>
<path d="M12.9431 1.61377C13.1659 1.61405 13.3801 1.69952 13.5418 1.85266C13.7035 2.00581 13.8006 2.21502 13.813 2.43741L13.8143 2.48715V6.63579C13.8143 6.81737 13.6676 6.96443 13.4868 6.96443C13.4056 6.96437 13.3273 6.93417 13.2671 6.87968C13.2069 6.82519 13.169 6.75029 13.1609 6.6695L13.1592 6.63579V2.48715C13.1593 2.4345 13.1401 2.38365 13.1053 2.34411C13.0705 2.30458 13.0225 2.27909 12.9703 2.27241L12.9431 2.27051H2.91595C2.86331 2.27063 2.81252 2.28993 2.77309 2.32481C2.73366 2.35968 2.70829 2.40774 2.70175 2.45997L2.69984 2.48715V13.7881C2.69984 13.8985 2.78248 13.9898 2.88904 14.0029L2.91622 14.0048H6.72099C6.90176 14.0048 7.04855 14.1516 7.04855 14.3331C7.04855 14.503 6.9197 14.643 6.75443 14.6599L6.72099 14.6615H2.91595C2.69321 14.6612 2.47902 14.5758 2.31728 14.4226C2.15555 14.2695 2.05852 14.0603 2.0461 13.8379L2.04474 13.7878V2.48715C2.0445 2.26433 2.12952 2.04985 2.28237 1.88771C2.43521 1.72557 2.64429 1.62804 2.86675 1.61513L2.91595 1.61377H12.9431ZM12.1192 8.35999L12.1589 8.38745L14.8777 10.4533C14.9383 10.4993 14.9885 10.5575 15.0252 10.6242C15.0618 10.6908 15.0841 10.7644 15.0906 10.8401L15.0925 10.8864V14.3897C15.0925 14.4563 15.068 14.5205 15.0238 14.5703C14.9795 14.62 14.9186 14.6518 14.8525 14.6596L14.8206 14.6615H12.6814C12.6148 14.6615 12.5505 14.6371 12.5008 14.5928C12.451 14.5486 12.4192 14.4876 12.4114 14.4215L12.4095 14.3897V12.5241C12.4095 12.4575 12.3851 12.3933 12.3408 12.3435C12.2966 12.2938 12.2356 12.262 12.1695 12.2542L12.1377 12.2523H11.7014C11.6348 12.2523 11.5705 12.2768 11.5207 12.3211C11.471 12.3654 11.4392 12.4264 11.4315 12.4926L11.4296 12.5241V14.3897C11.4296 14.4563 11.4051 14.5205 11.3609 14.5703C11.3167 14.62 11.2557 14.6518 11.1896 14.6596L11.1578 14.6615H8.83935C8.77277 14.6615 8.70851 14.6371 8.65875 14.5928C8.609 14.5486 8.57721 14.4876 8.56942 14.4215L8.56752 14.3897V10.8864C8.56751 10.8103 8.58347 10.735 8.61438 10.6655C8.64528 10.596 8.69044 10.5337 8.74693 10.4827L8.78226 10.4533L11.5011 8.38745C11.5891 8.32057 11.6954 8.28211 11.8059 8.2772C11.9163 8.2723 12.0256 8.30118 12.1192 8.35999ZM11.83 8.96019L9.22262 10.9415V14.0064H10.7745V12.5241C10.7745 12.2871 10.8653 12.059 11.0282 11.8869C11.1912 11.7147 11.4139 11.6115 11.6506 11.5985L11.7014 11.5972H12.1377C12.3748 11.5972 12.6028 11.688 12.7749 11.8509C12.9471 12.0139 13.0503 12.2366 13.0633 12.4733L13.0646 12.5241V14.0064H14.4374V10.9418L11.83 8.96019ZM7.6974 8.95312C7.78426 8.95314 7.86756 8.98765 7.92897 9.04908C7.99039 9.11051 8.02489 9.19381 8.02489 9.28067C8.02489 9.36753 7.99039 9.45084 7.92897 9.51226C7.86756 9.57369 7.78426 9.60821 7.6974 9.60823H4.00326C3.9164 9.60821 3.8331 9.57369 3.77169 9.51226C3.71027 9.45084 3.67577 9.36753 3.67577 9.28067C3.67577 9.19381 3.71027 9.11051 3.77169 9.04908C3.8331 8.98765 3.9164 8.95314 4.00326 8.95312H7.6974ZM11.3413 6.23484C11.4854 6.23484 11.6237 6.29212 11.7257 6.39408C11.8276 6.49603 11.8849 6.63431 11.8849 6.7785C11.8849 6.92268 11.8276 7.06097 11.7257 7.16292C11.6237 7.26488 11.4854 7.32215 11.3413 7.32215C11.1971 7.32215 11.0588 7.26488 10.9568 7.16292C10.8549 7.06097 10.7976 6.92268 10.7976 6.7785C10.7976 6.63431 10.8549 6.49603 10.9568 6.39408C11.0588 6.29212 11.1971 6.23484 11.3413 6.23484ZM9.32837 6.50667C9.41523 6.50669 9.49852 6.5412 9.55994 6.60263C9.62135 6.66406 9.65585 6.74736 9.65585 6.83422C9.65585 6.92108 9.62135 7.00439 9.55994 7.06581C9.49852 7.12724 9.41523 7.16176 9.32837 7.16178H4.00326C3.9164 7.16176 3.8331 7.12724 3.77169 7.06581C3.71027 7.00439 3.67577 6.92108 3.67577 6.83422C3.67577 6.74736 3.71027 6.66406 3.77169 6.60263C3.8331 6.5412 3.9164 6.50669 4.00326 6.50667H9.32837ZM11.3413 3.78839C11.4854 3.78839 11.6237 3.84567 11.7257 3.94763C11.8276 4.04958 11.8849 4.18786 11.8849 4.33205C11.8849 4.47623 11.8276 4.61452 11.7257 4.71647C11.6237 4.81843 11.4854 4.8757 11.3413 4.8757C11.1971 4.8757 11.0588 4.81843 10.9568 4.71647C10.8549 4.61452 10.7976 4.47623 10.7976 4.33205C10.7976 4.18786 10.8549 4.04958 10.9568 3.94763C11.0588 3.84567 11.1971 3.78839 11.3413 3.78839ZM9.32837 4.06022C9.41524 4.06022 9.49855 4.09473 9.55998 4.15616C9.62141 4.21759 9.65592 4.3009 9.65592 4.38777C9.65592 4.47464 9.62141 4.55796 9.55998 4.61939C9.49855 4.68081 9.41524 4.71532 9.32837 4.71532H4.00326C3.91639 4.71532 3.83307 4.68081 3.77164 4.61939C3.71022 4.55796 3.67571 4.47464 3.67571 4.38777C3.67571 4.3009 3.71022 4.21759 3.77164 4.15616C3.83307 4.09473 3.91639 4.06022 4.00326 4.06022H9.32837Z" fill="white"/>
<path d="M12.9431 1.61377L12.9433 1.51377H12.9431V1.61377ZM13.813 2.43741L13.913 2.43468L13.9128 2.43183L13.813 2.43741ZM13.8143 2.48715L13.9144 2.48715L13.9143 2.48442L13.8143 2.48715ZM13.4868 6.96443L13.4867 7.06443H13.4868V6.96443ZM13.1609 6.6695L13.0608 6.67433L13.0614 6.67953L13.1609 6.6695ZM13.1592 6.63579H13.0591L13.0594 6.64062L13.1592 6.63579ZM13.1592 2.48715L13.0592 2.4871V2.48715H13.1592ZM12.9703 2.27241L12.983 2.17305L12.9773 2.17265L12.9703 2.27241ZM12.9431 2.27051L12.9501 2.17051H12.9431V2.27051ZM2.91595 2.27051L2.91595 2.17051L2.91572 2.17051L2.91595 2.27051ZM2.70175 2.45997L2.60237 2.44751L2.60199 2.45299L2.70175 2.45997ZM2.69984 2.48715L2.59984 2.48015V2.48715H2.69984ZM2.88904 14.0029L2.87687 14.1023L2.88205 14.1026L2.88904 14.0029ZM2.91622 14.0048L2.90922 14.1048H2.91622V14.0048ZM6.75443 14.6599L6.75931 14.7599L6.76457 14.7594L6.75443 14.6599ZM6.72099 14.6615V14.7616L6.72587 14.7614L6.72099 14.6615ZM2.91595 14.6615L2.91582 14.7615H2.91595V14.6615ZM2.0461 13.8379L1.94609 13.8406L1.94625 13.8434L2.0461 13.8379ZM2.04474 13.7878H1.9447L1.94478 13.7906L2.04474 13.7878ZM2.04474 2.48715L2.14474 2.48715L2.14474 2.48705L2.04474 2.48715ZM2.86675 1.61513L2.86398 1.51512L2.86095 1.5153L2.86675 1.61513ZM2.91595 1.61377V1.51373L2.91319 1.51381L2.91595 1.61377ZM12.1192 8.35999L12.1762 8.27767L12.1724 8.27532L12.1192 8.35999ZM12.1589 8.38745L12.2195 8.30775L12.2158 8.30521L12.1589 8.38745ZM14.8777 10.4533L14.8172 10.533L14.8172 10.533L14.8777 10.4533ZM15.0906 10.8401L15.1906 10.836L15.1902 10.8317L15.0906 10.8401ZM15.0925 10.8864H15.1926L15.1924 10.8822L15.0925 10.8864ZM15.0925 14.3897L15.1925 14.3897V14.3897H15.0925ZM14.8525 14.6596L14.8584 14.7596L14.8642 14.7589L14.8525 14.6596ZM14.8206 14.6615V14.7617L14.8266 14.7613L14.8206 14.6615ZM12.6814 14.6615L12.6813 14.7615H12.6814V14.6615ZM12.4114 14.4215L12.3114 14.4275L12.3121 14.4332L12.4114 14.4215ZM12.4095 14.3897H12.3094L12.3097 14.3956L12.4095 14.3897ZM12.4095 12.5241L12.5095 12.5241L12.5095 12.5241L12.4095 12.5241ZM12.1695 12.2542L12.1812 12.1547L12.1755 12.1544L12.1695 12.2542ZM12.1377 12.2523L12.1437 12.1523H12.1377V12.2523ZM11.7014 12.2523L11.7014 12.1523L11.7014 12.1523L11.7014 12.2523ZM11.4315 12.4926L11.332 12.481L11.3317 12.4866L11.4315 12.4926ZM11.4296 12.5241L11.3296 12.5181V12.5241H11.4296ZM11.4296 14.3897L11.5296 14.3897V14.3897H11.4296ZM11.1896 14.6596L11.1956 14.7596L11.2013 14.7589L11.1896 14.6596ZM11.1578 14.6615V14.7617L11.1637 14.7613L11.1578 14.6615ZM8.83935 14.6615L8.83933 14.7615H8.83935V14.6615ZM8.56942 14.4215L8.46944 14.4275L8.47011 14.4332L8.56942 14.4215ZM8.56752 14.3897H8.46734L8.4677 14.3956L8.56752 14.3897ZM8.56752 10.8864L8.66752 10.8864L8.66752 10.8863L8.56752 10.8864ZM8.74693 10.4827L8.68297 10.4057L8.67993 10.4085L8.74693 10.4827ZM8.78226 10.4533L8.72171 10.3736L8.71836 10.3764L8.78226 10.4533ZM11.5011 8.38745L11.4406 8.30782L11.4406 8.30782L11.5011 8.38745ZM11.83 8.96019L11.8905 8.88057L11.83 8.83459L11.7695 8.88057L11.83 8.96019ZM9.22262 10.9415L9.16212 10.8619L9.12262 10.8919V10.9415H9.22262ZM9.22262 14.0064H9.12262V14.1064H9.22262V14.0064ZM10.7745 14.0064V14.1064H10.8745V14.0064H10.7745ZM10.7745 12.5241L10.8745 12.5241L10.8745 12.5241L10.7745 12.5241ZM11.6506 11.5985L11.6479 11.4985L11.6451 11.4987L11.6506 11.5985ZM11.7014 11.5972L11.7014 11.4972L11.6987 11.4972L11.7014 11.5972ZM12.1377 11.5972L12.1377 11.6972L12.1377 11.6972L12.1377 11.5972ZM13.0633 12.4733L13.1633 12.4706L13.1631 12.4678L13.0633 12.4733ZM13.0646 12.5241L13.1647 12.5241L13.1646 12.5214L13.0646 12.5241ZM13.0646 14.0064H12.9646V14.1064H13.0646V14.0064ZM14.4374 14.0064V14.1064H14.5374V14.0064H14.4374ZM14.4374 10.9418H14.5374V10.8922L14.4979 10.8622L14.4374 10.9418ZM7.6974 8.95312L7.69742 8.85312H7.6974V8.95312ZM8.02489 9.28067H7.92489H8.02489ZM7.6974 9.60823L7.6974 9.70823L7.69742 9.70823L7.6974 9.60823ZM4.00326 9.60823L4.00324 9.70823H4.00326V9.60823ZM4.00326 8.95312L4.00326 8.85312L4.00324 8.85312L4.00326 8.95312ZM11.3413 6.23484V6.13484V6.23484ZM9.32837 6.50667L9.32839 6.40667H9.32837V6.50667ZM9.65585 6.83422L9.75585 6.83422L9.65585 6.83422ZM9.32837 7.16178L9.32837 7.26178L9.32839 7.26178L9.32837 7.16178ZM4.00326 7.16178L4.00324 7.26178H4.00326V7.16178ZM3.67577 6.83422H3.77577H3.67577ZM4.00326 6.50667L4.00326 6.40667L4.00324 6.40667L4.00326 6.50667ZM11.3413 3.78839V3.68839V3.78839ZM11.3413 4.8757V4.9757V4.8757ZM9.32837 4.06022V4.16022V4.06022ZM4.00326 4.71532V4.81532V4.71532ZM12.943 1.71377C13.1402 1.71402 13.3298 1.78969 13.473 1.92528L13.6106 1.78005C13.4303 1.60935 13.1915 1.51408 12.9433 1.51377L12.943 1.71377ZM13.473 1.92528C13.6162 2.06086 13.7021 2.24609 13.7131 2.44299L13.9128 2.43183C13.899 2.18395 13.7908 1.95075 13.6106 1.78005L13.473 1.92528ZM13.713 2.44014L13.7144 2.48988L13.9143 2.48442L13.9129 2.43468L13.713 2.44014ZM13.7143 2.48715V6.63579H13.9143V2.48715H13.7143ZM13.7143 6.63579C13.7143 6.76241 13.6121 6.86443 13.4868 6.86443V7.06443C13.7231 7.06443 13.9143 6.87233 13.9143 6.63579H13.7143ZM13.4869 6.86443C13.4304 6.86439 13.376 6.8434 13.3342 6.80553L13.2 6.95383C13.2786 7.02494 13.3807 7.06435 13.4867 7.06443L13.4869 6.86443ZM13.3342 6.80553C13.2923 6.76766 13.266 6.71561 13.2604 6.65946L13.0614 6.67953C13.072 6.78497 13.1214 6.88272 13.2 6.95383L13.3342 6.80553ZM13.2607 6.66466L13.2591 6.63096L13.0594 6.64062L13.061 6.67433L13.2607 6.66466ZM13.2592 6.63579V2.48715H13.0592V6.63579H13.2592ZM13.2592 2.48721C13.2593 2.41022 13.2312 2.33586 13.1804 2.27806L13.0302 2.41017C13.0489 2.43143 13.0593 2.45878 13.0592 2.4871L13.2592 2.48721ZM13.1804 2.27806C13.1295 2.22026 13.0594 2.18298 12.983 2.17322L12.9576 2.3716C12.9857 2.37519 13.0115 2.38891 13.0302 2.41017L13.1804 2.27806ZM12.9773 2.17265L12.9501 2.17075L12.9361 2.37026L12.9633 2.37216L12.9773 2.17265ZM12.9431 2.17051H2.91595V2.37051H12.9431V2.17051ZM2.91572 2.17051C2.83875 2.17068 2.76449 2.19891 2.70683 2.2499L2.83934 2.39971C2.86055 2.38095 2.88786 2.37057 2.91618 2.37051L2.91572 2.17051ZM2.70683 2.2499C2.64918 2.3009 2.6121 2.37116 2.60252 2.44753L2.80097 2.47241C2.80449 2.44431 2.81813 2.41847 2.83934 2.39971L2.70683 2.2499ZM2.60199 2.45299L2.60009 2.48017L2.7996 2.49414L2.8015 2.46695L2.60199 2.45299ZM2.59984 2.48715V13.7881H2.79984V2.48715H2.59984ZM2.59984 13.7881C2.59984 13.9493 2.72048 14.083 2.87688 14.1021L2.90119 13.9036C2.84448 13.8967 2.79984 13.8476 2.79984 13.7881H2.59984ZM2.88205 14.1026L2.90924 14.1045L2.9232 13.905L2.89602 13.9031L2.88205 14.1026ZM2.91622 14.1048H6.72099V13.9048H2.91622V14.1048ZM6.72099 14.1048C6.84637 14.1048 6.94855 14.2066 6.94855 14.3331H7.14855C7.14855 14.0965 6.95715 13.9048 6.72099 13.9048V14.1048ZM6.94855 14.3331C6.94855 14.4514 6.85882 14.5487 6.74428 14.5604L6.76457 14.7594C6.98058 14.7373 7.14855 14.5546 7.14855 14.3331H6.94855ZM6.74956 14.56L6.71612 14.5616L6.72587 14.7614L6.7593 14.7598L6.74956 14.56ZM6.72099 14.5615H2.91595V14.7615H6.72099V14.5615ZM2.91607 14.5615C2.71887 14.5613 2.52923 14.4856 2.38604 14.35L2.24853 14.4952C2.42881 14.6659 2.66755 14.7612 2.91582 14.7615L2.91607 14.5615ZM2.38604 14.35C2.24285 14.2144 2.15694 14.0292 2.14594 13.8323L1.94625 13.8434C1.9601 14.0913 2.06825 14.3245 2.24853 14.4952L2.38604 14.35ZM2.14606 13.8351L2.1447 13.7851L1.94478 13.7906L1.94614 13.8406L2.14606 13.8351ZM2.14474 13.7878V2.48715H1.94474V13.7878H2.14474ZM2.14474 2.48705C2.14453 2.28976 2.21981 2.09986 2.35513 1.9563L2.2096 1.81912C2.03924 1.99984 1.94448 2.2389 1.94474 2.48726L2.14474 2.48705ZM2.35513 1.9563C2.49046 1.81274 2.67558 1.72639 2.87254 1.71496L2.86095 1.5153C2.61301 1.52969 2.37996 1.63839 2.2096 1.81912L2.35513 1.9563ZM2.86951 1.71509L2.91871 1.71373L2.91319 1.51381L2.86399 1.51517L2.86951 1.71509ZM2.91595 1.71377H12.9431V1.51377H2.91595V1.71377ZM12.0623 8.44223L12.102 8.46969L12.2158 8.30521L12.1761 8.27775L12.0623 8.44223ZM12.0984 8.46707L14.8172 10.533L14.9382 10.3737L12.2194 8.30782L12.0984 8.46707ZM14.8172 10.533C14.8667 10.5705 14.9077 10.618 14.9376 10.6724L15.1128 10.576C15.0694 10.4971 15.0099 10.4282 14.9382 10.3737L14.8172 10.533ZM14.9376 10.6724C14.9675 10.7267 14.9857 10.7868 14.9909 10.8486L15.1902 10.8317C15.1826 10.742 15.1562 10.6548 15.1128 10.576L14.9376 10.6724ZM14.9907 10.8443L14.9926 10.8905L15.1924 10.8822L15.1905 10.836L14.9907 10.8443ZM14.9925 10.8864V14.3897H15.1925V10.8864H14.9925ZM14.9925 14.3897C14.9925 14.4317 14.977 14.4724 14.9491 14.5038L15.0985 14.6367C15.159 14.5687 15.1925 14.4808 15.1925 14.3897L14.9925 14.3897ZM14.9491 14.5038C14.9211 14.5353 14.8825 14.5554 14.8408 14.5603L14.8642 14.7589C14.9546 14.7483 15.038 14.7048 15.0985 14.6367L14.9491 14.5038ZM14.8465 14.5598L14.8147 14.5617L14.8266 14.7613L14.8584 14.7594L14.8465 14.5598ZM14.8206 14.5615H12.6814V14.7615H14.8206V14.5615ZM12.6814 14.5615C12.6393 14.5615 12.5987 14.546 12.5672 14.5181L12.4343 14.6675C12.5024 14.7281 12.5903 14.7615 12.6813 14.7615L12.6814 14.5615ZM12.5672 14.5181C12.5358 14.4901 12.5157 14.4516 12.5107 14.4098L12.3121 14.4332C12.3228 14.5236 12.3663 14.607 12.4343 14.6675L12.5672 14.5181ZM12.5113 14.4155L12.5094 14.3837L12.3097 14.3956L12.3116 14.4275L12.5113 14.4155ZM12.5095 14.3897V12.5241H12.3095V14.3897H12.5095ZM12.5095 12.5241C12.5095 12.433 12.4761 12.3451 12.4156 12.2771L12.2661 12.41C12.2941 12.4414 12.3095 12.482 12.3095 12.5241L12.5095 12.5241ZM12.4156 12.2771C12.355 12.209 12.2717 12.1655 12.1812 12.1549L12.1578 12.3535C12.1996 12.3584 12.2381 12.3785 12.2661 12.41L12.4156 12.2771ZM12.1755 12.1544L12.1437 12.1525L12.1317 12.3521L12.1635 12.354L12.1755 12.1544ZM12.1377 12.1523H11.7014V12.3523H12.1377V12.1523ZM11.7014 12.1523C11.6103 12.1523 11.5223 12.1858 11.4543 12.2464L11.5872 12.3958C11.6187 12.3678 11.6593 12.3523 11.7014 12.3523L11.7014 12.1523ZM11.4543 12.2464C11.3862 12.307 11.3427 12.3905 11.3322 12.481L11.5308 12.5042C11.5357 12.4624 11.5558 12.4238 11.5872 12.3958L11.4543 12.2464ZM11.3317 12.4866L11.3298 12.5181L11.5294 12.5301L11.5313 12.4986L11.3317 12.4866ZM11.3296 12.5241V14.3897H11.5296V12.5241H11.3296ZM11.3296 14.3897C11.3296 14.4318 11.3141 14.4724 11.2862 14.5038L11.4356 14.6367C11.4961 14.5687 11.5296 14.4808 11.5296 14.3897L11.3296 14.3897ZM11.2862 14.5038C11.2582 14.5353 11.2197 14.5554 11.1779 14.5603L11.2013 14.7589C11.2917 14.7483 11.3751 14.7048 11.4356 14.6367L11.2862 14.5038ZM11.1836 14.5598L11.1518 14.5617L11.1637 14.7613L11.1955 14.7594L11.1836 14.5598ZM11.1578 14.5615H8.83935V14.7615H11.1578V14.5615ZM8.83936 14.5615C8.79727 14.5615 8.75665 14.546 8.7252 14.5181L8.5923 14.6675C8.66036 14.7281 8.74826 14.7615 8.83933 14.7615L8.83936 14.5615ZM8.7252 14.5181C8.69375 14.4901 8.67366 14.4516 8.66874 14.4098L8.47011 14.4332C8.48076 14.5236 8.52425 14.607 8.5923 14.6675L8.7252 14.5181ZM8.66924 14.4155L8.66734 14.3837L8.4677 14.3956L8.4696 14.4275L8.66924 14.4155ZM8.66752 14.3897V10.8864H8.46752V14.3897H8.66752ZM8.66752 10.8863C8.66751 10.8242 8.68054 10.7628 8.70576 10.7061L8.523 10.6249C8.48641 10.7072 8.46751 10.7963 8.46752 10.8864L8.66752 10.8863ZM8.70576 10.7061C8.73098 10.6494 8.76783 10.5985 8.81393 10.5569L8.67993 10.4085C8.61305 10.4688 8.55958 10.5425 8.523 10.6249L8.70576 10.7061ZM8.81083 10.5596L8.84617 10.5303L8.71836 10.3764L8.68302 10.4058L8.81083 10.5596ZM8.84276 10.533L11.5616 8.46707L11.4406 8.30782L8.72176 10.3737L8.84276 10.533ZM11.5616 8.46707C11.6334 8.41249 11.7202 8.38111 11.8103 8.37711L11.8014 8.1773C11.6707 8.18311 11.5448 8.22864 11.4406 8.30782L11.5616 8.46707ZM11.8103 8.37711C11.9004 8.3731 11.9896 8.39667 12.066 8.44467L12.1724 8.27532C12.0616 8.20569 11.9322 8.1715 11.8014 8.1773L11.8103 8.37711ZM11.7695 8.88057L9.16212 10.8619L9.28313 11.0212L11.8905 9.03981L11.7695 8.88057ZM9.12262 10.9415V14.0064H9.32262V10.9415H9.12262ZM9.22262 14.1064H10.7745V13.9064H9.22262V14.1064ZM10.8745 14.0064V12.5241H10.6745V14.0064H10.8745ZM10.8745 12.5241C10.8745 12.3126 10.9555 12.1092 11.1009 11.9556L10.9556 11.8181C10.7751 12.0089 10.6745 12.2615 10.6745 12.5241L10.8745 12.5241ZM11.1009 11.9556C11.2462 11.802 11.4449 11.71 11.6561 11.6984L11.6451 11.4987C11.3829 11.5131 11.1361 11.6274 10.9556 11.8181L11.1009 11.9556ZM11.6533 11.6985L11.7041 11.6972L11.6987 11.4972L11.6479 11.4986L11.6533 11.6985ZM11.7014 11.6972H12.1377V11.4972H11.7014V11.6972ZM12.1377 11.6972C12.3492 11.6972 12.5526 11.7782 12.7062 11.9236L12.8437 11.7783C12.653 11.5978 12.4003 11.4972 12.1377 11.4972L12.1377 11.6972ZM12.7062 11.9236C12.8598 12.0689 12.9518 12.2676 12.9634 12.4788L13.1631 12.4678C13.1487 12.2056 13.0344 11.9588 12.8437 11.7783L12.7062 11.9236ZM12.9633 12.476L12.9647 12.5268L13.1646 12.5214L13.1632 12.4706L12.9633 12.476ZM12.9646 12.5241V14.0064H13.1646V12.5241H12.9646ZM13.0646 14.1064H14.4374V13.9064H13.0646V14.1064ZM14.5374 14.0064V10.9418H14.3374V14.0064H14.5374ZM14.4979 10.8622L11.8905 8.88057L11.7695 9.0398L14.3769 11.0214L14.4979 10.8622ZM7.69738 9.05312C7.75772 9.05313 7.81559 9.07711 7.85825 9.11978L7.99969 8.97838C7.91953 8.8982 7.8108 8.85314 7.69742 8.85312L7.69738 9.05312ZM7.85825 9.11978C7.90092 9.16246 7.92489 9.22033 7.92489 9.28067H8.12489C8.12489 9.16729 8.07985 9.05856 7.99969 8.97838L7.85825 9.11978ZM7.92489 9.28067C7.92489 9.34102 7.90092 9.39889 7.85825 9.44156L7.99969 9.58297C8.07985 9.50279 8.12489 9.39405 8.12489 9.28067H7.92489ZM7.85825 9.44156C7.81559 9.48423 7.75772 9.50821 7.69738 9.50823L7.69742 9.70823C7.8108 9.7082 7.91953 9.66315 7.99969 9.58297L7.85825 9.44156ZM7.6974 9.50823H4.00326V9.70823H7.6974V9.50823ZM4.00328 9.50823C3.94294 9.50821 3.88507 9.48423 3.8424 9.44156L3.70097 9.58297C3.78113 9.66315 3.88986 9.7082 4.00324 9.70823L4.00328 9.50823ZM3.8424 9.44156C3.79974 9.39889 3.77577 9.34102 3.77577 9.28067H3.57577C3.57577 9.39405 3.6208 9.50279 3.70097 9.58297L3.8424 9.44156ZM3.77577 9.28067C3.77577 9.22033 3.79974 9.16246 3.8424 9.11978L3.70097 8.97838C3.6208 9.05856 3.57577 9.16729 3.57577 9.28067H3.77577ZM3.8424 9.11978C3.88507 9.07711 3.94294 9.05313 4.00328 9.05312L4.00324 8.85312C3.88986 8.85314 3.78113 8.8982 3.70097 8.97838L3.8424 9.11978ZM4.00326 9.05312H7.6974V8.85312H4.00326V9.05312ZM11.3413 6.33484C11.4589 6.33484 11.5718 6.38158 11.655 6.46479L11.7964 6.32336C11.6757 6.20266 11.512 6.13484 11.3413 6.13484V6.33484ZM11.655 6.46479C11.7382 6.54799 11.7849 6.66083 11.7849 6.7785H11.9849C11.9849 6.60779 11.9171 6.44407 11.7964 6.32336L11.655 6.46479ZM11.7849 6.7785C11.7849 6.89616 11.7382 7.00901 11.655 7.09221L11.7964 7.23363C11.9171 7.11292 11.9849 6.94921 11.9849 6.7785H11.7849ZM11.655 7.09221C11.5718 7.17541 11.4589 7.22215 11.3413 7.22215V7.42215C11.512 7.42215 11.6757 7.35434 11.7964 7.23363L11.655 7.09221ZM11.3413 7.22215C11.2236 7.22215 11.1107 7.17541 11.0275 7.09221L10.8861 7.23363C11.0068 7.35434 11.1705 7.42215 11.3413 7.42215V7.22215ZM11.0275 7.09221C10.9443 7.00901 10.8976 6.89616 10.8976 6.7785H10.6976C10.6976 6.94921 10.7654 7.11292 10.8861 7.23363L11.0275 7.09221ZM10.8976 6.7785C10.8976 6.66083 10.9443 6.54799 11.0275 6.46479L10.8861 6.32336C10.7654 6.44407 10.6976 6.60779 10.6976 6.7785H10.8976ZM11.0275 6.46479C11.1107 6.38158 11.2236 6.33484 11.3413 6.33484V6.13484C11.1705 6.13484 11.0068 6.20266 10.8861 6.32336L11.0275 6.46479ZM9.32835 6.60667C9.38869 6.60668 9.44656 6.63066 9.48922 6.67333L9.63066 6.53193C9.55049 6.45175 9.44176 6.40669 9.32839 6.40667L9.32835 6.60667ZM9.48922 6.67333C9.53189 6.71601 9.55585 6.77388 9.55585 6.83422L9.75585 6.83422C9.75585 6.72084 9.71082 6.61211 9.63066 6.53193L9.48922 6.67333ZM9.55585 6.83422C9.55585 6.89457 9.53189 6.95244 9.48922 6.99511L9.63066 7.13652C9.71082 7.05634 9.75585 6.9476 9.75585 6.83422L9.55585 6.83422ZM9.48922 6.99511C9.44656 7.03778 9.38869 7.06176 9.32835 7.06178L9.32839 7.26178C9.44176 7.26175 9.55049 7.2167 9.63066 7.13652L9.48922 6.99511ZM9.32837 7.06178H4.00326V7.26178H9.32837V7.06178ZM4.00328 7.06178C3.94294 7.06176 3.88507 7.03778 3.8424 6.99511L3.70097 7.13652C3.78113 7.2167 3.88986 7.26175 4.00324 7.26178L4.00328 7.06178ZM3.8424 6.99511C3.79974 6.95244 3.77577 6.89457 3.77577 6.83422H3.57577C3.57577 6.9476 3.6208 7.05634 3.70097 7.13652L3.8424 6.99511ZM3.77577 6.83422C3.77577 6.77388 3.79974 6.71601 3.8424 6.67333L3.70097 6.53193C3.6208 6.61211 3.57577 6.72084 3.57577 6.83422H3.77577ZM3.8424 6.67333C3.88507 6.63066 3.94294 6.60668 4.00328 6.60667L4.00324 6.40667C3.88986 6.40669 3.78113 6.45175 3.70097 6.53193L3.8424 6.67333ZM4.00326 6.60667H9.32837V6.40667H4.00326V6.60667ZM11.3413 3.88839C11.4589 3.88839 11.5718 3.93513 11.655 4.01834L11.7964 3.87691C11.6757 3.75621 11.512 3.68839 11.3413 3.68839V3.88839ZM11.655 4.01834C11.7382 4.10154 11.7849 4.21438 11.7849 4.33205H11.9849C11.9849 4.16134 11.9171 3.99762 11.7964 3.87691L11.655 4.01834ZM11.7849 4.33205C11.7849 4.44971 11.7382 4.56256 11.655 4.64576L11.7964 4.78718C11.9171 4.66647 11.9849 4.50276 11.9849 4.33205H11.7849ZM11.655 4.64576C11.5718 4.72896 11.4589 4.7757 11.3413 4.7757V4.9757C11.512 4.9757 11.6757 4.90789 11.7964 4.78718L11.655 4.64576ZM11.3413 4.7757C11.2236 4.7757 11.1107 4.72896 11.0275 4.64576L10.8861 4.78718C11.0068 4.90789 11.1705 4.9757 11.3413 4.9757V4.7757ZM11.0275 4.64576C10.9443 4.56256 10.8976 4.44971 10.8976 4.33205H10.6976C10.6976 4.50276 10.7654 4.66647 10.8861 4.78718L11.0275 4.64576ZM10.8976 4.33205C10.8976 4.21438 10.9443 4.10154 11.0275 4.01834L10.8861 3.87691C10.7654 3.99762 10.6976 4.16134 10.6976 4.33205H10.8976ZM11.0275 4.01834C11.1107 3.93513 11.2236 3.88839 11.3413 3.88839V3.68839C11.1705 3.68839 11.0068 3.75621 10.8861 3.87691L11.0275 4.01834ZM9.32837 4.16022C9.38872 4.16022 9.4466 4.18419 9.48927 4.22687L9.63069 4.08545C9.55051 4.00527 9.44176 3.96022 9.32837 3.96022V4.16022ZM9.48927 4.22687C9.53194 4.26954 9.55592 4.32742 9.55592 4.38777H9.75592C9.75592 4.27438 9.71087 4.16563 9.63069 4.08545L9.48927 4.22687ZM9.55592 4.38777C9.55592 4.44812 9.53194 4.506 9.48927 4.54868L9.63069 4.6901C9.71087 4.60992 9.75592 4.50117 9.75592 4.38777H9.55592ZM9.48927 4.54868C9.4466 4.59135 9.38872 4.61532 9.32837 4.61532V4.81532C9.44176 4.81532 9.55051 4.77028 9.63069 4.6901L9.48927 4.54868ZM9.32837 4.61532H4.00326V4.81532H9.32837V4.61532ZM4.00326 4.61532C3.94291 4.61532 3.88503 4.59135 3.84235 4.54868L3.70093 4.6901C3.78112 4.77028 3.88986 4.81532 4.00326 4.81532L4.00326 4.61532ZM3.84235 4.54868C3.79968 4.506 3.77571 4.44812 3.77571 4.38777H3.57571C3.57571 4.50117 3.62075 4.60992 3.70093 4.6901L3.84235 4.54868ZM3.77571 4.38777C3.77571 4.32742 3.79968 4.26954 3.84235 4.22687L3.70093 4.08545C3.62075 4.16563 3.57571 4.27438 3.57571 4.38777H3.77571ZM3.84235 4.22687C3.88503 4.18419 3.94291 4.16022 4.00326 4.16022V3.96022C3.88986 3.96022 3.78112 4.00527 3.70093 4.08545L3.84235 4.22687ZM4.00326 4.16022H9.32837V3.96022H4.00326V4.16022Z" fill="white" mask="url(#path-1-outside-1_218_1108)"/>
</svg>
