<svg width="17" height="18" viewBox="0 0 17 18" fill="none" xmlns="http://www.w3.org/2000/svg">
<g id="&#232;&#131;&#189;&#230;&#186;&#144;&#229;&#174;&#158;&#231;&#187;&#169;">
<path id="Polygon 1" d="M12.8613 14.2148L14.2134 13.4344C14.5228 13.2557 14.7134 12.9256 14.7134 12.5683V6.39812C14.7134 6.04082 14.5228 5.71066 14.2134 5.53204L8.86836 2.44677C8.559 2.2682 8.17788 2.2682 7.86852 2.44677L2.52352 5.53204C2.21407 5.71066 2.02344 6.04082 2.02344 6.39812V12.5683C2.02344 12.9256 2.21407 13.2557 2.52352 13.4344L7.87228 16.5218C8.17962 16.6992 8.55796 16.7004 8.86645 16.5251L10.7897 15.4316" stroke="white" stroke-width="0.8" stroke-linecap="round"/>
<path id="Vector 44" d="M5.51074 8.14941V11.8823" stroke="white" stroke-width="0.8" stroke-linecap="round" stroke-linejoin="round"/>
<path id="Vector 45" d="M8.36816 8.14941V11.8823" stroke="white" stroke-width="0.8" stroke-linecap="round" stroke-linejoin="round"/>
<path id="Vector 46" d="M11.2266 6.62012L11.2266 11.8823" stroke="white" stroke-width="0.8" stroke-linecap="round" stroke-linejoin="round"/>
</g>
</svg>
