<svg width="17" height="17" viewBox="0 0 17 17" fill="none" xmlns="http://www.w3.org/2000/svg">
<path fill-rule="evenodd" clip-rule="evenodd" d="M14.5686 3.15H3.56857C3.51334 3.15 3.46857 3.19477 3.46857 3.25V12.25C3.46857 12.3052 3.51334 12.35 3.56857 12.35H14.5686C14.6238 12.35 14.6686 12.3052 14.6686 12.25V3.25C14.6686 3.19477 14.6238 3.15 14.5686 3.15ZM3.56857 2.25C3.01629 2.25 2.56857 2.69771 2.56857 3.25V12.25C2.56857 12.8023 3.01629 13.25 3.56857 13.25H14.5686C15.1209 13.25 15.5686 12.8023 15.5686 12.25V3.25C15.5686 2.69772 15.1209 2.25 14.5686 2.25H3.56857ZM4.11857 15.25C4.11857 15.0015 4.32004 14.8 4.56857 14.8H13.5686C13.8171 14.8 14.0186 15.0015 14.0186 15.25C14.0186 15.4985 13.8171 15.7 13.5686 15.7H4.56857C4.32004 15.7 4.11857 15.4985 4.11857 15.25ZM8.26057 4.78247H7.26857L5.06857 10.4945H5.99657L6.53257 9.02247H8.98857L9.52457 10.4945H10.4606L8.26057 4.78247ZM8.72457 8.30247H6.79657L7.74857 5.71847H7.78057L8.72457 8.30247ZM11.8992 4.78247H11.0352V10.4945H11.8992V4.78247Z" fill="white"/>
</svg>
