<svg width="17" height="16" viewBox="0 0 17 16" fill="none" xmlns="http://www.w3.org/2000/svg">
<path fill-rule="evenodd" clip-rule="evenodd" d="M3.1938 1.02539C2.39299 1.02539 1.7438 1.67458 1.7438 2.47539V11.4754C1.7438 12.2762 2.39299 12.9254 3.1938 12.9254H14.7402C14.9888 12.9254 15.1902 12.7239 15.1902 12.4754C15.1902 12.2269 14.9888 12.0254 14.7402 12.0254H3.1938C2.89005 12.0254 2.6438 11.7791 2.6438 11.4754V2.47539C2.6438 2.17163 2.89005 1.92539 3.1938 1.92539H14.1938C14.4976 1.92539 14.7438 2.17163 14.7438 2.47539V7.61399C14.7438 7.86251 14.9453 8.06399 15.1938 8.06399C15.4423 8.06399 15.6438 7.86251 15.6438 7.61399V2.47539C15.6438 1.67458 14.9946 1.02539 14.1938 1.02539H3.1938ZM5.36856 9.39316V4.99316H7.76856V9.39316H5.36856ZM4.56856 4.69316C4.56856 4.41702 4.79242 4.19316 5.06856 4.19316H8.06856C8.3447 4.19316 8.56856 4.41702 8.56856 4.69316V9.69316C8.56856 9.96931 8.3447 10.1932 8.06856 10.1932H5.06856C4.79242 10.1932 4.56856 9.96931 4.56856 9.69316V4.69316ZM9.9938 6.7937V9.21274H12.3938V6.7937H9.9938ZM9.6938 5.9937C9.41766 5.9937 9.1938 6.21756 9.1938 6.4937V9.51274C9.1938 9.78889 9.41766 10.0127 9.6938 10.0127H12.6938C12.9699 10.0127 13.1938 9.78889 13.1938 9.51274V6.4937C13.1938 6.21756 12.9699 5.9937 12.6938 5.9937H9.6938ZM4.1938 14.0254C3.94528 14.0254 3.7438 14.2269 3.7438 14.4754C3.7438 14.7239 3.94528 14.9254 4.1938 14.9254H13.1938C13.4423 14.9254 13.6438 14.7239 13.6438 14.4754C13.6438 14.2269 13.4423 14.0254 13.1938 14.0254H4.1938Z" fill="white"/>
</svg>
