<svg width="17" height="17" viewBox="0 0 17 17" fill="none" xmlns="http://www.w3.org/2000/svg">
<path fill-rule="evenodd" clip-rule="evenodd" d="M14.3644 2.94956H3.36441C3.30918 2.94956 3.26441 2.99433 3.26441 3.04956V12.0496C3.26441 12.1048 3.30918 12.1496 3.36441 12.1496H14.3644C14.4196 12.1496 14.4644 12.1048 14.4644 12.0496V3.04956C14.4644 2.99433 14.4196 2.94956 14.3644 2.94956ZM3.36441 2.04956C2.81213 2.04956 2.36441 2.49728 2.36441 3.04956V12.0496C2.36441 12.6018 2.81213 13.0496 3.36441 13.0496H14.3644C14.9167 13.0496 15.3644 12.6018 15.3644 12.0496V3.04956C15.3644 2.49728 14.9167 2.04956 14.3644 2.04956H3.36441ZM10.9205 9.25793C10.981 9.35197 11.1069 9.37808 11.1998 9.31588L11.6232 9.03257C11.7139 8.97191 11.7392 8.8498 11.6802 8.75809L9.66772 5.63235C9.58669 5.50649 9.40119 5.51098 9.32635 5.64061L8.12019 7.72973C8.04535 7.85937 7.85986 7.86386 7.77883 7.738L6.55787 5.84161C6.49733 5.74757 6.37144 5.72145 6.27848 5.78365L5.8551 6.06696C5.76444 6.12762 5.73911 6.24974 5.79816 6.34145L7.8106 9.46719C7.89163 9.59304 8.07713 9.58855 8.15197 9.45892L9.35813 7.3698C9.43297 7.24017 9.61846 7.23568 9.69949 7.36153L10.9205 9.25793ZM4.36441 14.5996C4.11588 14.5996 3.91441 14.801 3.91441 15.0496C3.91441 15.2981 4.11588 15.4996 4.36441 15.4996H13.3644C13.6129 15.4996 13.8144 15.2981 13.8144 15.0496C13.8144 14.801 13.6129 14.5996 13.3644 14.5996H4.36441Z" fill="white"/>
</svg>
