<svg width="17" height="17" viewBox="0 0 17 17" fill="none" xmlns="http://www.w3.org/2000/svg">
<mask id="path-1-outside-1_220_1151" maskUnits="userSpaceOnUse" x="0.968384" y="0.564697" width="14" height="15" fill="black">
<rect fill="white" x="0.968384" y="0.564697" width="14" height="15"/>
<path fill-rule="evenodd" clip-rule="evenodd" d="M11.1971 8.90711L11.3734 9.11278L11.5497 8.90711C11.5502 8.90625 11.5571 8.89818 11.5695 8.88348L11.5696 8.88343C11.6839 8.74853 12.2712 8.05584 12.8513 7.22943C13.7327 5.97191 14.1793 5.0082 14.1793 4.37062C14.1793 2.82222 12.9218 1.5647 11.3734 1.5647C9.82497 1.5647 8.56744 2.82516 8.56744 4.37062C8.56744 5.0082 9.01404 5.97191 9.89548 7.22943C10.5389 8.14907 11.1912 8.90124 11.1971 8.90711ZM11.3763 2.0348C12.6632 2.0348 13.7121 3.08372 13.7121 4.37062C13.7121 5.38134 12.1637 7.44686 11.3763 8.39C10.5889 7.44686 9.04048 5.38134 9.04048 4.37062C9.04048 3.08372 10.0865 2.0348 11.3763 2.0348ZM13.956 7.24415C13.8267 7.24415 13.7209 7.34992 13.7209 7.4792V14.2487C13.7209 14.2546 13.7151 14.2575 13.7121 14.2575H2.4473C2.44142 14.2575 2.43849 14.2516 2.43849 14.2487V4.15616C2.43849 4.15029 2.44436 4.14735 2.4473 4.14735H7.16889C7.29817 4.14735 7.40394 4.04158 7.40394 3.9123C7.40394 3.78302 7.29817 3.67725 7.16889 3.67725H2.4473C2.18287 3.67725 1.96838 3.89173 1.96838 4.15616V14.2487C1.96838 14.5131 2.18287 14.7276 2.4473 14.7276H13.7121C13.9766 14.7276 14.1911 14.5131 14.1911 14.2487V7.4792C14.1911 7.34698 14.0853 7.24415 13.956 7.24415ZM11.3763 3.25684C11.9552 3.25684 12.4253 3.72694 12.4253 4.30575C12.4253 4.8875 11.9552 5.35761 11.3763 5.35467C10.7975 5.35467 10.3274 4.88457 10.3274 4.30575C10.3274 3.72694 10.7975 3.25684 11.3763 3.25684ZM11.3734 3.72694C11.0561 3.72694 10.7946 3.98549 10.7946 4.30575C10.7946 4.62601 11.0561 4.8875 11.3734 4.88457C11.6907 4.88457 11.9522 4.62307 11.9522 4.30575C11.9522 3.98843 11.6937 3.72694 11.3734 3.72694ZM12.4076 9.53858C12.4987 9.44456 12.6456 9.44162 12.7396 9.5327C12.8307 9.62379 12.8337 9.77069 12.7455 9.86765L10.9532 11.7157L11.2588 12.0213C11.3499 12.1124 11.3499 12.2622 11.2588 12.3533C11.2118 12.3974 11.1501 12.4209 11.0913 12.4209C11.0296 12.4209 10.9709 12.4003 10.9239 12.3533L8.40294 9.82946L4.89774 13.3347C4.85073 13.3787 4.78903 13.4022 4.73027 13.4022C4.66857 13.4022 4.6098 13.3817 4.56279 13.3347C4.47171 13.2436 4.47171 13.0937 4.56279 13.0026L8.07387 9.49451L6.55485 7.97549L4.31305 10.2202C4.26604 10.2643 4.20434 10.2878 4.14558 10.2878C4.08387 10.2878 4.02511 10.2672 3.9781 10.2202C3.88702 10.1291 3.88702 9.9793 3.9781 9.88822L6.2199 7.64348L4.74202 6.16266C4.65094 6.07157 4.65094 5.92173 4.74202 5.83065C4.8331 5.73956 4.98295 5.73956 5.07403 5.83065L8.40294 9.1625L9.09047 8.47791C9.18155 8.38683 9.3314 8.38683 9.42248 8.47791C9.51356 8.56899 9.51356 8.71884 9.42248 8.80992L8.73789 9.49745L10.6212 11.3808L12.4076 9.53858Z"/>
</mask>
<path fill-rule="evenodd" clip-rule="evenodd" d="M11.1971 8.90711L11.3734 9.11278L11.5497 8.90711C11.5502 8.90625 11.5571 8.89818 11.5695 8.88348L11.5696 8.88343C11.6839 8.74853 12.2712 8.05584 12.8513 7.22943C13.7327 5.97191 14.1793 5.0082 14.1793 4.37062C14.1793 2.82222 12.9218 1.5647 11.3734 1.5647C9.82497 1.5647 8.56744 2.82516 8.56744 4.37062C8.56744 5.0082 9.01404 5.97191 9.89548 7.22943C10.5389 8.14907 11.1912 8.90124 11.1971 8.90711ZM11.3763 2.0348C12.6632 2.0348 13.7121 3.08372 13.7121 4.37062C13.7121 5.38134 12.1637 7.44686 11.3763 8.39C10.5889 7.44686 9.04048 5.38134 9.04048 4.37062C9.04048 3.08372 10.0865 2.0348 11.3763 2.0348ZM13.956 7.24415C13.8267 7.24415 13.7209 7.34992 13.7209 7.4792V14.2487C13.7209 14.2546 13.7151 14.2575 13.7121 14.2575H2.4473C2.44142 14.2575 2.43849 14.2516 2.43849 14.2487V4.15616C2.43849 4.15029 2.44436 4.14735 2.4473 4.14735H7.16889C7.29817 4.14735 7.40394 4.04158 7.40394 3.9123C7.40394 3.78302 7.29817 3.67725 7.16889 3.67725H2.4473C2.18287 3.67725 1.96838 3.89173 1.96838 4.15616V14.2487C1.96838 14.5131 2.18287 14.7276 2.4473 14.7276H13.7121C13.9766 14.7276 14.1911 14.5131 14.1911 14.2487V7.4792C14.1911 7.34698 14.0853 7.24415 13.956 7.24415ZM11.3763 3.25684C11.9552 3.25684 12.4253 3.72694 12.4253 4.30575C12.4253 4.8875 11.9552 5.35761 11.3763 5.35467C10.7975 5.35467 10.3274 4.88457 10.3274 4.30575C10.3274 3.72694 10.7975 3.25684 11.3763 3.25684ZM11.3734 3.72694C11.0561 3.72694 10.7946 3.98549 10.7946 4.30575C10.7946 4.62601 11.0561 4.8875 11.3734 4.88457C11.6907 4.88457 11.9522 4.62307 11.9522 4.30575C11.9522 3.98843 11.6937 3.72694 11.3734 3.72694ZM12.4076 9.53858C12.4987 9.44456 12.6456 9.44162 12.7396 9.5327C12.8307 9.62379 12.8337 9.77069 12.7455 9.86765L10.9532 11.7157L11.2588 12.0213C11.3499 12.1124 11.3499 12.2622 11.2588 12.3533C11.2118 12.3974 11.1501 12.4209 11.0913 12.4209C11.0296 12.4209 10.9709 12.4003 10.9239 12.3533L8.40294 9.82946L4.89774 13.3347C4.85073 13.3787 4.78903 13.4022 4.73027 13.4022C4.66857 13.4022 4.6098 13.3817 4.56279 13.3347C4.47171 13.2436 4.47171 13.0937 4.56279 13.0026L8.07387 9.49451L6.55485 7.97549L4.31305 10.2202C4.26604 10.2643 4.20434 10.2878 4.14558 10.2878C4.08387 10.2878 4.02511 10.2672 3.9781 10.2202C3.88702 10.1291 3.88702 9.9793 3.9781 9.88822L6.2199 7.64348L4.74202 6.16266C4.65094 6.07157 4.65094 5.92173 4.74202 5.83065C4.8331 5.73956 4.98295 5.73956 5.07403 5.83065L8.40294 9.1625L9.09047 8.47791C9.18155 8.38683 9.3314 8.38683 9.42248 8.47791C9.51356 8.56899 9.51356 8.71884 9.42248 8.80992L8.73789 9.49745L10.6212 11.3808L12.4076 9.53858Z" fill="white"/>
<path d="M11.3734 9.11278L11.2595 9.2104L11.3734 9.34327L11.4873 9.2104L11.3734 9.11278ZM11.1971 8.90711L11.3113 8.80921L11.3031 8.80105L11.1971 8.90711ZM11.5497 8.90711L11.6635 9.00473L11.6695 8.99784L11.6745 8.99029L11.5497 8.90711ZM11.5695 8.88348L11.684 8.98048L11.6848 8.9795L11.5695 8.88348ZM11.5696 8.88343L11.4552 8.78642L11.4543 8.7874L11.5696 8.88343ZM12.8513 7.22943L12.974 7.31561L12.9741 7.31553L12.8513 7.22943ZM9.89548 7.22943L10.0184 7.14344L10.0183 7.14334L9.89548 7.22943ZM11.3763 8.39L11.2612 8.48613L11.3763 8.62405L11.4915 8.48613L11.3763 8.39ZM11.3763 5.35467L11.3771 5.20467H11.3763V5.35467ZM11.3734 4.88457L11.3734 4.73456L11.372 4.73457L11.3734 4.88457ZM12.7396 9.5327L12.8457 9.42663L12.844 9.42497L12.7396 9.5327ZM12.4076 9.53858L12.5153 9.643L12.5154 9.64295L12.4076 9.53858ZM12.7455 9.86765L12.8533 9.97213L12.8565 9.96855L12.7455 9.86765ZM10.9532 11.7157L10.8456 11.6113L10.7427 11.7174L10.8472 11.8218L10.9532 11.7157ZM11.2588 12.0213L11.3649 11.9152L11.3649 11.9152L11.2588 12.0213ZM11.2588 12.3533L11.3615 12.4628L11.3649 12.4594L11.2588 12.3533ZM10.9239 12.3533L10.8177 12.4593L10.8178 12.4594L10.9239 12.3533ZM8.40294 9.82946L8.50907 9.72345L8.403 9.61726L8.29688 9.72339L8.40294 9.82946ZM4.89774 13.3347L5.00038 13.4441L5.00381 13.4407L4.89774 13.3347ZM4.56279 13.3347L4.66886 13.2286L4.66886 13.2286L4.56279 13.3347ZM4.56279 13.0026L4.45677 12.8965L4.45673 12.8966L4.56279 13.0026ZM8.07387 9.49451L8.17989 9.60062L8.28605 9.49455L8.17994 9.38844L8.07387 9.49451ZM6.55485 7.97549L6.66092 7.86942L6.55478 7.76329L6.44872 7.86949L6.55485 7.97549ZM4.31305 10.2202L4.4157 10.3297L4.41919 10.3262L4.31305 10.2202ZM3.9781 10.2202L4.08417 10.1142L4.08417 10.1142L3.9781 10.2202ZM3.9781 9.88822L4.08417 9.99429L4.08424 9.99422L3.9781 9.88822ZM6.2199 7.64348L6.32604 7.74948L6.43186 7.64352L6.32607 7.53752L6.2199 7.64348ZM4.74202 6.16266L4.84819 6.0567L4.84808 6.05659L4.74202 6.16266ZM4.74202 5.83065L4.63595 5.72458L4.63595 5.72458L4.74202 5.83065ZM5.07403 5.83065L5.18014 5.72463L5.18009 5.72458L5.07403 5.83065ZM8.40294 9.1625L8.29683 9.26852L8.40267 9.37445L8.50878 9.26879L8.40294 9.1625ZM9.09047 8.47791L9.19631 8.58421L9.19653 8.58398L9.09047 8.47791ZM9.42248 8.80992L9.31641 8.70386L9.31619 8.70408L9.42248 8.80992ZM8.73789 9.49745L8.6316 9.39161L8.52599 9.49767L8.63182 9.60351L8.73789 9.49745ZM10.6212 11.3808L10.5152 11.4869L10.6229 11.5946L10.7289 11.4852L10.6212 11.3808ZM11.4873 9.01516L11.311 8.80949L11.0832 9.00473L11.2595 9.2104L11.4873 9.01516ZM11.4358 8.80949L11.2595 9.01516L11.4873 9.2104L11.6635 9.00473L11.4358 8.80949ZM11.4551 8.78648C11.449 8.79375 11.444 8.79964 11.4404 8.80381C11.4387 8.80586 11.4371 8.80782 11.4357 8.80947C11.4351 8.81024 11.4341 8.81136 11.4332 8.81257C11.4327 8.81315 11.4319 8.81416 11.431 8.81539C11.4306 8.81587 11.4279 8.81936 11.4248 8.82394L11.6745 8.99029C11.6727 8.99296 11.6712 8.99499 11.6706 8.99589C11.6698 8.99697 11.6691 8.99783 11.6687 8.99834C11.6679 8.99935 11.6674 9.00008 11.6672 9.00034C11.6667 9.00088 11.6665 9.00111 11.6668 9.00078C11.6673 9.0002 11.6682 8.99907 11.6698 8.99716C11.673 8.9934 11.6777 8.98791 11.684 8.98048L11.4551 8.78648ZM11.4543 8.7874L11.4543 8.78745L11.6848 8.9795L11.6848 8.97945L11.4543 8.7874ZM12.7285 7.14326C12.1525 7.96389 11.5688 8.65236 11.4552 8.78643L11.684 8.98042C11.7991 8.84471 12.3899 8.1478 12.974 7.31561L12.7285 7.14326ZM14.0293 4.37062C14.0293 4.65782 13.9277 5.035 13.7098 5.50438C13.4929 5.9715 13.1661 6.51891 12.7284 7.14334L12.9741 7.31553C13.4178 6.68243 13.7551 6.11922 13.9819 5.63071C14.2076 5.14447 14.3293 4.721 14.3293 4.37062H14.0293ZM11.3734 1.7147C12.8389 1.7147 14.0293 2.90506 14.0293 4.37062H14.3293C14.3293 2.73938 13.0046 1.4147 11.3734 1.4147V1.7147ZM8.71744 4.37062C8.71744 2.9079 9.90791 1.7147 11.3734 1.7147V1.4147C9.74202 1.4147 8.41744 2.74242 8.41744 4.37062H8.71744ZM10.0183 7.14334C9.58063 6.51891 9.25384 5.9715 9.03698 5.50438C8.81906 5.035 8.71744 4.65782 8.71744 4.37062H8.41744C8.41744 4.721 8.53913 5.14447 8.76487 5.63071C8.99166 6.11922 9.32889 6.68243 9.77265 7.31553L10.0183 7.14334ZM11.3031 8.80105C11.3061 8.80395 10.6595 8.05972 10.0184 7.14344L9.77258 7.31543C10.4184 8.23843 11.0764 8.99852 11.091 9.01317L11.3031 8.80105ZM13.8621 4.37062C13.8621 3.00087 12.7461 1.8848 11.3763 1.8848V2.1848C12.5804 2.1848 13.5621 3.16656 13.5621 4.37062H13.8621ZM11.4915 8.48613C11.8878 8.01139 12.4759 7.25396 12.9659 6.48636C13.2109 6.10266 13.4332 5.71349 13.5947 5.35389C13.7546 4.99792 13.8621 4.65571 13.8621 4.37062H13.5621C13.5621 4.59089 13.4761 4.88589 13.3211 5.23095C13.1677 5.57237 12.9537 5.94804 12.7131 6.32494C12.232 7.07857 11.6522 7.82546 11.2612 8.29387L11.4915 8.48613ZM8.89048 4.37062C8.89048 4.65571 8.99798 4.99792 9.1579 5.35389C9.31945 5.71349 9.54174 6.10266 9.78668 6.48636C10.2767 7.25396 10.8648 8.01139 11.2612 8.48613L11.4915 8.29387C11.1004 7.82546 10.5206 7.07857 10.0395 6.32494C9.79895 5.94804 9.58494 5.57237 9.43155 5.23095C9.27654 4.88589 9.19048 4.59089 9.19048 4.37062H8.89048ZM11.3763 1.8848C10.0035 1.8848 8.89048 3.001 8.89048 4.37062H9.19048C9.19048 3.16644 10.1694 2.1848 11.3763 2.1848V1.8848ZM13.8709 7.4792C13.8709 7.43276 13.9096 7.39415 13.956 7.39415V7.09415C13.7439 7.09415 13.5709 7.26708 13.5709 7.4792H13.8709ZM13.8709 14.2487V7.4792H13.5709V14.2487H13.8709ZM13.7121 14.4075C13.7531 14.4075 13.7875 14.3915 13.8114 14.3724C13.84 14.3495 13.8709 14.3074 13.8709 14.2487H13.5709C13.5709 14.1959 13.599 14.1581 13.6239 14.1382C13.6441 14.122 13.6741 14.1075 13.7121 14.1075V14.4075ZM2.4473 14.4075H13.7121V14.1075H2.4473V14.4075ZM2.28849 14.2487C2.28849 14.2896 2.30447 14.324 2.32356 14.3479C2.34644 14.3765 2.38859 14.4075 2.4473 14.4075V14.1075C2.50014 14.1075 2.53788 14.1356 2.55782 14.1605C2.57397 14.1807 2.58849 14.2107 2.58849 14.2487H2.28849ZM2.28849 4.15616V14.2487H2.58849V4.15616H2.28849ZM2.4473 3.99735C2.40634 3.99735 2.37195 4.01333 2.34809 4.03242C2.31947 4.05531 2.28849 4.09746 2.28849 4.15616H2.58849C2.58849 4.20899 2.56044 4.24673 2.5355 4.26668C2.51531 4.28283 2.48532 4.29735 2.4473 4.29735V3.99735ZM7.16889 3.99735H2.4473V4.29735H7.16889V3.99735ZM7.25394 3.9123C7.25394 3.95873 7.21533 3.99735 7.16889 3.99735V4.29735C7.38101 4.29735 7.55394 4.12442 7.55394 3.9123H7.25394ZM7.16889 3.82725C7.21533 3.82725 7.25394 3.86586 7.25394 3.9123H7.55394C7.55394 3.70018 7.38101 3.52725 7.16889 3.52725V3.82725ZM2.4473 3.82725H7.16889V3.52725H2.4473V3.82725ZM2.11838 4.15616C2.11838 3.97457 2.26571 3.82725 2.4473 3.82725V3.52725C2.10003 3.52725 1.81838 3.80889 1.81838 4.15616H2.11838ZM2.11838 14.2487V4.15616H1.81838V14.2487H2.11838ZM2.4473 14.5776C2.26571 14.5776 2.11838 14.4303 2.11838 14.2487H1.81838C1.81838 14.596 2.10003 14.8776 2.4473 14.8776V14.5776ZM13.7121 14.5776H2.4473V14.8776H13.7121V14.5776ZM14.0411 14.2487C14.0411 14.4303 13.8937 14.5776 13.7121 14.5776V14.8776C14.0594 14.8776 14.3411 14.596 14.3411 14.2487H14.0411ZM14.0411 7.4792V14.2487H14.3411V7.4792H14.0411ZM13.956 7.39415C14.0037 7.39415 14.0411 7.43105 14.0411 7.4792H14.3411C14.3411 7.26292 14.1669 7.09415 13.956 7.09415V7.39415ZM12.5753 4.30575C12.5753 3.6441 12.038 3.10684 11.3763 3.10684V3.40684C11.8723 3.40684 12.2753 3.80978 12.2753 4.30575H12.5753ZM11.3756 5.50467C12.0383 5.50803 12.5753 4.96992 12.5753 4.30575H12.2753C12.2753 4.80508 11.8721 5.20718 11.3771 5.20467L11.3756 5.50467ZM10.1774 4.30575C10.1774 4.96741 10.7147 5.50467 11.3763 5.50467V5.20467C10.8804 5.20467 10.4774 4.80172 10.4774 4.30575H10.1774ZM11.3763 3.10684C10.7147 3.10684 10.1774 3.6441 10.1774 4.30575H10.4774C10.4774 3.80978 10.8804 3.40684 11.3763 3.40684V3.10684ZM10.9446 4.30575C10.9446 4.06883 11.1384 3.87694 11.3734 3.87694V3.57694C10.9737 3.57694 10.6446 3.90216 10.6446 4.30575H10.9446ZM11.372 4.73457C11.1394 4.73673 10.9446 4.54394 10.9446 4.30575H10.6446C10.6446 4.70808 10.9728 5.03828 11.3748 5.03456L11.372 4.73457ZM11.8022 4.30575C11.8022 4.54023 11.6079 4.73457 11.3734 4.73457V5.03457C11.7736 5.03457 12.1022 4.70591 12.1022 4.30575H11.8022ZM11.3734 3.87694C11.6103 3.87694 11.8022 4.07078 11.8022 4.30575H12.1022C12.1022 3.90609 11.777 3.57694 11.3734 3.57694V3.87694ZM12.844 9.42497C12.69 9.27575 12.4481 9.28121 12.2999 9.43421L12.5154 9.64295C12.5493 9.60792 12.6013 9.6075 12.6353 9.64044L12.844 9.42497ZM12.8565 9.96855C12.9975 9.81348 12.9945 9.57541 12.8457 9.42664L12.6336 9.63877C12.667 9.67216 12.6698 9.72791 12.6345 9.76675L12.8565 9.96855ZM11.0609 11.8202L12.8532 9.97208L12.6378 9.76323L10.8456 11.6113L11.0609 11.8202ZM11.3649 11.9152L11.0593 11.6097L10.8472 11.8218L11.1528 12.1274L11.3649 11.9152ZM11.3649 12.4594C11.5145 12.3097 11.5145 12.0649 11.3649 11.9152L11.1528 12.1274C11.1853 12.1599 11.1853 12.2148 11.1528 12.2473L11.3649 12.4594ZM11.0913 12.5709C11.1886 12.5709 11.2869 12.5326 11.3614 12.4627L11.1562 12.2439C11.1367 12.2622 11.1116 12.2709 11.0913 12.2709V12.5709ZM10.8178 12.4594C10.8961 12.5377 10.9946 12.5709 11.0913 12.5709V12.2709C11.0647 12.2709 11.0457 12.263 11.0299 12.2473L10.8178 12.4594ZM8.29681 9.93546L10.8177 12.4593L11.03 12.2473L8.50907 9.72345L8.29681 9.93546ZM5.00381 13.4407L8.50901 9.93552L8.29688 9.72339L4.79167 13.2286L5.00381 13.4407ZM4.73027 13.5522C4.82751 13.5522 4.92579 13.514 5.00033 13.4441L4.79515 13.2252C4.77567 13.2435 4.75055 13.2522 4.73027 13.2522V13.5522ZM4.45673 13.4407C4.53503 13.519 4.63349 13.5522 4.73027 13.5522V13.2522C4.70364 13.2522 4.68458 13.2443 4.66886 13.2286L4.45673 13.4407ZM4.45673 12.8966C4.30707 13.0462 4.30707 13.2911 4.45673 13.4407L4.66886 13.2286C4.63635 13.1961 4.63635 13.1412 4.66886 13.1087L4.45673 12.8966ZM7.96785 9.3884L4.45677 12.8965L4.66881 13.1088L8.17989 9.60062L7.96785 9.3884ZM6.44879 8.08156L7.96781 9.60058L8.17994 9.38844L6.66092 7.86942L6.44879 8.08156ZM4.41919 10.3262L6.66099 8.08149L6.44872 7.86949L4.20691 10.1142L4.41919 10.3262ZM4.14558 10.4378C4.24282 10.4378 4.3411 10.3995 4.41564 10.3297L4.21046 10.1108C4.19098 10.1291 4.16586 10.1378 4.14558 10.1378V10.4378ZM3.87204 10.3263C3.95033 10.4046 4.04879 10.4378 4.14558 10.4378V10.1378C4.11896 10.1378 4.09989 10.1299 4.08417 10.1142L3.87204 10.3263ZM3.87204 9.78215C3.72238 9.93181 3.72237 10.1766 3.87204 10.3263L4.08417 10.1142C4.05166 10.0817 4.05166 10.0268 4.08417 9.99429L3.87204 9.78215ZM6.11377 7.53748L3.87197 9.78222L4.08424 9.99422L6.32604 7.74948L6.11377 7.53748ZM4.63585 6.26862L6.11373 7.74944L6.32607 7.53752L4.84819 6.0567L4.63585 6.26862ZM4.63595 5.72458C4.48629 5.87424 4.48629 6.11906 4.63595 6.26872L4.84808 6.05659C4.81558 6.02409 4.81558 5.96922 4.84808 5.93671L4.63595 5.72458ZM5.18009 5.72458C5.03043 5.57492 4.78561 5.57492 4.63595 5.72458L4.84808 5.93671C4.88059 5.90421 4.93546 5.90421 4.96796 5.93671L5.18009 5.72458ZM8.50906 9.05648L5.18014 5.72463L4.96792 5.93667L8.29683 9.26852L8.50906 9.05648ZM8.98463 8.37162L8.2971 9.05621L8.50878 9.26879L9.19631 8.58421L8.98463 8.37162ZM9.52854 8.37185C9.37888 8.22219 9.13406 8.22219 8.9844 8.37185L9.19653 8.58398C9.22904 8.55147 9.28391 8.55147 9.31641 8.58398L9.52854 8.37185ZM9.52854 8.91599C9.6782 8.76633 9.6782 8.52151 9.52854 8.37185L9.31641 8.58398C9.34892 8.61648 9.34892 8.67135 9.31641 8.70386L9.52854 8.91599ZM8.84418 9.60329L9.52877 8.91576L9.31619 8.70408L8.6316 9.39161L8.84418 9.60329ZM10.7273 11.2747L8.84396 9.39138L8.63182 9.60351L10.5152 11.4869L10.7273 11.2747ZM12.2999 9.43416L10.5136 11.2764L10.7289 11.4852L12.5153 9.643L12.2999 9.43416Z" fill="white" mask="url(#path-1-outside-1_220_1151)"/>
</svg>
