<svg width="15" height="16" viewBox="0 0 15 16" fill="none" xmlns="http://www.w3.org/2000/svg">
<g id="&#233;&#161;&#185;&#231;&#155;&#174;&#230;&#161;&#163;&#230;&#161;&#136;">
<g id="Group 319">
<path id="Vector" d="M12.4522 3.00773H7.99571C7.934 3.00773 7.934 3.00773 7.87229 2.94603L6.75475 1.75992C6.60391 1.52681 6.29539 1.37598 5.98687 1.37598H2.56567C1.95547 1.37598 1.48926 1.83534 1.48926 2.45239V13.2987C1.48926 13.8472 1.96919 14.2997 2.56567 14.2997H12.3699C12.9458 14.2997 13.4395 13.8747 13.5217 13.2987V4.08414C13.5217 3.44652 12.9595 3.00773 12.4522 3.00773ZM2.38055 2.44553C2.38055 2.31526 2.4354 2.25356 2.57252 2.25356H5.9183C6.01429 2.25356 6.03486 2.26041 6.03486 2.2947C6.03486 2.30155 6.04171 2.31526 6.04171 2.32212L7.22782 3.50823C7.37866 3.74133 7.69404 3.89217 8.00256 3.89217H12.459C12.5893 3.89217 12.651 3.94702 12.651 4.08414V13.2987C12.651 13.429 12.5962 13.4907 12.459 13.4907H2.56567C2.4354 13.4907 2.3737 13.4359 2.3737 13.2987V2.44553H2.38055Z" fill="white"/>
<path id="Vector_2" d="M6.26845 7.31339H10.9237C11.1431 7.31339 11.294 7.14884 11.294 6.90888C11.294 6.66892 11.1431 6.50437 10.9237 6.50437H6.26845C6.04905 6.50437 5.89822 6.66892 5.89822 6.90888C5.89822 7.14884 6.04905 7.31339 6.26845 7.31339ZM6.26845 10.6523H10.9237C11.15 10.6523 11.294 10.4124 11.294 10.2478C11.294 10.0078 11.1431 9.8433 10.9237 9.8433H6.26845C6.04905 9.8433 5.89822 10.0078 5.89822 10.2478C5.89822 10.4946 6.04905 10.6523 6.26845 10.6523ZM4.20476 10.7277C4.52014 10.7277 4.7601 10.4878 4.7601 10.1724C4.7601 9.85701 4.52014 9.61704 4.20476 9.61704C3.88938 9.61704 3.64941 9.85701 3.64941 10.1724C3.64941 10.4878 3.88938 10.7277 4.20476 10.7277ZM4.20476 7.45737C4.52014 7.45737 4.7601 7.21741 4.7601 6.90202C4.7601 6.58664 4.52014 6.34668 4.20476 6.34668C3.88938 6.34668 3.64941 6.58664 3.64941 6.90202C3.64941 7.22426 3.88938 7.45737 4.20476 7.45737Z" fill="white"/>
</g>
</g>
</svg>
