<svg width="17" height="17" viewBox="0 0 17 17" fill="none" xmlns="http://www.w3.org/2000/svg">
<path d="M10.5009 13.1956L13.5862 10.2917L14.4029 11.0177L11.3176 13.9215L10.3194 14.103L10.5009 13.1956ZM14.0399 9.83803L14.4936 9.38431L15.3103 10.1103L14.8566 10.564L14.0399 9.83803ZM14.3121 8.83984L13.4047 9.74728L9.95644 12.8326L9.92986 12.8592C9.88877 12.9002 9.86569 12.956 9.86569 13.0141V13.0141L9.4823 14.6243C9.44903 14.7641 9.56959 14.8923 9.71113 14.8677L11.4991 14.5567V14.5567C11.5572 14.5567 11.6129 14.5336 11.654 14.4926L11.6806 14.466L15.0381 11.2899L15.9455 10.4732L16.0363 10.3825C16.1365 10.2823 16.1365 10.1197 16.0363 10.0195V10.0195L14.7659 8.83984L14.7611 8.83535C14.6347 8.7156 14.4361 8.71759 14.3121 8.83984V8.83984ZM8.34371 13.4471C8.15617 13.6347 7.90181 13.74 7.6366 13.74H3.24138C2.42468 13.74 1.69873 13.1048 1.69873 12.2881V3.03223C1.69873 2.21553 2.33394 1.58032 3.15063 1.58032H12.4065C13.2232 1.58032 13.8584 2.30627 13.8584 3.03223V7.51819C13.8584 7.78341 13.7531 8.03776 13.5655 8.2253L8.34371 13.4471ZM12.4973 2.39702H3.24138C2.8784 2.39702 2.60617 2.66925 2.60617 3.03223V12.2881C2.60617 12.6511 2.8784 12.8326 3.15063 12.8326H7.59709L12.951 7.47868V3.03223C13.0417 2.66925 12.7695 2.39702 12.4973 2.39702ZM6.96188 9.20282V8.38612C6.96188 7.84166 7.23412 7.2972 7.68784 7.02496C8.05081 6.75273 8.32304 6.29901 8.41379 5.84529C8.41379 5.30083 8.05081 4.93785 7.50635 4.93785C6.7804 4.84711 6.23593 5.39157 6.14519 6.11752V6.38975H5.23775V6.20827C5.147 5.11934 5.9637 4.03041 7.05263 3.93967H7.50635C8.50453 3.84892 9.32123 4.57487 9.41197 5.57306V5.84529C9.32123 6.4805 8.95825 7.11571 8.41379 7.47868C8.14156 7.66017 7.96007 8.02315 7.96007 8.29538V9.11208L6.96188 9.20282ZM6.96188 9.65654H7.86932V10.6547H6.96188V9.65654Z" fill="white"/>
</svg>
