<svg width="17" height="17" viewBox="0 0 17 17" fill="none" xmlns="http://www.w3.org/2000/svg">
<path d="M13.449 2.01611H3.9569C3.34532 2.01611 2.85083 2.49628 2.85083 3.0927V14.3555C2.85083 14.9511 3.34532 15.4329 3.9569 15.4329H13.4507C14.0623 15.4329 14.5568 14.9511 14.5568 14.3555V3.0927C14.5551 2.49628 14.0589 2.01611 13.4482 2.01611H13.449ZM9.08035 2.87536V6.67456L8.85795 6.51703L8.00798 5.91388C7.87629 5.82948 7.72322 5.78448 7.56681 5.78418C7.4104 5.78388 7.25716 5.8283 7.12515 5.91219L5.99212 6.70657V2.87536H9.08035ZM5.17837 2.87536V6.99214C5.17837 7.28446 5.43867 7.52033 5.76131 7.52033C6.13609 7.52253 6.4987 7.38738 6.78061 7.14041L7.53708 6.61812L8.27249 7.13535C8.53363 7.37122 8.70885 7.51022 9.07698 7.52033H9.27494C9.59758 7.52033 9.85788 7.28446 9.85788 6.99214V2.87536H12.9326C13.156 2.87536 13.3703 2.96411 13.5283 3.12209C13.6863 3.28007 13.775 3.49434 13.775 3.71775V12.1426H3.65448V3.71859C3.65448 3.49518 3.74323 3.28091 3.90121 3.12293C4.05919 2.96495 4.27345 2.8762 4.49687 2.8762H5.17753L5.17837 2.87536ZM3.65532 13.6631V12.9411H13.7742V13.6631C13.7742 13.8865 13.6854 14.1008 13.5274 14.2587C13.3695 14.4167 13.1552 14.5055 12.9318 14.5055H4.49771C4.2743 14.5055 4.06003 14.4167 3.90205 14.2587C3.74407 14.1008 3.65532 13.8865 3.65532 13.6631Z" fill="white"/>
</svg>
