<svg width="17" height="17" viewBox="0 0 17 17" fill="none" xmlns="http://www.w3.org/2000/svg">
<path d="M5.75261 5.33459C5.75261 3.88244 6.95084 2.71884 8.39925 2.71884C9.84742 2.71884 11.0457 3.88244 11.0457 5.33459C11.0457 6.78651 9.86661 7.86726 8.41844 7.86726C6.9698 7.86726 5.75261 6.78651 5.75261 5.33459ZM3.26909 14.004V13.9822C3.26909 11.3286 5.31685 9.13499 7.90802 8.88552L8.45963 8.80384C9.05804 8.75704 9.90031 8.68261 10.3447 8.28453L10.5474 8.13616C11.3962 7.43407 11.8935 6.435 11.8935 5.33459C11.8935 3.38349 10.2968 1.78296 8.3054 1.78296C6.46031 1.78296 4.86493 3.38349 4.86493 5.33459C4.86493 6.435 5.36272 7.43383 6.21131 8.13592L6.46031 8.28453L6.21177 8.3861C3.91501 9.2836 2.37416 11.4842 2.37416 13.9822C2.3655 14.9129 3.1048 15.8161 4.03296 15.8247H8.45963C8.60777 15.8247 8.92628 15.5907 8.92628 15.3567C8.92628 15.1231 8.60777 14.8895 8.45963 14.8895H4.05683C3.62411 14.8954 3.27494 14.4379 3.26909 14.004ZM15.5755 12.7812C14.8285 12.882 14.2755 13.4819 14.2755 14.2783C14.2755 14.4269 14.3223 14.6298 14.3766 14.7316L13.7304 15.0826L13.4819 14.8331C13.1854 14.6295 12.9368 14.5371 12.6333 14.5371C12.3829 14.5371 12.088 14.6377 11.7845 14.8331C11.6831 14.9338 11.582 14.9818 11.5348 15.0826L10.9361 14.7316C10.9827 14.6298 11.0368 14.4346 11.0368 14.2783C11.0383 13.9136 10.9073 13.5608 10.6683 13.2854C10.4292 13.01 10.0982 12.8309 9.73696 12.7812C9.73696 12.6791 9.68945 12.484 9.68945 12.2806C9.68945 12.1322 9.73696 11.9293 9.73696 11.7812C10.483 11.6791 11.037 11.0781 11.037 10.2827C11.037 10.1336 10.9904 9.93163 10.9364 9.83053L11.5823 9.47855C11.6291 9.52559 11.7293 9.62716 11.8313 9.68215C12.1262 9.88459 12.3766 9.9782 12.6258 9.9782C12.8741 9.9782 13.1236 9.8771 13.4189 9.68215C13.521 9.58105 13.6214 9.53355 13.6691 9.47855L14.315 9.83053C14.2682 9.93163 14.2128 10.127 14.2128 10.2827C14.2113 10.6477 14.3424 11.0008 14.5817 11.2765C14.8211 11.5521 15.1523 11.7314 15.514 11.7812C15.514 11.8823 15.5608 12.0777 15.5608 12.2806C15.631 12.4287 15.5755 12.6316 15.5755 12.7812ZM15.8252 11.0786H15.778C15.3275 11.0786 14.9848 10.7273 14.9848 10.2827C14.9848 10.1811 15.0314 10.0323 15.0314 9.98616C15.1316 9.73645 15.0314 9.439 14.8285 9.2836L13.9336 8.78418H13.6839C13.5371 8.78418 13.3342 8.83076 13.2331 8.98662C13.1318 9.08842 12.8357 9.33813 12.634 9.33813C12.4311 9.33813 12.1351 9.08842 11.9869 8.98662C11.8865 8.88552 11.7379 8.78418 11.5355 8.78418C11.4353 8.78418 11.3883 8.78418 11.333 8.83076L10.3841 9.33017C10.1811 9.47855 10.0875 9.78255 10.1811 10.0323C10.1811 10.0323 10.2277 10.1811 10.2277 10.3292C10.2295 10.4341 10.2102 10.5382 10.171 10.6354C10.1318 10.7326 10.0734 10.821 9.99947 10.8952C9.92548 10.9695 9.83735 11.0282 9.74028 11.0677C9.64321 11.1073 9.53918 11.127 9.43436 11.1256H9.38685C9.18442 11.1256 8.9897 11.3293 8.93541 11.5783C8.93541 11.6251 8.83478 11.9761 8.83478 12.3281C8.83478 12.6253 8.88111 13.0306 8.93541 13.0758C8.98268 13.3267 9.18395 13.5298 9.38685 13.5298H9.43459C9.8858 13.5298 10.2277 13.8811 10.2277 14.3262C10.2277 14.4269 10.1811 14.5752 10.1811 14.6213C10.0807 14.8722 10.1811 15.1671 10.3841 15.3239L11.2783 15.8247C11.3805 15.7779 11.4274 15.7779 11.5278 15.7779C11.6759 15.7779 11.8783 15.7311 11.9804 15.5738C12.0808 15.4727 12.3768 15.1776 12.6263 15.1776C12.8287 15.1776 13.1699 15.4266 13.2722 15.5738C13.3728 15.6759 13.5214 15.7777 13.7239 15.7777C13.824 15.7777 13.8713 15.7777 13.9722 15.7311L14.8669 15.2312C15.0693 15.0831 15.1636 14.7791 15.0693 14.5277C15.0693 14.5277 15.0235 14.3808 15.0235 14.2322C15.0235 13.7793 15.374 13.4358 15.8177 13.4358H15.8643C16.0663 13.4358 16.2612 13.2321 16.3151 12.9831C16.3151 12.9831 16.4159 12.5855 16.4159 12.2333C16.323 11.9836 16.2769 11.5858 16.2769 11.5317C16.2292 11.2813 16.0267 11.0786 15.8252 11.0786ZM12.634 12.9286C12.2834 12.9286 11.9869 12.6316 11.9869 12.2806C11.9869 11.9293 12.2834 11.6326 12.634 11.6326C12.9836 11.6326 13.2799 11.9293 13.2799 12.2808C13.287 12.6319 12.9834 12.9286 12.634 12.9286ZM12.8825 10.9307C11.9324 10.7271 11.0843 11.5783 11.2865 12.5773C11.388 13.1233 11.8318 13.5757 12.3834 13.6768C13.3342 13.8811 14.1826 13.0302 13.9801 12.0777C13.8868 11.4846 13.4349 11.0316 12.8825 10.9307Z" fill="white"/>
</svg>
