<svg width="15" height="16" viewBox="0 0 15 16" fill="none" xmlns="http://www.w3.org/2000/svg">
<g id="&#229;&#189;&#149;&#229;&#133;&#165;&#231;&#174;&#161;&#231;&#144;&#134;">
<g id="Group 46">
<g id="Group 47">
<path id="Rectangle 264" d="M13.0183 4.72684V2.4089C13.0183 1.83088 12.5497 1.3623 11.9717 1.3623H2.85031C2.27229 1.3623 1.80371 1.83088 1.80371 2.4089V11.8283C1.80371 12.4063 2.27229 12.8749 2.85031 12.8749H10.8849" stroke="white" stroke-width="0.837279" stroke-linecap="round"/>
<path id="Vector 55" d="M4.45703 4.40039H9.38965" stroke="white" stroke-width="0.8" stroke-linecap="round" stroke-linejoin="round"/>
<path id="Vector 56" d="M4.45703 7.11816H7.56348" stroke="white" stroke-width="0.8" stroke-linecap="round" stroke-linejoin="round"/>
<path id="Vector" d="M14.3851 6.8383C14.4016 6.87533 14.4149 6.91854 14.4252 6.96792C14.4355 7.0173 14.4407 7.06874 14.4407 7.12223C14.4407 7.17573 14.4304 7.22922 14.4098 7.28271C14.3892 7.33621 14.3563 7.38765 14.311 7.43703C14.2617 7.4864 14.2174 7.52961 14.1783 7.56665C14.1392 7.60368 14.1053 7.6366 14.0765 7.66541C14.0436 7.69832 14.0127 7.72713 13.9839 7.75182L12.8297 6.59757C12.879 6.55231 12.9377 6.49779 13.0056 6.434C13.0735 6.37022 13.1301 6.31982 13.1753 6.28278C13.2329 6.23752 13.2926 6.20563 13.3543 6.18711C13.416 6.16859 13.4767 6.16036 13.5364 6.16242C13.5961 6.16448 13.6537 6.17373 13.7092 6.19019C13.7648 6.20665 13.8131 6.22517 13.8543 6.24575C13.9407 6.29101 14.0364 6.37022 14.1413 6.48338C14.2462 6.59655 14.3275 6.71485 14.3851 6.8383ZM9.57679 9.85045C9.60148 9.82576 9.65909 9.76712 9.74962 9.67453C9.84014 9.58195 9.95331 9.46776 10.0891 9.33196L10.5397 8.88137L11.0397 8.38141L12.3667 7.05433L13.521 8.21475L12.1939 9.54182L11.7001 10.0418C11.5355 10.2023 11.3874 10.3494 11.2557 10.4831C11.124 10.6169 11.015 10.7269 10.9286 10.8133C10.8421 10.8998 10.7907 10.9491 10.7742 10.9615C10.7331 10.9985 10.6858 11.0376 10.6323 11.0788C10.5788 11.1199 10.5232 11.1528 10.4656 11.1775C10.408 11.2063 10.3237 11.2413 10.2125 11.2825C10.1014 11.3236 9.9852 11.3637 9.86381 11.4028C9.74241 11.4419 9.6272 11.4759 9.51815 11.5047C9.4091 11.5335 9.32783 11.552 9.27434 11.5602C9.16323 11.5726 9.08917 11.5561 9.05213 11.5108C9.0151 11.4656 9.00481 11.3894 9.02127 11.2825C9.0295 11.2248 9.04904 11.1415 9.07991 11.0325C9.11077 10.9234 9.14369 10.8103 9.17867 10.693C9.21364 10.5757 9.24759 10.4677 9.28051 10.3689C9.31343 10.2702 9.34018 10.2023 9.36075 10.1652C9.38544 10.1076 9.41322 10.0552 9.44408 10.0078C9.47494 9.96052 9.51918 9.90806 9.57679 9.85045Z" fill="white"/>
</g>
</g>
</g>
</svg>
