<svg width="17" height="17" viewBox="0 0 17 17" fill="none" xmlns="http://www.w3.org/2000/svg">
<path fill-rule="evenodd" clip-rule="evenodd" d="M3.36441 3.2396H14.3644C14.4196 3.2396 14.4644 3.28437 14.4644 3.3396V12.3396C14.4644 12.3948 14.4196 12.4396 14.3644 12.4396H3.36441C3.30918 12.4396 3.26441 12.3948 3.26441 12.3396V3.3396C3.26441 3.28437 3.30918 3.2396 3.36441 3.2396ZM2.36441 3.3396C2.36441 2.78731 2.81213 2.3396 3.36441 2.3396H14.3644C14.9167 2.3396 15.3644 2.78731 15.3644 3.3396V12.3396C15.3644 12.8919 14.9167 13.3396 14.3644 13.3396H3.36441C2.81213 13.3396 2.36441 12.8919 2.36441 12.3396V3.3396ZM5.47113 14.8896C5.2226 14.8896 5.02113 15.0911 5.02113 15.3396C5.02113 15.5881 5.2226 15.7896 5.47113 15.7896L12.0072 15.7896C12.2557 15.7896 12.4572 15.5881 12.4572 15.3396C12.4572 15.0911 12.2557 14.8896 12.0072 14.8896H5.47113ZM5.54748 5.81006C5.54748 5.58914 5.72657 5.41006 5.94748 5.41006H11.7813C12.0023 5.41006 12.1813 5.58914 12.1813 5.81006C12.1813 6.03097 12.0023 6.21006 11.7813 6.21006H5.94748C5.72657 6.21006 5.54748 6.03097 5.54748 5.81006ZM5.94748 7.68081C5.72657 7.68081 5.54748 7.8599 5.54748 8.08081C5.54748 8.30172 5.72657 8.48081 5.94748 8.48081H11.7813C12.0023 8.48081 12.1813 8.30172 12.1813 8.08081C12.1813 7.8599 12.0023 7.68081 11.7813 7.68081H5.94748Z" fill="white"/>
</svg>
