<svg width="17" height="16" viewBox="0 0 17 16" fill="none" xmlns="http://www.w3.org/2000/svg">
<path fill-rule="evenodd" clip-rule="evenodd" d="M3.1938 1.02563C2.39299 1.02563 1.7438 1.67482 1.7438 2.47563V11.4756C1.7438 12.2764 2.39299 12.9256 3.1938 12.9256H14.7402C14.9888 12.9256 15.1902 12.7242 15.1902 12.4756C15.1902 12.2271 14.9888 12.0256 14.7402 12.0256H3.1938C2.89005 12.0256 2.6438 11.7794 2.6438 11.4756V2.47563C2.6438 2.17188 2.89005 1.92563 3.1938 1.92563H14.1938C14.4976 1.92563 14.7438 2.17188 14.7438 2.47563V7.61423C14.7438 7.86276 14.9453 8.06423 15.1938 8.06423C15.4423 8.06423 15.6438 7.86276 15.6438 7.61423V2.47563C15.6438 1.67482 14.9946 1.02563 14.1938 1.02563H3.1938ZM5.9938 9.39341V4.99341H8.39381V9.39341H5.9938ZM5.1938 4.69341C5.1938 4.41727 5.41766 4.19341 5.6938 4.19341H8.6938C8.96995 4.19341 9.1938 4.41727 9.1938 4.69341V9.69341C9.1938 9.96955 8.96995 10.1934 8.6938 10.1934H5.6938C5.41766 10.1934 5.1938 9.96955 5.1938 9.69341V4.69341ZM9.79381 5.19341C9.79381 4.97249 9.97289 4.79341 10.1938 4.79341H12.1938C12.4147 4.79341 12.5938 4.97249 12.5938 5.19341C12.5938 5.41432 12.4147 5.59341 12.1938 5.59341H10.1938C9.97289 5.59341 9.79381 5.41432 9.79381 5.19341ZM10.1938 6.79341C9.97289 6.79341 9.79381 6.97249 9.79381 7.19341C9.79381 7.41432 9.97289 7.59341 10.1938 7.59341H12.1938C12.4147 7.59341 12.5938 7.41432 12.5938 7.19341C12.5938 6.97249 12.4147 6.79341 12.1938 6.79341H10.1938ZM9.79381 9.19341C9.79381 8.97249 9.97289 8.79341 10.1938 8.79341H14.9281C15.149 8.79341 15.3281 8.97249 15.3281 9.19341C15.3281 9.41432 15.149 9.59341 14.9281 9.59341H10.1938C9.97289 9.59341 9.79381 9.41432 9.79381 9.19341ZM4.1938 14.0256C3.94528 14.0256 3.7438 14.2271 3.7438 14.4756C3.7438 14.7242 3.94528 14.9256 4.1938 14.9256H13.1938C13.4423 14.9256 13.6438 14.7242 13.6438 14.4756C13.6438 14.2271 13.4423 14.0256 13.1938 14.0256H4.1938Z" fill="white"/>
</svg>
