<svg width="17" height="17" viewBox="0 0 17 17" fill="none" xmlns="http://www.w3.org/2000/svg">
<g id="&#232;&#191;&#144;&#232;&#161;&#140;&#229;&#142;&#134;&#229;&#143;&#178;&#229;&#143;&#130;&#230;&#149;&#176;">
<path id="Vector" d="M8.36847 4.39434C6.48265 4.39434 4.95391 5.92308 4.95391 7.8089C4.95391 9.69472 6.48265 11.2235 8.36847 11.2235C10.2543 11.2235 11.7831 9.69472 11.7831 7.8089C11.7831 5.92308 10.2543 4.39434 8.36847 4.39434ZM10.9799 8.91177C10.3732 10.3482 8.71692 11.0208 7.2805 10.4141C5.84409 9.80738 5.17148 8.1511 5.77819 6.71469C6.3849 5.27827 8.04117 4.60566 9.47759 5.21237C10.7174 5.73604 11.4152 7.06205 11.1448 8.38048C11.1074 8.56256 11.0522 8.74051 10.9799 8.91177Z" fill="white" stroke="white" stroke-width="0.1"/>
<path id="Vector_2" d="M8.07305 7.90687V7.92758L8.08769 7.94223L9.60086 9.45539C9.71415 9.56869 9.89784 9.56869 10.0111 9.45539C10.1244 9.3421 10.1244 9.15842 10.0111 9.04512L8.65325 7.68724V5.88659C8.65325 5.72636 8.52336 5.59648 8.36315 5.59648C8.20293 5.59648 8.07305 5.72637 8.07305 5.88659V7.90687Z" fill="white" stroke="white" stroke-width="0.1"/>
<g id="Group 289">
<g id="&#230;&#161;&#163;&#230;&#161;&#136;&#231;&#174;&#161;&#231;&#144;&#134;">
<g id="Group 287">
<path id="Rectangle 264" d="M14.8682 8.44719V3.30859C14.8682 2.75631 14.4204 2.30859 13.8682 2.30859H2.86816C2.31588 2.30859 1.86816 2.75631 1.86816 3.30859V12.3086C1.86816 12.8609 2.31588 13.3086 2.86816 13.3086H14.4146" stroke="white" stroke-width="0.9" stroke-linecap="round"/>
<path id="Line 4" d="M3.86816 15.3086H12.8682" stroke="white" stroke-width="0.9" stroke-linecap="round"/>
</g>
</g>
</g>
</g>
</svg>
