<svg width="17" height="17" viewBox="0 0 17 17" fill="none" xmlns="http://www.w3.org/2000/svg">
<path fill-rule="evenodd" clip-rule="evenodd" d="M7.59314 2.13202C7.59314 2.42816 7.71078 2.71219 7.92019 2.92159C7.98979 2.9912 8.06764 3.05066 8.15143 3.09904V4.39697H4.22687C3.67458 4.39697 3.22687 4.84469 3.22687 5.39697V13.25C3.22687 13.8023 3.67458 14.25 4.22687 14.25H13.1927C13.745 14.25 14.1927 13.8023 14.1927 13.25V5.39697C14.1927 4.84469 13.745 4.39697 13.1927 4.39697H9.26806V3.09907C9.35188 3.05069 9.42974 2.99121 9.49935 2.92159C9.70876 2.71219 9.82641 2.42816 9.82641 2.13202C9.82641 1.98538 9.79753 1.84017 9.74141 1.7047C9.68529 1.56922 9.60304 1.44612 9.49935 1.34244C9.39566 1.23875 9.27257 1.1565 9.13709 1.10038C9.00161 1.04426 8.85641 1.01538 8.70977 1.01538C8.56314 1.01538 8.41793 1.04426 8.28246 1.10038C8.14698 1.1565 8.02388 1.23875 7.92019 1.34244C7.8165 1.44612 7.73425 1.56922 7.67814 1.7047C7.62202 1.84017 7.59314 1.98538 7.59314 2.13202ZM15.888 7.28418C15.5769 7.28418 15.3297 7.64313 15.3297 8.0818V11.3121C15.3297 11.7507 15.5769 12.1097 15.888 12.1097C16.1991 12.1097 16.4463 11.7507 16.4463 11.3121V8.0818C16.4461 7.64313 16.1991 7.28418 15.888 7.28418ZM1.53152 7.28418C1.22046 7.28418 0.973206 7.64313 0.973206 8.0818V11.3121C0.973206 11.7507 1.22046 12.1097 1.53152 12.1097C1.84258 12.1097 2.08984 11.7507 2.08984 11.3121V8.0818C2.08984 7.64313 1.84258 7.28418 1.53152 7.28418ZM6.71583 10.642C6.2054 10.642 5.79855 10.2354 5.79855 9.72476C5.79855 9.21416 6.20523 8.80749 6.71583 8.80749C7.22642 8.80749 7.6331 9.21416 7.6331 9.72476V9.73271C7.6331 10.2352 7.22642 10.642 6.72378 10.642H6.71583ZM10.7038 10.642C10.1933 10.65 9.77853 10.2433 9.77853 9.73271C9.77058 9.22229 10.1773 8.80749 10.6878 8.80749C11.1983 8.79953 11.6131 9.20621 11.6131 9.71681V9.73271C11.6129 10.2352 11.2062 10.642 10.7038 10.642ZM4.22687 5.29697H13.1927C13.2479 5.29697 13.2927 5.34174 13.2927 5.39697V13.25C13.2927 13.3052 13.2479 13.35 13.1927 13.35H4.22687C4.17164 13.35 4.12687 13.3052 4.12687 13.25V5.39697C4.12687 5.34174 4.17164 5.29697 4.22687 5.29697Z" fill="white"/>
</svg>
