<svg width="17" height="17" viewBox="0 0 17 17" fill="none" xmlns="http://www.w3.org/2000/svg">
<path fill-rule="evenodd" clip-rule="evenodd" d="M8.63742 1.13456L13.851 4.14451C14.0168 4.24066 14.1544 4.37863 14.2502 4.54465C14.346 4.71067 14.3965 4.89891 14.3968 5.09058V11.1109C14.3965 11.3025 14.3459 11.4907 14.2501 11.6566C14.1543 11.8225 14.0167 11.9604 13.851 12.0565L8.63697 15.0665C8.47088 15.1621 8.28258 15.2125 8.09092 15.2125C7.89926 15.2125 7.71096 15.1621 7.54486 15.0665L2.33132 12.0565C2.16558 11.9604 2.02795 11.8225 1.93217 11.6566C1.83639 11.4907 1.78582 11.3025 1.78549 11.1109V5.09058C1.78569 4.89896 1.83616 4.71074 1.93187 4.54473C2.02757 4.37871 2.16515 4.24071 2.33087 4.14451L7.54531 1.13456C7.7114 1.03889 7.8997 0.988525 8.09137 0.988525C8.28304 0.988525 8.47134 1.03889 8.63742 1.13456ZM13.4698 11.2061C13.4865 11.1771 13.4953 11.1443 13.4953 11.1109L13.4958 5.09058C13.4958 5.0571 13.487 5.02421 13.4703 4.99519C13.4536 4.96616 13.4296 4.94202 13.4007 4.92516L8.1867 1.91522C8.15775 1.89861 8.12496 1.88987 8.09159 1.88987C8.05822 1.88987 8.02544 1.89861 7.99649 1.91522L2.7816 4.92516C2.75264 4.94199 2.72861 4.96612 2.71192 4.99515C2.69523 5.02419 2.68646 5.05709 2.68649 5.09058V11.1109C2.68659 11.1443 2.69541 11.1771 2.71209 11.2061C2.72878 11.235 2.75274 11.2591 2.7816 11.2759L7.99559 14.2858C8.02453 14.3024 8.05732 14.3112 8.09069 14.3112C8.12406 14.3112 8.15685 14.3024 8.1858 14.2858L13.4002 11.2759C13.4291 11.2591 13.4531 11.235 13.4698 11.2061ZM6.49815 5.38867H5.60715L7.44315 8.61967H6.11115V9.06967H7.69515V9.95167H6.11115V10.4017H7.69515V11.8147H8.48715V10.4017H10.0801V9.95167H8.48715V9.06967H10.0801V8.61967H8.73915L10.5751 5.38867H9.68415L8.09115 8.34067L6.49815 5.38867Z" fill="white"/>
</svg>
