<svg width="15" height="16" viewBox="0 0 15 16" fill="none" xmlns="http://www.w3.org/2000/svg">
<g id="&#229;&#155;&#160;&#229;&#173;&#144;&#231;&#174;&#161;&#231;&#144;&#134;">
<path id="Rectangle 264" d="M13.0183 5.72782V3.40988C13.0183 2.83186 12.5497 2.36328 11.9717 2.36328H2.85031C2.27229 2.36328 1.80371 2.83186 1.80371 3.40988V12.8293C1.80371 13.4073 2.27229 13.8759 2.85031 13.8759H10.8849" stroke="white" stroke-width="0.837279" stroke-linecap="round"/>
<path id="Vector" d="M11.4131 10.3386C11.0007 10.463 10.676 10.759 10.5016 11.1355L7.29026 10.3944C7.37561 10.0806 7.36852 9.7588 7.26899 9.42885C7.19932 9.19788 7.08513 8.99834 6.95943 8.82028L9.13465 6.54425C9.48819 6.76158 9.90587 6.83357 10.3183 6.70916C11.0937 6.47527 11.5315 5.65926 11.2976 4.88388C11.0637 4.10849 10.2477 3.67069 9.47232 3.90458C8.69693 4.13848 8.25913 4.95449 8.49303 5.72987C8.52786 5.84535 8.57919 5.95586 8.64702 6.06139L6.44378 8.36387C6.00435 8.10045 5.45127 7.99731 4.90686 8.16153C3.90051 8.46509 3.33597 9.51732 3.63954 10.5237C3.9431 11.53 4.99532 12.0945 6.00167 11.791C6.43061 11.6616 6.78176 11.3937 7.02057 11.0517L10.3838 11.819C10.3856 11.9445 10.399 12.0484 10.4338 12.1639C10.6677 12.9393 11.4837 13.3771 12.2591 13.1432C13.0345 12.9093 13.4723 12.0933 13.2384 11.3179C13.0045 10.5425 12.1885 10.1047 11.4131 10.3386ZM9.67137 4.56449C10.0838 4.44007 10.5133 4.6705 10.6377 5.08293C10.7621 5.49537 10.5317 5.92485 10.1193 6.04926C9.70682 6.17367 9.27734 5.94325 9.15293 5.53081C9.02852 5.11838 9.25894 4.6889 9.67137 4.56449ZM5.79764 11.1146C5.17073 11.3037 4.50504 10.9465 4.31594 10.3196C4.12683 9.69273 4.48398 9.02703 5.11089 8.83793C5.73779 8.64882 6.40349 9.00598 6.59259 9.63288C6.7817 10.2598 6.42454 10.9255 5.79764 11.1146ZM12.0601 12.4833C11.6476 12.6077 11.2181 12.3773 11.0937 11.9648C10.9693 11.5524 11.1997 11.1229 11.6122 10.9985C12.0246 10.8741 12.4541 11.1045 12.5785 11.517C12.7029 11.9294 12.4725 12.3589 12.0601 12.4833Z" fill="white"/>
</g>
</svg>
