<svg width="17" height="17" viewBox="0 0 17 17" fill="none" xmlns="http://www.w3.org/2000/svg">
<path fill-rule="evenodd" clip-rule="evenodd" d="M9.4896 1.66239L14.7031 4.67234C14.8689 4.76849 15.0066 4.90646 15.1024 5.07248C15.1982 5.2385 15.2487 5.42675 15.249 5.61841V11.6388C15.2486 11.8303 15.1981 12.0185 15.1023 12.1844C15.0065 12.3504 14.8689 12.4883 14.7031 12.5844L9.48914 15.5943C9.32305 15.69 9.13475 15.7403 8.94309 15.7403C8.75143 15.7403 8.56313 15.69 8.39704 15.5943L3.18349 12.5844C3.01775 12.4883 2.88012 12.3504 2.78435 12.1844C2.68857 12.0185 2.63799 11.8303 2.63766 11.6388V5.61841C2.63787 5.42679 2.68834 5.23857 2.78404 5.07256C2.87974 4.90655 3.01732 4.76854 3.18304 4.67234L8.39749 1.66239C8.56357 1.56672 8.75187 1.51636 8.94354 1.51636C9.13521 1.51636 9.32351 1.56672 9.4896 1.66239ZM14.322 11.7339C14.3387 11.705 14.3475 11.6722 14.3475 11.6388L14.348 5.61841C14.348 5.58493 14.3392 5.55204 14.3225 5.52302C14.3058 5.494 14.2818 5.46985 14.2529 5.453L9.03887 2.44305C9.00993 2.42644 8.97714 2.41771 8.94377 2.41771C8.9104 2.41771 8.87761 2.42644 8.84866 2.44305L3.63377 5.453C3.60481 5.46982 3.58079 5.49395 3.5641 5.52299C3.5474 5.55202 3.53863 5.58492 3.53867 5.61841V11.6388C3.53876 11.6722 3.54759 11.705 3.56427 11.7339C3.58095 11.7628 3.60491 11.7869 3.63377 11.8037L8.84776 14.8137C8.87671 14.8303 8.90949 14.839 8.94287 14.839C8.97624 14.839 9.00902 14.8303 9.03797 14.8137L14.2524 11.8037C14.2813 11.7869 14.3053 11.7629 14.322 11.7339ZM11.1005 5.00814C11.1474 5.04422 11.1868 5.08919 11.2163 5.14048C11.2761 5.244 11.2923 5.36703 11.2614 5.48249C11.2304 5.59796 11.1549 5.6964 11.0514 5.75617L7.9594 7.54105L11.0514 9.32637C11.0559 9.32876 11.0593 9.33228 11.0627 9.3358C11.0657 9.33893 11.0687 9.34207 11.0726 9.3444C11.0962 9.36144 11.1181 9.38076 11.1379 9.40209C11.1606 9.42287 11.181 9.44598 11.1988 9.47105C11.2011 9.47463 11.2041 9.47752 11.2071 9.48041C11.2105 9.48371 11.2139 9.48701 11.2163 9.49134C11.2233 9.50837 11.2292 9.52583 11.2339 9.54362C11.2469 9.57193 11.2569 9.60155 11.2637 9.63196C11.2716 9.68818 11.2716 9.74522 11.2637 9.80144C11.2571 9.83183 11.2472 9.86145 11.2344 9.88978C11.2295 9.90742 11.2235 9.92474 11.2163 9.94161C11.2129 9.94793 11.2086 9.95302 11.2042 9.95814C11.2011 9.96178 11.198 9.96544 11.1952 9.96956C11.1869 9.98141 11.178 9.99285 11.1686 10.0038C11.1374 10.0422 11.1001 10.0751 11.0581 10.1012C11.0571 10.1018 11.0562 10.1028 11.0552 10.1038C11.0541 10.105 11.0529 10.1063 11.0514 10.107L7.28602 12.2809C7.18255 12.3397 7.06001 12.3552 6.94515 12.324C6.83029 12.2928 6.73242 12.2175 6.67291 12.1144C6.6134 12.0113 6.59707 11.8889 6.62749 11.7738C6.65791 11.6588 6.73261 11.5604 6.83529 11.5002L9.92457 9.7167L6.83529 7.93273C6.82916 7.9294 6.82447 7.92448 6.81975 7.91953C6.81616 7.91576 6.81254 7.91196 6.80825 7.90884C6.77731 7.88799 6.74914 7.8633 6.72441 7.83537C6.71133 7.82044 6.69928 7.80463 6.68836 7.78804C6.68607 7.78488 6.68351 7.78206 6.68097 7.77926C6.677 7.77488 6.67308 7.77056 6.67033 7.76506C6.66458 7.75077 6.65961 7.73617 6.65545 7.72134C6.64068 7.69014 6.62963 7.65731 6.62255 7.62353C6.61491 7.56881 6.61491 7.51329 6.62255 7.45856C6.62963 7.42478 6.64068 7.39195 6.65545 7.36076C6.65961 7.34592 6.66458 7.33133 6.67033 7.31704C6.67227 7.3134 6.67512 7.31068 6.67804 7.30789C6.68055 7.30549 6.68312 7.30304 6.6852 7.29991C6.72065 7.2529 6.76184 7.2105 6.8078 7.17371C6.81208 7.17059 6.8157 7.1668 6.81933 7.16299C6.82409 7.15799 6.82889 7.15295 6.83529 7.14937L10.6007 4.97507C10.6519 4.94549 10.7086 4.92631 10.7673 4.91862C10.826 4.91092 10.8856 4.91487 10.9428 4.93023C10.9999 4.94559 11.0535 4.97207 11.1005 5.00814Z" fill="white"/>
</svg>
