<svg width="15" height="16" viewBox="0 0 15 16" fill="none" xmlns="http://www.w3.org/2000/svg">
<g id="&#230;&#181;&#139;&#231;&#130;&#185;&#231;&#174;&#161;&#231;&#144;&#134;">
<g id="&#230;&#181;&#139;&#231;&#130;&#185;&#231;&#174;&#161;&#231;&#144;&#134; 1" clip-path="url(#clip0_77_9155)">
<path id="Vector" d="M7.50598 0.96582C3.72681 0.96582 0.634766 4.05787 0.634766 7.83704C0.634766 11.6162 3.72681 14.7083 7.50598 14.7083C11.2852 14.7083 14.3772 11.6162 14.3772 7.83704C14.3772 4.05787 11.2852 0.96582 7.50598 0.96582ZM7.93543 13.8493V11.9598C7.93543 11.7021 7.76365 11.5303 7.50598 11.5303C7.24831 11.5303 7.07653 11.7021 7.07653 11.9598V13.8493C4.07037 13.5917 1.75134 11.2726 1.49367 8.26649H3.38325C3.64092 8.26649 3.8127 8.09471 3.8127 7.83704C3.8127 7.57937 3.64092 7.40759 3.46914 7.40759H1.49367C1.75134 4.40143 4.07037 2.08239 7.07653 1.82472V3.71431C7.07653 3.97198 7.24831 4.14376 7.50598 4.14376C7.76365 4.14376 7.93543 3.97198 7.93543 3.71431V1.82472C10.9416 2.08239 13.2606 4.40143 13.5183 7.40759H11.6287C11.371 7.40759 11.1993 7.57937 11.1993 7.83704C11.1993 8.09471 11.371 8.26649 11.6287 8.26649H13.5183C13.2606 11.2726 10.9416 13.5917 7.93543 13.8493Z" fill="white"/>
<path id="Vector_2" d="M7.50542 5.26074C6.04528 5.26074 4.92871 6.37731 4.92871 7.83745C4.92871 9.29758 6.04528 10.4142 7.50542 10.4142C8.96555 10.4142 10.0821 9.29758 10.0821 7.83745C10.0821 6.37731 8.96555 5.26074 7.50542 5.26074ZM7.50542 9.55525C6.56062 9.55525 5.78761 8.78224 5.78761 7.83745C5.78761 6.89266 6.56062 6.11964 7.50542 6.11964C8.45021 6.11964 9.22322 6.89266 9.22322 7.83745C9.22322 8.78224 8.45021 9.55525 7.50542 9.55525Z" fill="white"/>
</g>
</g>
<defs>
<clipPath id="clip0_77_9155">
<rect width="13.7424" height="13.7424" fill="white" transform="translate(0.634766 0.96582)"/>
</clipPath>
</defs>
</svg>
