<svg width="17" height="17" viewBox="0 0 17 17" fill="none" xmlns="http://www.w3.org/2000/svg">
<path fill-rule="evenodd" clip-rule="evenodd" d="M13.1781 12.7101C13.152 12.6498 13.1376 12.5833 13.1376 12.5134V2.99434C13.1376 2.44205 12.6898 1.99434 12.1376 1.99434H5.96643C5.49795 1.99492 5.04822 2.17118 4.71301 2.4856C4.3778 2.80001 4.18361 3.22773 4.17178 3.67767V11.5964H10.4855C10.5573 11.5964 10.6254 11.6123 10.6864 11.6408C10.7821 11.6562 10.8714 11.7005 10.9419 11.7686C11.0307 11.8545 11.0827 11.9714 11.0869 12.0949V13.2605C11.0803 13.3797 11.0978 13.4991 11.1384 13.6113C11.179 13.7236 11.2418 13.8266 11.3232 13.914C11.5367 14.1476 11.8332 14.2882 12.1489 14.3059H12.1744C12.442 14.2958 12.6958 14.1831 12.8828 13.9908C13.0736 13.7947 13.1797 13.5314 13.1781 13.2578V12.7101ZM3.18082 3.67767V11.5964H2.21233C2.17286 11.5869 2.13223 11.582 2.09133 11.582C2.02481 11.582 1.95896 11.5949 1.89772 11.6199C1.83647 11.6448 1.78109 11.6814 1.73485 11.7273C1.68862 11.7733 1.65249 11.8277 1.62861 11.8874C1.60473 11.947 1.59359 12.0107 1.59585 12.0745V13.2336C1.58398 13.4735 1.62184 13.7133 1.70724 13.9391C1.79264 14.1649 1.92388 14.3721 2.09334 14.5488C2.47573 14.9541 3.00271 15.2048 3.56796 15.2526V15.258H3.64763L3.64786 15.258H3.67486L3.67601 15.2596C3.69484 15.2601 3.71364 15.2595 3.73232 15.258H5.05896H11.9612H12.1808V15.2572C12.6932 15.2443 13.1818 15.0349 13.5449 14.6715C13.9197 14.2964 14.1302 13.7879 14.1302 13.2578V12.0264C14.1309 12.0066 14.1303 11.9869 14.1285 11.9672V2.04229C14.1285 1.49001 13.6808 1.04229 13.1285 1.04229H5.96643C5.23354 1.03773 4.52869 1.31262 4.00648 1.80667C3.48427 2.30071 3.18734 2.97358 3.18082 3.67767ZM2.58681 13.2623V12.5485H10.1349V13.2329C10.1235 13.4729 10.1598 13.7127 10.2419 13.9385C10.2889 14.0678 10.3503 14.191 10.4248 14.3059H5.05896H3.66525C3.3467 14.2821 3.04889 14.1429 2.83269 13.9157C2.748 13.8283 2.68257 13.7254 2.64032 13.6131C2.59807 13.5008 2.57987 13.3815 2.58681 13.2623ZM5.72789 4.91888H10.9821C11.046 4.92105 11.1096 4.91035 11.1693 4.88741C11.2289 4.86446 11.2834 4.82975 11.3293 4.78533C11.3753 4.74091 11.4118 4.6877 11.4368 4.62886C11.4617 4.57002 11.4746 4.50677 11.4746 4.44285C11.4746 4.37894 11.4617 4.31568 11.4368 4.25684C11.4118 4.198 11.3753 4.14479 11.3293 4.10037C11.2834 4.05596 11.2289 4.02124 11.1693 3.9983C11.1096 3.97536 11.046 3.96465 10.9821 3.96683H5.72789C5.66402 3.96465 5.60036 3.97536 5.5407 3.9983C5.48105 4.02124 5.42662 4.05596 5.38067 4.10037C5.33471 4.14479 5.29817 4.198 5.27321 4.25684C5.24825 4.31568 5.23538 4.37894 5.23538 4.44285C5.23538 4.50677 5.24825 4.57002 5.27321 4.62886C5.29817 4.6877 5.33471 4.74091 5.38067 4.78533C5.42662 4.82975 5.48105 4.86446 5.5407 4.88741C5.60036 4.91035 5.66402 4.92105 5.72789 4.91888ZM10.9821 7.02117H5.72789C5.66402 7.02335 5.60036 7.01264 5.5407 6.9897C5.48105 6.96676 5.42662 6.93204 5.38067 6.88763C5.33471 6.84321 5.29817 6.79 5.27321 6.73116C5.24825 6.67232 5.23538 6.60906 5.23538 6.54515C5.23538 6.48123 5.24825 6.41797 5.27321 6.35914C5.29817 6.3003 5.33471 6.24709 5.38067 6.20267C5.42662 6.15825 5.48105 6.12354 5.5407 6.10059C5.60036 6.07765 5.66402 6.06695 5.72789 6.06912H10.9821C11.046 6.06695 11.1096 6.07765 11.1693 6.10059C11.2289 6.12354 11.2834 6.15825 11.3293 6.20267C11.3753 6.24709 11.4118 6.3003 11.4368 6.35914C11.4617 6.41797 11.4746 6.48123 11.4746 6.54515C11.4746 6.60906 11.4617 6.67232 11.4368 6.73116C11.4118 6.79 11.3753 6.84321 11.3293 6.88763C11.2834 6.93204 11.2289 6.96676 11.1693 6.9897C11.1096 7.01264 11.046 7.02335 10.9821 7.02117ZM5.72789 9.12347H8.74795C8.8714 9.11926 8.98838 9.06727 9.07422 8.97846C9.16006 8.88964 9.20804 8.77096 9.20804 8.64744C9.20804 8.52393 9.16006 8.40524 9.07422 8.31643C8.98838 8.22762 8.8714 8.17562 8.74795 8.17142H5.72789C5.66402 8.16924 5.60036 8.17995 5.5407 8.20289C5.48105 8.22583 5.42662 8.26055 5.38067 8.30496C5.33471 8.34938 5.29817 8.40259 5.27321 8.46143C5.24825 8.52027 5.23538 8.58353 5.23538 8.64744C5.23538 8.71136 5.24825 8.77461 5.27321 8.83345C5.29817 8.89229 5.33471 8.9455 5.38067 8.98992C5.42662 9.03434 5.48105 9.06905 5.5407 9.092C5.60036 9.11494 5.66402 9.12564 5.72789 9.12347Z" fill="white"/>
</svg>
