<svg width="17" height="17" viewBox="0 0 17 17" fill="none" xmlns="http://www.w3.org/2000/svg">
<path fill-rule="evenodd" clip-rule="evenodd" d="M14.5686 3.00059H3.56857C3.51334 3.00059 3.46857 3.04536 3.46857 3.10059V12.1006C3.46857 12.1558 3.51334 12.2006 3.56857 12.2006H14.5686C14.6238 12.2006 14.6686 12.1558 14.6686 12.1006V3.10059C14.6686 3.04536 14.6238 3.00059 14.5686 3.00059ZM3.56857 2.10059C3.01629 2.10059 2.56857 2.5483 2.56857 3.10059V12.1006C2.56857 12.6529 3.01629 13.1006 3.56857 13.1006H14.5686C15.1209 13.1006 15.5686 12.6529 15.5686 12.1006V3.10059C15.5686 2.5483 15.1209 2.10059 14.5686 2.10059H3.56857ZM13.3614 5.75898C13.5501 5.92072 13.572 6.2048 13.4102 6.3935L10.4102 9.8935C10.3287 9.98867 10.2111 10.0455 10.0858 10.0503C9.9606 10.0551 9.83901 10.0075 9.75038 9.91884L7.13852 7.30698L5.443 9.85026C5.30514 10.057 5.02575 10.1129 4.81896 9.97507C4.61217 9.83721 4.5563 9.55782 4.69416 9.35103L6.69416 6.35103C6.76894 6.23885 6.89008 6.16612 7.02424 6.15283C7.1584 6.13955 7.29145 6.18711 7.38678 6.28244L10.0432 8.93883L12.7269 5.80779C12.8887 5.61909 13.1727 5.59724 13.3614 5.75898ZM4.56857 14.6506C4.32004 14.6506 4.11857 14.8521 4.11857 15.1006C4.11857 15.3491 4.32004 15.5506 4.56857 15.5506H13.5686C13.8171 15.5506 14.0186 15.3491 14.0186 15.1006C14.0186 14.8521 13.8171 14.6506 13.5686 14.6506H4.56857Z" fill="white"/>
</svg>
