<svg width="17" height="17" viewBox="0 0 17 17" fill="none" xmlns="http://www.w3.org/2000/svg">
<g id="Group 318">
<g id="Group 320">
<path id="Vector 54" d="M7.90137 6.5127V9.12639L10.6388 10.5571" stroke="white" stroke-width="0.8" stroke-linecap="round" stroke-linejoin="round"/>
<path id="Vector" d="M4.93339 3.76346C5.93579 2.76103 7.29543 2.19786 8.71305 2.19785H8.7131C10.1306 2.19803 11.4901 2.76127 12.4924 3.76368C13.4947 4.76611 14.0578 6.12562 14.0578 7.54318V13.6492C14.0578 13.6721 14.0532 13.6949 14.0444 13.7161C14.0357 13.7373 14.0228 13.7566 14.0065 13.7729C13.9903 13.7891 13.971 13.802 13.9498 13.8108L14.1028 14.1803L13.9498 13.8108C13.9286 13.8196 13.9058 13.8241 13.8828 13.8241H3.54271C3.49631 13.8241 3.45181 13.8057 3.41901 13.7729C3.3862 13.7401 3.36777 13.6956 3.36777 13.6492V7.54318C3.36777 6.12551 3.93096 4.76591 4.93339 3.76346Z" stroke="white" stroke-width="0.8"/>
<path id="Vector 53" d="M4.26172 15.4824H13.1647" stroke="white" stroke-width="0.8" stroke-linecap="round" stroke-linejoin="round"/>
</g>
</g>
</svg>
