<svg width="15" height="16" viewBox="0 0 15 16" fill="none" xmlns="http://www.w3.org/2000/svg">
<g id="&#233;&#135;&#135;&#233;&#155;&#134;&#233;&#133;&#141;&#231;&#189;&#174;">
<g id="Group 46">
<g id="Group 47">
<path id="Rectangle 264" d="M13.0183 9.46894V2.41183C13.0183 1.83381 12.5497 1.36523 11.9717 1.36523H2.85031C2.27229 1.36523 1.80371 1.83381 1.80371 2.41183V11.8312C1.80371 12.4092 2.27229 12.8778 2.85031 12.8778H10.8849" stroke="white" stroke-width="0.837279" stroke-linecap="round"/>
<path id="Vector" d="M5.30837 9.05546V9.92614C5.30837 9.97607 5.34962 10.0166 5.39884 10.0166H5.94165C5.96565 10.0166 5.98866 10.0071 6.00562 9.99011C6.02259 9.97314 6.03212 9.95013 6.03212 9.92614V9.05546C5.79668 9.13032 5.54381 9.13032 5.30837 9.05546ZM6.03212 6.81616V4.31703C6.03212 4.29317 6.02269 4.27026 6.00588 4.25332C5.98907 4.23637 5.96625 4.22676 5.94238 4.22657H5.39956C5.37557 4.22657 5.35256 4.2361 5.33559 4.25306C5.31862 4.27003 5.30909 4.29304 5.30909 4.31703V6.81616C5.54453 6.74129 5.79668 6.74129 6.03212 6.81616ZM5.30837 9.05546C5.54381 9.13032 5.79668 9.13032 6.03212 9.05546C6.2987 8.96925 6.52575 8.79071 6.67239 8.55197C6.81903 8.31324 6.87563 8.03 6.83199 7.75324C6.78836 7.47648 6.64736 7.2244 6.43437 7.04237C6.22139 6.86033 5.95042 6.76031 5.67024 6.76031C5.39007 6.76031 5.1191 6.86033 4.90612 7.04237C4.69313 7.2244 4.55213 7.47648 4.5085 7.75324C4.46486 8.03 4.52146 8.31324 4.6681 8.55197C4.81474 8.79071 5.04179 8.96925 5.30837 9.05546ZM5.30982 7.74691L5.3214 7.72664V7.7252L5.33442 7.70493C5.33587 7.70276 5.33732 7.70204 5.33804 7.69914L5.34962 7.68394L5.35252 7.67888L5.36844 7.66078L5.37206 7.65789L5.38581 7.64341L5.39015 7.63979L5.40825 7.62387C5.41448 7.61868 5.42101 7.61385 5.42779 7.6094L5.43285 7.60578L5.44878 7.5942L5.45312 7.59058C5.46036 7.58624 5.46759 7.58334 5.47483 7.57827L5.47917 7.5761C5.48496 7.57248 5.49075 7.57031 5.49727 7.56742L5.50451 7.5638C5.51174 7.56018 5.51898 7.55656 5.52694 7.55439C5.53474 7.55147 5.54272 7.54905 5.55083 7.54715L5.55806 7.54426C5.56421 7.5423 5.5705 7.54085 5.57688 7.53992L5.58267 7.53919C5.58991 7.5363 5.59932 7.53557 5.60728 7.53412L5.61307 7.5334L5.63333 7.53123H5.64057L5.6659 7.52978C5.67531 7.52978 5.68327 7.52978 5.69196 7.53123H5.6992C5.70772 7.53133 5.7162 7.5323 5.72453 7.53412C5.73249 7.53557 5.7419 7.5363 5.74986 7.53919L5.75565 7.53992L5.77447 7.54426L5.7817 7.54715C5.78957 7.54908 5.7973 7.5515 5.80486 7.55439L5.82802 7.5638L5.83526 7.56742C5.84125 7.56989 5.84706 7.5728 5.85263 7.5761L5.85697 7.57827L5.87869 7.59058L5.88303 7.5942C5.88882 7.59782 5.89461 7.60143 5.89895 7.60578L5.90474 7.60867L5.92356 7.62315C5.93013 7.62834 5.93642 7.6339 5.94238 7.63979L5.94672 7.64414L5.96047 7.65789L5.96337 7.66078C5.96899 7.66653 5.97431 7.67257 5.97929 7.67888L5.98291 7.68394C5.98711 7.68857 5.99075 7.69367 5.99376 7.69914L5.99738 7.70493L6.01113 7.7252L6.01186 7.72664C6.01692 7.73388 6.01982 7.7404 6.02344 7.74691C6.05382 7.80524 6.06968 7.87004 6.06968 7.93581C6.06968 8.00158 6.05382 8.06638 6.02344 8.12471L6.01186 8.14497L6.01113 8.14642L5.99738 8.16669L5.99376 8.17248L5.98291 8.18768L5.97929 8.19274L5.96337 8.21084L5.96047 8.21373L5.946 8.22821L5.94238 8.23183L5.92356 8.24775C5.91756 8.25291 5.91127 8.25774 5.90474 8.26222L5.89895 8.26584L5.88303 8.27742L5.87869 8.28104L5.85697 8.29334L5.85263 8.29552C5.84684 8.29913 5.84105 8.30131 5.83454 8.3042L5.8273 8.30782C5.81262 8.3153 5.79706 8.32089 5.78098 8.32447C5.77953 8.32591 5.77664 8.32591 5.77447 8.32736C5.76832 8.32932 5.76203 8.33077 5.75565 8.3317L5.74986 8.33243C5.7419 8.33532 5.73249 8.33605 5.72525 8.33749L5.71946 8.33822L5.6992 8.34039H5.69196L5.6659 8.34184C5.65722 8.34184 5.64926 8.34184 5.63985 8.34039H5.63261C5.62605 8.34018 5.61951 8.33945 5.61307 8.33822L5.60728 8.33749C5.60004 8.33605 5.59063 8.33532 5.58267 8.33243L5.57688 8.3317L5.55734 8.32736L5.5501 8.32447C5.54224 8.32254 5.5345 8.32012 5.52694 8.31723L5.50451 8.30782L5.49727 8.3042C5.49103 8.30176 5.48498 8.29885 5.47917 8.29552L5.47483 8.29334C5.46736 8.28968 5.46011 8.28557 5.45312 8.28104L5.44878 8.27742L5.43285 8.26584L5.42779 8.26295L5.40825 8.24847C5.40192 8.24325 5.39588 8.2377 5.39015 8.23183L5.38581 8.22748L5.37206 8.21446L5.36844 8.21156C5.36281 8.20581 5.3575 8.19978 5.35252 8.19347L5.34962 8.1884C5.34517 8.18382 5.34128 8.17871 5.33804 8.1732C5.33732 8.17031 5.33587 8.16958 5.33442 8.16741L5.3214 8.14715V8.1457C5.2857 8.08583 5.2659 8.01784 5.26387 7.94817C5.26185 7.8785 5.27766 7.80875 5.30982 7.74691ZM8.4748 7.42701V9.92614C8.4748 9.97607 8.51605 10.0166 8.56599 10.0166H9.1088C9.13267 10.0164 9.1555 10.0068 9.17231 9.98985C9.18912 9.97291 9.19855 9.95 9.19855 9.92614V7.42701C8.96311 7.50188 8.71024 7.50188 8.4748 7.42701ZM9.19855 5.18771V4.31703C9.19855 4.29317 9.18912 4.27026 9.17231 4.25332C9.1555 4.23637 9.13267 4.22676 9.1088 4.22657H8.56599C8.55405 4.22647 8.5422 4.22874 8.53114 4.23324C8.52008 4.23775 8.51003 4.2444 8.50155 4.25281C8.49307 4.26122 8.48634 4.27122 8.48175 4.28225C8.47716 4.29327 8.4748 4.30509 8.4748 4.31703V5.18771C8.71024 5.11285 8.96311 5.11285 9.19855 5.18771ZM8.4748 7.42701C8.71024 7.50188 8.96311 7.50188 9.19855 7.42701C9.46513 7.3408 9.69218 7.16226 9.83882 6.92352C9.98546 6.68479 10.0421 6.40155 9.99842 6.12479C9.95479 5.84804 9.81378 5.59595 9.6008 5.41392C9.38782 5.23188 9.11685 5.13186 8.83667 5.13186C8.5565 5.13186 8.28553 5.23188 8.07254 5.41392C7.85956 5.59595 7.71856 5.84804 7.67492 6.12479C7.63129 6.40155 7.68788 6.68479 7.83452 6.92352C7.98116 7.16226 8.20821 7.3408 8.4748 7.42701ZM8.47624 6.11846L8.48782 6.0982V6.09675L8.50085 6.07648C8.5023 6.07431 8.50374 6.07359 8.50447 6.07069L8.51605 6.05549L8.51894 6.05043L8.53487 6.03233L8.53849 6.02944L8.55224 6.01496L8.55658 6.01134L8.57467 5.99542C8.58091 5.99024 8.58744 5.9854 8.59421 5.98095L8.59928 5.97733L8.6152 5.96575L8.61955 5.96213C8.62678 5.95779 8.63402 5.95489 8.64126 5.94983L8.6456 5.94765C8.65139 5.94404 8.65718 5.94186 8.66369 5.93897L8.67093 5.93535C8.67817 5.93173 8.68541 5.92811 8.69337 5.92594L8.71725 5.9187L8.72449 5.91581C8.73063 5.91385 8.73693 5.9124 8.74331 5.91147L8.7491 5.91074C8.75634 5.90785 8.76574 5.90712 8.77371 5.90568L8.7795 5.90495L8.79976 5.90278H8.807L8.83233 5.90133C8.84174 5.90133 8.8497 5.90133 8.85839 5.90278H8.86562L8.88589 5.90495L8.89095 5.90568C8.89892 5.90712 8.90832 5.90785 8.91629 5.91074L8.92208 5.91147L8.94089 5.91581L8.94813 5.9187C8.95599 5.92063 8.96373 5.92305 8.97129 5.92594L8.99445 5.93535L9.00169 5.93897C9.00768 5.94144 9.01348 5.94435 9.01906 5.94765L9.0234 5.94983L9.04511 5.96213L9.04946 5.96575C9.05525 5.96937 9.06104 5.97299 9.06538 5.97733L9.07117 5.98022L9.09071 5.9947C9.09679 5.99994 9.10259 6.00549 9.10808 6.01134L9.11315 6.01569L9.12617 6.02944L9.12979 6.03233C9.13542 6.03808 9.14073 6.04412 9.14572 6.05043L9.14933 6.05549C9.15368 6.05984 9.15657 6.06563 9.16019 6.07069L9.16381 6.07648L9.17756 6.09675V6.0982L9.18842 6.11846C9.2188 6.17679 9.23466 6.24159 9.23466 6.30736C9.23466 6.37313 9.2188 6.43793 9.18842 6.49626C9.18552 6.5035 9.18118 6.51001 9.17756 6.51653V6.51797L9.16381 6.53824L9.16019 6.54403L9.14933 6.55923L9.14572 6.56429L9.12979 6.58239L9.12617 6.58528L9.11315 6.59976L9.10808 6.60338C9.10301 6.60917 9.09722 6.61351 9.09071 6.6193C9.08447 6.62449 9.07795 6.62932 9.07117 6.63377L9.06538 6.63739L9.04946 6.64897L9.04511 6.65259L9.0234 6.6649L9.01906 6.66707C9.01327 6.67069 9.00748 6.67286 9.00096 6.67575L8.99373 6.67937C8.97905 6.68685 8.96349 6.69244 8.94741 6.69602C8.94596 6.69746 8.94306 6.69746 8.94089 6.69891C8.93475 6.70087 8.92846 6.70232 8.92208 6.70325L8.91629 6.70398C8.90832 6.70687 8.89892 6.7076 8.89095 6.70904L8.88589 6.70977L8.86562 6.71194H8.85839L8.83233 6.71339C8.82364 6.71339 8.81568 6.71339 8.80627 6.71194H8.79904L8.7795 6.70977L8.77371 6.70904C8.76647 6.7076 8.75706 6.70687 8.7491 6.70398L8.74331 6.70325L8.72377 6.69891L8.71653 6.69602L8.69337 6.68878L8.67093 6.67937L8.66369 6.67575C8.65746 6.67331 8.65141 6.67041 8.6456 6.66707L8.64126 6.6649C8.63378 6.66123 8.62653 6.65712 8.61955 6.65259L8.6152 6.64897L8.59928 6.63739L8.59421 6.6345L8.57467 6.62002C8.56835 6.61481 8.5623 6.60925 8.55658 6.60338L8.55224 6.59903L8.53849 6.58528L8.53487 6.58239C8.52924 6.57664 8.52393 6.5706 8.51894 6.56429L8.51605 6.55923C8.51159 6.55464 8.5077 6.54954 8.50447 6.54403C8.50374 6.54113 8.5023 6.54041 8.50085 6.53824L8.48782 6.51797V6.51653C8.45213 6.45666 8.43233 6.38867 8.4303 6.319C8.42827 6.24933 8.44409 6.1803 8.47624 6.11846Z" fill="white"/>
</g>
</g>
</g>
</svg>
