<svg width="18" height="17" viewBox="0 0 18 17" fill="none" xmlns="http://www.w3.org/2000/svg">
<path d="M4.81745 15.715C4.58119 15.715 4.38966 15.5235 4.38966 15.2872V15.2872C4.38966 15.051 4.58119 14.8594 4.81744 14.8594H12.3032C12.5394 14.8594 12.7309 15.051 12.7309 15.2872V15.2872C12.7309 15.5235 12.5394 15.715 12.3032 15.715H4.81745ZM15.2774 12.8957C15.1144 13.1699 14.8189 13.338 14.4998 13.338H11.2258C10.9067 13.338 10.6112 13.1699 10.4481 12.8957L8.83447 10.1818C8.66502 9.89681 8.66502 9.54196 8.83447 9.25697L10.4481 6.54311C10.6112 6.26883 10.9067 6.10073 11.2258 6.10073H14.4998C14.8189 6.10073 15.1144 6.26883 15.2774 6.54311L16.8911 9.25697C17.0606 9.54196 17.0606 9.89681 16.8911 10.1818L15.2774 12.8957ZM9.67681 9.25386C9.50488 9.5404 9.50488 9.89837 9.67681 10.1849L10.867 12.1684C11.0305 12.4409 11.325 12.6077 11.6428 12.6077H14.0843C14.4021 12.6077 14.6967 12.4409 14.8602 12.1684L16.0503 10.1849C16.2223 9.89837 16.2223 9.5404 16.0503 9.25386L14.8602 7.27038C14.6967 6.99786 14.4021 6.83112 14.0843 6.83112H11.6428C11.325 6.83112 11.0305 6.99786 10.867 7.27038L9.67681 9.25386ZM9.73001 13.2479C9.73001 13.2484 9.7296 13.2488 9.7291 13.2488H2.7078C2.2081 13.2488 1.80301 12.8438 1.80301 12.3441V3.48389C1.80301 2.98419 2.2081 2.5791 2.7078 2.5791H14.0568C14.5565 2.5791 14.9616 2.98419 14.9616 3.48389V5.04507C14.9616 5.27895 14.772 5.46855 14.5381 5.46855V5.46855C14.3042 5.46855 14.1146 5.27895 14.1146 5.04507V4.2839C14.1146 3.7842 13.7096 3.37912 13.2099 3.37912H3.55476C3.05506 3.37912 2.64997 3.7842 2.64997 4.2839V11.4908C2.64997 11.9905 3.05506 12.3956 3.55476 12.3956H8.69684C9.00925 12.3956 9.29956 12.5568 9.46477 12.822L9.72987 13.2474C9.72996 13.2476 9.73001 13.2478 9.73001 13.2479V13.2479ZM11.3189 9.76771C11.319 9.76731 11.3191 9.7669 11.3191 9.76649C11.3122 9.43783 11.4033 9.11457 11.5809 8.83789C11.7585 8.56103 12.0146 8.34336 12.3164 8.21265C12.6183 8.08193 12.9522 8.04411 13.2757 8.10399C13.5991 8.16387 13.8974 8.31874 14.1325 8.54886C14.3675 8.77897 14.5287 9.07389 14.5954 9.39599C14.6622 9.71809 14.6315 10.0528 14.5072 10.3573C14.3829 10.6619 14.1708 10.9226 13.8977 11.106C13.6247 11.2895 13.3032 11.3875 12.9743 11.3875C12.5402 11.3917 12.1222 11.2236 11.8118 10.92C11.5016 10.6167 11.3243 10.2027 11.3187 9.7689C11.3187 9.76849 11.3188 9.76809 11.3189 9.76771V9.76771ZM11.9597 9.76771C11.9597 9.76761 11.9599 9.76763 11.9599 9.76774C11.9557 9.96902 12.0116 10.167 12.1203 10.3364C12.2291 10.506 12.386 10.6394 12.5709 10.7195C12.7559 10.7996 12.9605 10.8228 13.1587 10.7861C13.3568 10.7494 13.5396 10.6545 13.6836 10.5136C13.8276 10.3726 13.9264 10.1919 13.9673 9.99458C14.0082 9.79724 13.9894 9.59218 13.9133 9.40557C13.8372 9.21896 13.7073 9.05924 13.54 8.9468C13.3728 8.83436 13.1758 8.77428 12.9743 8.77423C12.7079 8.77163 12.4514 8.87486 12.2612 9.06125C12.071 9.2475 11.9625 9.50156 11.9595 9.76768C11.9595 9.76779 11.9596 9.76781 11.9597 9.76771V9.76771Z" fill="white"/>
</svg>
