<svg width="15" height="16" viewBox="0 0 15 16" fill="none" xmlns="http://www.w3.org/2000/svg">
<g id="&#230;&#147;&#141;&#228;&#189;&#156;&#230;&#151;&#165;&#229;&#191;&#151;">
<g id="Group 46">
<g id="Group 47">
<path id="&#229;&#189;&#162;&#231;&#138;&#182;" fill-rule="evenodd" clip-rule="evenodd" d="M12.8595 11.4286L14.0573 12.5691L14.2594 12.7728C14.3755 12.8905 14.3755 13.0654 14.2594 13.1816L13.4433 13.9976C13.3272 14.1137 13.1522 14.1137 13.0361 13.9976L12.8325 13.794L11.6347 12.6535C11.4311 12.7409 11.1989 12.7696 10.965 12.7696C10.4401 12.7696 9.9454 12.5962 9.53659 12.1874C8.89555 11.5463 8.77942 10.584 9.15801 9.8268C9.21686 9.71068 9.30435 9.65182 9.42047 9.65182C9.50796 9.65182 9.56523 9.68045 9.62408 9.73931L10.6151 10.7303L10.965 10.3804L9.97403 9.38936C9.82928 9.2446 9.85791 9.01077 10.0329 8.92328C10.324 8.77694 10.6437 8.68945 10.965 8.68945C11.4613 8.68945 11.9847 8.89465 12.3935 9.30187C12.947 9.88406 13.122 10.7001 12.8595 11.4286ZM12.0436 12.2447L13.2413 13.3852L13.6486 12.9796L12.4508 11.839C12.2758 11.6641 12.2169 11.4302 12.3044 11.2266C12.508 10.6731 12.3633 10.0893 11.9545 9.71068C11.692 9.41959 11.3134 9.27324 10.9348 9.27324C10.8474 9.27324 10.7599 9.27324 10.6724 9.30188L11.3452 9.96997C11.5791 10.1736 11.5791 10.5522 11.3452 10.786L10.9953 11.1359C10.8776 11.2521 10.7328 11.3109 10.5865 11.3109C10.4401 11.3109 10.2938 11.2521 10.1777 11.1359L9.50799 10.4663C9.42209 10.9323 9.56684 11.3984 9.9168 11.7484C10.1793 12.0395 10.5578 12.1858 10.9364 12.1858C11.1098 12.1858 11.2848 12.1572 11.4311 12.0983C11.5186 12.0697 11.5759 12.0697 11.6347 12.0697C11.7811 12.0697 11.9274 12.1285 12.0436 12.2447Z" fill="white"/>
<path id="Vector 50" d="M4.78809 4.36523H9.56934" stroke="white" stroke-width="0.8" stroke-linecap="round" stroke-linejoin="round"/>
<path id="Rectangle 264" d="M13.0183 8.3839V2.41183C13.0183 1.83381 12.5497 1.36523 11.9717 1.36523H2.85031C2.27229 1.36523 1.80371 1.83381 1.80371 2.41183V11.8312C1.80371 12.4092 2.27229 12.8778 2.85031 12.8778H8.93302" stroke="white" stroke-width="0.837279" stroke-linecap="round"/>
<path id="Vector 51" d="M4.78809 6.86426H9.56934" stroke="white" stroke-width="0.8" stroke-linecap="round" stroke-linejoin="round"/>
<path id="Vector 52" d="M4.78809 9.11621H8.03369" stroke="white" stroke-width="0.8" stroke-linecap="round" stroke-linejoin="round"/>
</g>
</g>
</g>
</svg>
