<svg width="17" height="17" viewBox="0 0 17 17" fill="none" xmlns="http://www.w3.org/2000/svg">
<g id="&#233;&#169;&#190;&#233;&#169;&#182;&#232;&#136;&#177;">
<g id="&#231;&#188;&#150;&#231;&#187;&#132;">
<g id="Group 286">
<path id="Vector" d="M8.40407 4.13419C8.13695 4.13419 7.91991 3.91715 7.91991 3.65002V2.32108C7.91991 2.05395 8.13695 1.83691 8.40407 1.83691C8.6712 1.83691 8.88824 2.05395 8.88824 2.32108V3.65002C8.88824 3.91882 8.6712 4.13419 8.40407 4.13419ZM13.037 6.81044C12.8701 6.81044 12.7064 6.72362 12.618 6.56836C12.4844 6.33629 12.5629 6.04079 12.7949 5.90722L13.9452 5.24275C14.1773 5.10919 14.4728 5.18766 14.6064 5.41972C14.7399 5.65179 14.6615 5.94729 14.4294 6.08086L13.2791 6.74533C13.2023 6.78874 13.1188 6.81044 13.037 6.81044ZM14.1873 12.8241C14.1055 12.8241 14.022 12.8024 13.9452 12.759L12.7949 12.0945C12.5629 11.9609 12.4844 11.6654 12.618 11.4334C12.7515 11.2013 13.047 11.1228 13.2791 11.2564L14.4294 11.9209C14.6615 12.0544 14.7399 12.3499 14.6064 12.582C14.5179 12.7373 14.3543 12.8241 14.1873 12.8241ZM2.62083 12.8241C2.45387 12.8241 2.29026 12.7373 2.20178 12.582C2.06821 12.3499 2.14668 12.0544 2.37874 11.9209L3.52905 11.2564C3.76111 11.1228 4.05662 11.2013 4.19018 11.4334C4.32375 11.6654 4.24528 11.9609 4.01321 12.0945L2.86291 12.759C2.78611 12.8024 2.70263 12.8241 2.62083 12.8241ZM3.77113 6.81044C3.68932 6.81044 3.60585 6.78874 3.52905 6.74533L2.37874 6.08086C2.14668 5.94729 2.06821 5.65179 2.20178 5.41972C2.33534 5.18766 2.63084 5.10919 2.86291 5.24275L4.01321 5.90722C4.24528 6.04079 4.32375 6.33629 4.19018 6.56836C4.10003 6.72362 3.93808 6.81044 3.77113 6.81044ZM8.40407 10.3782C7.64444 10.3782 7.02504 9.7605 7.02504 8.99919C7.02504 8.23956 7.64277 7.62016 8.40407 7.62016C9.16538 7.62016 9.7831 8.23789 9.7831 8.99919C9.7831 9.7605 9.16371 10.3782 8.40407 10.3782ZM8.40407 8.59016C8.17702 8.59016 7.99337 8.7738 7.99337 9.00086C7.99337 9.22792 8.17702 9.41157 8.40407 9.41157C8.63113 9.41157 8.81478 9.22792 8.81478 9.00086C8.81478 8.7738 8.63113 8.59016 8.40407 8.59016Z" fill="white"/>
<path id="Vector_2" d="M8.40403 9.48505C8.32222 9.48505 8.23875 9.46334 8.16195 9.41994C7.92988 9.28637 7.85142 8.99087 7.98498 8.7588L9.7096 5.77035C9.84316 5.53828 10.1387 5.45981 10.3707 5.59338C10.6028 5.72694 10.6813 6.02245 10.5477 6.25451L8.82308 9.24297C8.73293 9.39823 8.57098 9.48505 8.40403 9.48505Z" fill="white"/>
<path id="Vector_3" d="M12.399 14.8361C12.252 14.8361 12.1051 14.7694 12.0116 14.6425C11.8513 14.4288 11.8948 14.1249 12.1101 13.9647C13.6928 12.7826 14.5994 10.9729 14.5994 9.00115C14.5994 5.58529 11.8213 2.80719 8.40544 2.80719C4.98959 2.80719 2.21149 5.58529 2.21149 9.00115C2.21149 10.9729 3.11804 12.7826 4.70076 13.9647C4.91446 14.1249 4.95953 14.4288 4.79926 14.6425C4.63899 14.8562 4.33513 14.9013 4.12143 14.741C3.24827 14.0882 2.52369 13.2317 2.02784 12.2634C1.50695 11.2483 1.24316 10.1498 1.24316 9.00115C1.24316 8.03449 1.43182 7.09621 1.8058 6.21303C2.16641 5.3599 2.6823 4.59359 3.34009 3.9358C3.99789 3.278 4.7642 2.76212 5.61733 2.4015C6.50051 2.02752 7.43878 1.83887 8.40544 1.83887C9.3721 1.83887 10.3104 2.02752 11.1936 2.4015C12.0467 2.76212 12.813 3.278 13.4708 3.9358C14.1286 4.59359 14.6445 5.3599 15.0051 6.21303C15.3791 7.09621 15.5677 8.03449 15.5677 9.00115C15.5677 10.1498 15.3039 11.2467 14.783 12.2634C14.2872 13.2317 13.5626 14.0882 12.6895 14.741C12.601 14.8061 12.4991 14.8361 12.399 14.8361Z" fill="white"/>
</g>
</g>
</g>
</svg>
