<svg width="17" height="17" viewBox="0 0 17 17" fill="none" xmlns="http://www.w3.org/2000/svg">
<g id="&#232;&#131;&#189;&#232;&#128;&#151;&#231;&#187;&#147;&#230;&#158;&#132;">
<path id="Polygon 1" d="M13.0312 13.7646L14.3833 12.9842C14.6927 12.8055 14.8834 12.4754 14.8834 12.1181V5.94792C14.8834 5.59062 14.6927 5.26047 14.3833 5.08185L9.03828 1.99657C8.72892 1.818 8.3478 1.818 8.03844 1.99657L2.69344 5.08185C2.38399 5.26047 2.19336 5.59062 2.19336 5.94792V12.1181C2.19336 12.4754 2.38399 12.8055 2.69344 12.9842L8.04221 16.0716C8.34954 16.249 8.72788 16.2503 9.03637 16.0749L10.9596 14.9814" stroke="white" stroke-width="0.8" stroke-linecap="round"/>
<path id="Vector 47" d="M5.56738 6.77832L8.57593 8.72754M8.57593 8.72754L11.5087 6.77832M8.57593 8.72754V12.4549" stroke="white" stroke-width="0.8" stroke-linecap="round" stroke-linejoin="round"/>
</g>
</svg>
