<svg width="16" height="16" viewBox="0 0 16 16" fill="none" xmlns="http://www.w3.org/2000/svg">
<path fill-rule="evenodd" clip-rule="evenodd" d="M13.9577 5.35283C13.9577 6.05564 13.3821 6.62527 12.6721 6.62527H6.32303V7.89772H10.1404C10.2529 7.89772 10.3607 7.94241 10.4403 8.02195C10.5198 8.10149 10.5645 8.20938 10.5645 8.32187V10.0185H12.6721C13.3821 10.0185 13.9577 10.5881 13.9577 11.2909V12.9875C13.9577 13.6903 13.3821 14.2599 12.6721 14.2599H3.36714C2.65711 14.2599 2.08154 13.6903 2.08154 12.9875V11.2909C2.08154 10.5881 2.65711 10.0185 3.36714 10.0185H9.71622V8.74602H5.89888C5.78639 8.74602 5.6785 8.70133 5.59896 8.62179C5.51942 8.54224 5.47473 8.43436 5.47473 8.32187V6.62527H3.36714C2.65711 6.62527 2.08154 6.05564 2.08154 5.35283V3.65623C2.08154 2.95342 2.65711 2.38379 3.36714 2.38379H12.6721C13.3821 2.38379 13.9577 2.95342 13.9577 3.65623V5.35283ZM13.1005 11.2909C13.1005 11.0568 12.9088 10.8668 12.6721 10.8668H3.36714C3.13046 10.8668 2.93875 11.0568 2.93875 11.2909V12.9875C2.93875 13.2216 3.13046 13.4117 3.36714 13.4117H12.6721C12.9088 13.4117 13.1005 13.2216 13.1005 12.9875V11.2909ZM2.93875 3.65623V5.35283C2.93875 5.58696 3.13046 5.77698 3.36714 5.77698H12.6721C12.9088 5.77698 13.1005 5.58696 13.1005 5.35283V3.65623C13.1005 3.4221 12.9088 3.23209 12.6721 3.23209H3.36714C3.13046 3.23209 2.93875 3.4221 2.93875 3.65623ZM10.5647 12.563H5.47493C5.36244 12.563 5.25455 12.5184 5.17501 12.4388C5.09547 12.3593 5.05078 12.2514 5.05078 12.1389C5.05078 12.0264 5.09547 11.9185 5.17501 11.839C5.25455 11.7594 5.36244 11.7148 5.47493 11.7148H10.5647C10.6772 11.7148 10.7851 11.7594 10.8646 11.839C10.9442 11.9185 10.9889 12.0264 10.9889 12.1389C10.9889 12.2514 10.9442 12.3593 10.8646 12.4388C10.7851 12.5184 10.6772 12.563 10.5647 12.563ZM10.8646 4.20431C10.9442 4.28385 10.9889 4.39174 10.9889 4.50423C10.9889 4.61672 10.9442 4.7246 10.8646 4.80414C10.7851 4.88369 10.6772 4.92838 10.5647 4.92838H5.47493C5.36244 4.92838 5.25455 4.88369 5.17501 4.80414C5.09547 4.7246 5.05078 4.61672 5.05078 4.50423C5.05078 4.39174 5.09547 4.28385 5.17501 4.20431C5.25455 4.12477 5.36244 4.08008 5.47493 4.08008H10.5647C10.6772 4.08008 10.7851 4.12477 10.8646 4.20431Z" fill="white"/>
</svg>
