<svg width="17" height="17" viewBox="0 0 17 17" fill="none" xmlns="http://www.w3.org/2000/svg">
<mask id="path-1-outside-1_218_1102" maskUnits="userSpaceOnUse" x="0.903748" y="0.630859" width="15" height="15" fill="black">
<rect fill="white" x="0.903748" y="0.630859" width="15" height="15"/>
<path fill-rule="evenodd" clip-rule="evenodd" d="M14.5393 6.95008C14.5393 6.76948 14.6942 6.62326 14.8861 6.62326C15.0775 6.62326 15.233 6.76999 15.2335 6.95008V11.1746C15.2328 11.2336 15.216 11.2912 15.1849 11.3413C15.1537 11.3914 15.1095 11.432 15.057 11.4588L8.53449 14.9281C8.52924 14.9309 8.52413 14.9315 8.51902 14.9322C8.51464 14.9328 8.51025 14.9334 8.50576 14.9353C8.46786 14.9516 8.4274 14.9611 8.38622 14.9635C8.38138 14.9638 8.3766 14.9643 8.37184 14.9647C8.36091 14.9658 8.35009 14.9668 8.33901 14.9661C8.29104 14.9629 8.24415 14.9503 8.201 14.9291C8.19899 14.9277 8.19649 14.9271 8.19396 14.9264C8.19198 14.9259 8.18998 14.9254 8.18818 14.9245L8.18561 14.9235L2.071 11.4547C1.96737 11.3957 1.90375 11.29 1.90375 11.1751V5.02971C1.90452 4.99248 1.91235 4.95575 1.92684 4.92145C1.90391 4.84917 1.90834 4.77099 1.93927 4.70175C1.9702 4.63252 2.02547 4.57705 2.0946 4.54589L8.20921 1.66508C8.25775 1.64254 8.31063 1.63086 8.36415 1.63086C8.41768 1.63086 8.47055 1.64254 8.5191 1.66508L14.6337 4.54589C14.6892 4.56994 14.7367 4.60935 14.7706 4.65947C14.8044 4.70959 14.8233 4.76834 14.8249 4.82881C14.8265 4.88928 14.8108 4.94896 14.7797 5.00082C14.7485 5.05268 14.7032 5.09456 14.6491 5.12154L8.69559 8.30044C8.69724 8.30805 8.69938 8.3155 8.70151 8.32294C8.70599 8.33859 8.71047 8.35421 8.71047 8.37124V14.0846L14.5393 10.9837V6.95008ZM2.59586 10.9899L8.01784 14.0657V8.37124C8.01784 8.35327 8.02256 8.33687 8.02732 8.32035C8.02921 8.31377 8.03111 8.30717 8.03272 8.30044L2.59586 5.39757V10.9899ZM8.36415 7.72684L13.7415 4.85578L8.36364 2.32231L2.98732 4.85578L8.36415 7.72684ZM4.18441 8.03914L6.22278 9.19095C6.26112 9.2115 6.29483 9.23973 6.3218 9.27387C6.34876 9.308 6.36842 9.34733 6.37953 9.38939C6.39065 9.43145 6.39299 9.47535 6.38641 9.51835C6.37984 9.56136 6.36448 9.60255 6.34129 9.63936C6.29075 9.71456 6.21365 9.76788 6.12544 9.78862C6.03724 9.80936 5.94446 9.796 5.86569 9.75121L3.82732 8.59888C3.78899 8.57838 3.75529 8.55021 3.72833 8.51612C3.70137 8.48202 3.68172 8.44274 3.6706 8.40072C3.65948 8.3587 3.65713 8.31484 3.66371 8.27188C3.67028 8.22891 3.68563 8.18776 3.7088 8.15099C3.75935 8.07578 3.83645 8.02247 3.92465 8.00173C4.01286 7.98098 4.10564 7.99435 4.18441 8.03914Z"/>
</mask>
<path fill-rule="evenodd" clip-rule="evenodd" d="M14.5393 6.95008C14.5393 6.76948 14.6942 6.62326 14.8861 6.62326C15.0775 6.62326 15.233 6.76999 15.2335 6.95008V11.1746C15.2328 11.2336 15.216 11.2912 15.1849 11.3413C15.1537 11.3914 15.1095 11.432 15.057 11.4588L8.53449 14.9281C8.52924 14.9309 8.52413 14.9315 8.51902 14.9322C8.51464 14.9328 8.51025 14.9334 8.50576 14.9353C8.46786 14.9516 8.4274 14.9611 8.38622 14.9635C8.38138 14.9638 8.3766 14.9643 8.37184 14.9647C8.36091 14.9658 8.35009 14.9668 8.33901 14.9661C8.29104 14.9629 8.24415 14.9503 8.201 14.9291C8.19899 14.9277 8.19649 14.9271 8.19396 14.9264C8.19198 14.9259 8.18998 14.9254 8.18818 14.9245L8.18561 14.9235L2.071 11.4547C1.96737 11.3957 1.90375 11.29 1.90375 11.1751V5.02971C1.90452 4.99248 1.91235 4.95575 1.92684 4.92145C1.90391 4.84917 1.90834 4.77099 1.93927 4.70175C1.9702 4.63252 2.02547 4.57705 2.0946 4.54589L8.20921 1.66508C8.25775 1.64254 8.31063 1.63086 8.36415 1.63086C8.41768 1.63086 8.47055 1.64254 8.5191 1.66508L14.6337 4.54589C14.6892 4.56994 14.7367 4.60935 14.7706 4.65947C14.8044 4.70959 14.8233 4.76834 14.8249 4.82881C14.8265 4.88928 14.8108 4.94896 14.7797 5.00082C14.7485 5.05268 14.7032 5.09456 14.6491 5.12154L8.69559 8.30044C8.69724 8.30805 8.69938 8.3155 8.70151 8.32294C8.70599 8.33859 8.71047 8.35421 8.71047 8.37124V14.0846L14.5393 10.9837V6.95008ZM2.59586 10.9899L8.01784 14.0657V8.37124C8.01784 8.35327 8.02256 8.33687 8.02732 8.32035C8.02921 8.31377 8.03111 8.30717 8.03272 8.30044L2.59586 5.39757V10.9899ZM8.36415 7.72684L13.7415 4.85578L8.36364 2.32231L2.98732 4.85578L8.36415 7.72684ZM4.18441 8.03914L6.22278 9.19095C6.26112 9.2115 6.29483 9.23973 6.3218 9.27387C6.34876 9.308 6.36842 9.34733 6.37953 9.38939C6.39065 9.43145 6.39299 9.47535 6.38641 9.51835C6.37984 9.56136 6.36448 9.60255 6.34129 9.63936C6.29075 9.71456 6.21365 9.76788 6.12544 9.78862C6.03724 9.80936 5.94446 9.796 5.86569 9.75121L3.82732 8.59888C3.78899 8.57838 3.75529 8.55021 3.72833 8.51612C3.70137 8.48202 3.68172 8.44274 3.6706 8.40072C3.65948 8.3587 3.65713 8.31484 3.66371 8.27188C3.67028 8.22891 3.68563 8.18776 3.7088 8.15099C3.75935 8.07578 3.83645 8.02247 3.92465 8.00173C4.01286 7.98098 4.10564 7.99435 4.18441 8.03914Z" fill="white"/>
<path d="M15.2335 6.95008L15.343 6.95008L15.343 6.94976L15.2335 6.95008ZM15.2335 11.1746L15.343 11.1759V11.1746H15.2335ZM15.057 11.4588L15.0073 11.3612L15.0055 11.3621L15.057 11.4588ZM8.53449 14.9281L8.5855 15.025L8.58592 15.0248L8.53449 14.9281ZM8.51902 14.9322L8.50458 14.8237L8.50457 14.8237L8.51902 14.9322ZM8.50576 14.9353L8.46325 14.8343L8.46248 14.8347L8.50576 14.9353ZM8.38622 14.9635L8.37993 14.8542L8.37916 14.8542L8.38622 14.9635ZM8.37184 14.9647L8.38218 15.0738L8.38218 15.0738L8.37184 14.9647ZM8.33901 14.9661L8.33175 15.0754L8.33196 15.0754L8.33901 14.9661ZM8.201 14.9291L8.13734 15.0183L8.14464 15.0235L8.1527 15.0274L8.201 14.9291ZM8.19396 14.9264L8.16711 15.0326L8.16714 15.0326L8.19396 14.9264ZM8.18818 14.9245L8.23734 14.8262L8.22885 14.8228L8.18818 14.9245ZM8.18561 14.9235L8.13157 15.0188L8.13803 15.0224L8.14493 15.0252L8.18561 14.9235ZM2.071 11.4547L2.01682 11.5499L2.01696 11.55L2.071 11.4547ZM1.90375 5.02971L1.79422 5.02744V5.02971H1.90375ZM1.92684 4.92145L2.02774 4.96405L2.04345 4.92685L2.03124 4.88834L1.92684 4.92145ZM1.93927 4.70175L2.03927 4.74643L1.93927 4.70175ZM2.0946 4.54589L2.13962 4.64576L2.14129 4.64498L2.0946 4.54589ZM8.20921 1.66508L8.16308 1.56574L8.16253 1.566L8.20921 1.66508ZM8.5191 1.66508L8.56578 1.566L8.56523 1.56574L8.5191 1.66508ZM14.6337 4.54589L14.587 4.64503L14.5902 4.6464L14.6337 4.54589ZM14.7706 4.65947L14.8613 4.59813L14.8613 4.59813L14.7706 4.65947ZM14.8249 4.82881L14.7154 4.83174L14.7154 4.83174L14.8249 4.82881ZM14.7797 5.00082L14.8736 5.05721L14.8736 5.05721L14.7797 5.00082ZM14.6491 5.12154L14.6002 5.02347L14.5975 5.02493L14.6491 5.12154ZM8.69559 8.30044L8.644 8.20382L8.57097 8.24281L8.58856 8.32371L8.69559 8.30044ZM8.70151 8.32294L8.59622 8.35311L8.59622 8.35311L8.70151 8.32294ZM8.71047 14.0846H8.60094V14.267L8.76191 14.1813L8.71047 14.0846ZM14.5393 10.9837L14.5907 11.0804L14.6488 11.0495V10.9837H14.5393ZM8.01784 14.0657L7.9638 14.1609L8.12737 14.2537V14.0657H8.01784ZM2.59586 10.9899H2.48633V11.0537L2.54182 11.0852L2.59586 10.9899ZM8.02732 8.32035L8.13257 8.35065L8.13257 8.35065L8.02732 8.32035ZM8.03272 8.30044L8.13925 8.32591L8.15891 8.24366L8.08431 8.20382L8.03272 8.30044ZM2.59586 5.39757L2.64745 5.30095L2.48633 5.21492V5.39757H2.59586ZM13.7415 4.85578L13.7931 4.9524L13.9855 4.84966L13.7882 4.7567L13.7415 4.85578ZM8.36415 7.72684L8.31256 7.82346L8.36415 7.85101L8.41574 7.82346L8.36415 7.72684ZM8.36364 2.32231L8.41032 2.22322L8.36363 2.20123L8.31695 2.22323L8.36364 2.32231ZM2.98732 4.85578L2.94063 4.7567L2.74335 4.84967L2.93573 4.9524L2.98732 4.85578ZM6.22278 9.19095L6.16888 9.28633L6.17104 9.28749L6.22278 9.19095ZM4.18441 8.03914L4.13026 8.13435L4.13052 8.1345L4.18441 8.03914ZM6.3218 9.27387L6.40774 9.20597L6.40774 9.20597L6.3218 9.27387ZM6.38641 9.51835L6.27814 9.50179L6.27814 9.50179L6.38641 9.51835ZM6.34129 9.63936L6.43224 9.70049L6.43398 9.69773L6.34129 9.63936ZM6.12544 9.78862L6.10037 9.682L6.10037 9.682L6.12544 9.78862ZM5.86569 9.75121L5.91984 9.656L5.91959 9.65586L5.86569 9.75121ZM3.82732 8.59888L3.88123 8.50351L3.87898 8.5023L3.82732 8.59888ZM3.72833 8.51612L3.64242 8.58406L3.64242 8.58406L3.72833 8.51612ZM3.6706 8.40072L3.56471 8.42874L3.56471 8.42874L3.6706 8.40072ZM3.7088 8.15099L3.61786 8.08986L3.61614 8.09259L3.7088 8.15099ZM3.92465 8.00173L3.89958 7.89511L3.89958 7.89511L3.92465 8.00173ZM14.8861 6.51373C14.6399 6.51373 14.4298 6.703 14.4298 6.95008H14.6488C14.6488 6.83597 14.7486 6.73279 14.8861 6.73279V6.51373ZM15.343 6.94976C15.3423 6.70352 15.1319 6.51373 14.8861 6.51373V6.73279C15.0231 6.73279 15.1236 6.83647 15.1239 6.95039L15.343 6.94976ZM15.343 11.1746V6.95008H15.1239V11.1746H15.343ZM15.2779 11.3991C15.3196 11.332 15.3421 11.2548 15.343 11.1759L15.1239 11.1733C15.1235 11.2123 15.1124 11.2504 15.0918 11.2835L15.2779 11.3991ZM15.1067 11.5564C15.177 11.5206 15.2363 11.4662 15.2779 11.3991L15.0918 11.2835C15.0712 11.3167 15.042 11.3435 15.0073 11.3612L15.1067 11.5564ZM8.58592 15.0248L15.1084 11.5555L15.0055 11.3621L8.48305 14.8314L8.58592 15.0248ZM8.53345 15.0408C8.53717 15.0403 8.56078 15.038 8.5855 15.025L8.48347 14.8312C8.49769 14.8237 8.5111 14.8228 8.50458 14.8237L8.53345 15.0408ZM8.54827 15.0362C8.54236 15.0387 8.53744 15.0399 8.53458 15.0405C8.53234 15.041 8.53068 15.0412 8.53347 15.0408L8.50457 14.8237C8.50165 14.824 8.48317 14.826 8.46325 14.8343L8.54827 15.0362ZM8.3925 15.0729C8.44643 15.0698 8.49941 15.0572 8.54903 15.0359L8.46248 14.8347C8.43631 14.8459 8.40837 14.8525 8.37993 14.8542L8.3925 15.0729ZM8.38218 15.0738C8.38721 15.0733 8.39036 15.073 8.39327 15.0728L8.37916 14.8542C8.37241 14.8546 8.36599 14.8553 8.36149 14.8557L8.38218 15.0738ZM8.33196 15.0754C8.35316 15.0767 8.37261 15.0747 8.38218 15.0738L8.3615 14.8557C8.35567 14.8562 8.35242 14.8565 8.34953 14.8567C8.34693 14.8568 8.34601 14.8568 8.34606 14.8568L8.33196 15.0754ZM8.1527 15.0274C8.20868 15.0549 8.26951 15.0712 8.33175 15.0754L8.34628 14.8568C8.31257 14.8545 8.27962 14.8457 8.2493 14.8308L8.1527 15.0274ZM8.16714 15.0326C8.16928 15.0332 8.1657 15.0323 8.16147 15.0308C8.15666 15.0292 8.1475 15.0255 8.13734 15.0183L8.26467 14.84C8.25249 14.8313 8.24107 14.8266 8.23388 14.8241C8.22725 14.8218 8.22116 14.8203 8.22077 14.8202L8.16714 15.0326ZM8.13918 15.0225C8.1471 15.0264 8.15405 15.0288 8.15856 15.0302C8.16277 15.0315 8.1666 15.0325 8.16711 15.0326L8.2208 14.8202C8.21933 14.8199 8.22117 14.8203 8.22344 14.821C8.226 14.8218 8.23105 14.8235 8.23717 14.8266L8.13918 15.0225ZM8.14493 15.0252L8.1475 15.0262L8.22885 14.8228L8.22629 14.8218L8.14493 15.0252ZM2.01696 11.55L8.13157 15.0188L8.23965 14.8282L2.12505 11.3594L2.01696 11.55ZM1.79422 11.1751C1.79422 11.3316 1.88093 11.4725 2.01682 11.5499L2.12519 11.3595C2.05381 11.3189 2.01328 11.2484 2.01328 11.1751H1.79422ZM1.79422 5.02971V11.1751H2.01328V5.02971H1.79422ZM1.82593 4.87885C1.80606 4.92592 1.7953 4.97635 1.79424 5.02744L2.01325 5.03198C2.01374 5.00862 2.01865 4.98557 2.02774 4.96405L1.82593 4.87885ZM1.83926 4.65708C1.79739 4.75083 1.79139 4.85669 1.82243 4.95456L2.03124 4.88834C2.01643 4.84165 2.01929 4.79115 2.03927 4.74643L1.83926 4.65708ZM2.0496 4.44604C1.95599 4.48823 1.88114 4.56333 1.83926 4.65708L2.03927 4.74643C2.05925 4.7017 2.09496 4.66588 2.13961 4.64575L2.0496 4.44604ZM8.16253 1.566L2.04792 4.44681L2.14129 4.64498L8.25589 1.76416L8.16253 1.566ZM8.36415 1.52133C8.2947 1.52133 8.22607 1.53649 8.16308 1.56574L8.25534 1.76442C8.28943 1.74859 8.32657 1.74039 8.36415 1.74039V1.52133ZM8.56523 1.56574C8.50223 1.53649 8.43361 1.52133 8.36415 1.52133V1.74039C8.40174 1.74039 8.43887 1.74859 8.47296 1.76442L8.56523 1.56574ZM14.6804 4.44681L8.56578 1.566L8.47242 1.76416L14.587 4.64498L14.6804 4.44681ZM14.8613 4.59813C14.8158 4.53073 14.7519 4.47774 14.6772 4.44539L14.5902 4.6464C14.6265 4.66215 14.6576 4.68796 14.6798 4.7208L14.8613 4.59813ZM14.9344 4.82589C14.9322 4.74456 14.9069 4.66554 14.8613 4.59813L14.6798 4.7208C14.702 4.75363 14.7144 4.79212 14.7154 4.83174L14.9344 4.82589ZM14.8736 5.05721C14.9155 4.98747 14.9366 4.90721 14.9344 4.82588L14.7154 4.83174C14.7165 4.87136 14.7062 4.91045 14.6858 4.94443L14.8736 5.05721ZM14.6979 5.21957C14.7708 5.18329 14.8317 5.12696 14.8736 5.05721L14.6858 4.94442C14.6654 4.9784 14.6357 5.00584 14.6002 5.02351L14.6979 5.21957ZM8.74718 8.39706L14.7007 5.21816L14.5975 5.02493L8.644 8.20382L8.74718 8.39706ZM8.8068 8.29278C8.80451 8.28477 8.80339 8.28073 8.80262 8.27717L8.58856 8.32371C8.59109 8.33537 8.59424 8.34623 8.59622 8.35311L8.8068 8.29278ZM8.82 8.37124C8.82 8.33644 8.81069 8.30634 8.8068 8.29278L8.59622 8.35311C8.59864 8.36156 8.59975 8.3656 8.60048 8.3691C8.6011 8.37202 8.60094 8.37236 8.60094 8.37124H8.82ZM8.82 14.0846V8.37124H8.60094V14.0846H8.82ZM14.4879 10.887L8.65902 13.9879L8.76191 14.1813L14.5907 11.0804L14.4879 10.887ZM14.4298 6.95008V10.9837H14.6488V6.95008H14.4298ZM8.07188 13.9704L2.6499 10.8946L2.54182 11.0852L7.9638 14.1609L8.07188 13.9704ZM7.90831 8.37124V14.0657H8.12737V8.37124H7.90831ZM7.92206 8.29005C7.9179 8.30451 7.90831 8.33543 7.90831 8.37124H8.12737C8.12737 8.3719 8.12727 8.37115 8.12796 8.36786C8.12878 8.36397 8.13001 8.35954 8.13257 8.35065L7.92206 8.29005ZM7.92619 8.27497C7.92526 8.27887 7.92407 8.28309 7.92206 8.29006L8.13257 8.35065C8.13435 8.34445 8.13696 8.33547 8.13925 8.32591L7.92619 8.27497ZM2.54427 5.49419L7.98113 8.39706L8.08431 8.20382L2.64745 5.30095L2.54427 5.49419ZM2.70539 10.9899V5.39757H2.48633V10.9899H2.70539ZM13.6899 4.75916L8.31257 7.63022L8.41574 7.82346L13.7931 4.9524L13.6899 4.75916ZM8.31696 2.42139L13.6948 4.95486L13.7882 4.7567L8.41032 2.22322L8.31696 2.42139ZM3.03401 4.95486L8.41033 2.42139L8.31695 2.22323L2.94063 4.7567L3.03401 4.95486ZM8.41574 7.63023L3.03891 4.75916L2.93573 4.9524L8.31256 7.82346L8.41574 7.63023ZM6.27666 9.09559L4.23829 7.94378L4.13052 8.1345L6.1689 9.28631L6.27666 9.09559ZM6.40774 9.20597C6.37146 9.16004 6.32611 9.12207 6.27452 9.09441L6.17104 9.28749C6.19613 9.30094 6.2182 9.31941 6.23585 9.34176L6.40774 9.20597ZM6.48543 9.3614C6.47047 9.30481 6.44403 9.2519 6.40774 9.20597L6.23585 9.34176C6.2535 9.3641 6.26636 9.38984 6.27364 9.41738L6.48543 9.3614ZM6.49468 9.53491C6.50353 9.47705 6.50038 9.41799 6.48543 9.3614L6.27364 9.41738C6.28092 9.44491 6.28245 9.47364 6.27814 9.50179L6.49468 9.53491ZM6.43398 9.69773C6.46517 9.6482 6.48583 9.59277 6.49468 9.53491L6.27814 9.50179C6.27384 9.52994 6.26379 9.5569 6.24861 9.581L6.43398 9.69773ZM6.15052 9.89524C6.26562 9.86817 6.36624 9.7986 6.4322 9.70046L6.25039 9.57826C6.21526 9.63053 6.16167 9.66759 6.10037 9.682L6.15052 9.89524ZM5.81155 9.84642C5.91433 9.90487 6.03541 9.92231 6.15052 9.89524L6.10037 9.682C6.03907 9.69642 5.97458 9.68713 5.91984 9.656L5.81155 9.84642ZM3.77342 8.69423L5.81179 9.84656L5.91959 9.65586L3.88122 8.50354L3.77342 8.69423ZM3.64242 8.58406C3.67872 8.62995 3.72407 8.66787 3.77566 8.69546L3.87898 8.5023C3.85391 8.4889 3.83187 8.47047 3.81424 8.44817L3.64242 8.58406ZM3.56471 8.42874C3.57968 8.4853 3.60613 8.53817 3.64242 8.58406L3.81424 8.44817C3.79661 8.42588 3.78375 8.40019 3.77648 8.37271L3.56471 8.42874ZM3.55544 8.25531C3.54659 8.31315 3.54975 8.37218 3.56471 8.42874L3.77648 8.37271C3.76921 8.34523 3.76768 8.31654 3.77197 8.28844L3.55544 8.25531ZM3.61614 8.09259C3.58495 8.14209 3.56428 8.19748 3.55544 8.25531L3.77197 8.28844C3.77627 8.26034 3.78631 8.23343 3.80147 8.20938L3.61614 8.09259ZM3.89958 7.89511C3.78448 7.92217 3.68386 7.99175 3.6179 8.08989L3.79971 8.21208C3.83484 8.15982 3.88842 8.12276 3.94973 8.10835L3.89958 7.89511ZM4.23855 7.94393C4.13576 7.88548 4.01468 7.86804 3.89958 7.89511L3.94973 8.10835C4.01103 8.09393 4.07552 8.10322 4.13026 8.13435L4.23855 7.94393Z" fill="white" mask="url(#path-1-outside-1_218_1102)"/>
</svg>
