<?xml version="1.0" encoding="UTF-8"?>
<svg width="16px" height="16px" viewBox="0 0 16 16" version="1.1" xmlns="http://www.w3.org/2000/svg" xmlns:xlink="http://www.w3.org/1999/xlink">
    <title>1.通用/2.Icon图标/线性/用户</title>
    <g id="智慧停车" stroke="none" stroke-width="1" fill="none" fill-rule="evenodd">
        <g id="账号登录" transform="translate(-968, -425)" fill="#B3BCC0" fill-rule="nonzero">
            <g id="编组-6" transform="translate(860, 0)">
                <g id="编组-43" transform="translate(100, 349)">
                    <g id="编组-2备份" transform="translate(0, 64)">
                        <g id="1.通用/2.Icon图标/线性/用户" transform="translate(8, 12)">
                            <rect id="Rectangle" opacity="0" x="0" y="0" width="16" height="16"></rect>
                            <path d="M8,1.5 C9.93299662,1.5 11.5,3.06700338 11.5,5 L11.5,6 L13,6 C13.5522847,6 14,6.44771525 14,7 L14,13 C14,13.5522847 13.5522847,14 13,14 L3,14 C2.44771525,14 2,13.5522847 2,13 L2,7 C2,6.44771525 2.44771525,6 3,6 L4.5,6 L4.5,5 C4.5,3.08633334 6.03582001,1.53137667 7.9421211,1.5004689 L8,1.5 Z M13,7 L3,7 L3,13 L13,13 L13,7 Z M6.11816192,10.0080569 L9.87597489,10.0153823 C9.94501036,10.0155169 10.0008656,10.0715902 10.0007312,10.1406257 L9.99926901,10.8906243 C9.99913444,10.9596598 9.94306104,11.015515 9.87402558,11.0153806 L6.11621261,11.0080569 C6.04717714,11.0079206 5.99132194,10.9518473 5.99145626,10.8828118 L5.99291849,10.1328132 C5.99305306,10.0637777 6.04912646,10.0079225 6.11816192,10.0080569 Z M8,2.5 C6.61928813,2.5 5.5,3.61928813 5.5,5 L5.5,6 L10.5,6 L10.5,5 C10.5,3.63309524 9.40298571,2.5224119 8.04134207,2.50033493 L8,2.5 Z" id="Shape"></path>
                        </g>
                    </g>
                </g>
            </g>
        </g>
    </g>
</svg>