<svg width="110" height="100" viewBox="0 0 110 100" fill="none" xmlns="http://www.w3.org/2000/svg">
<g id="Group 1">
<g id="&#229;&#189;&#162;&#231;&#138;&#182;_19_&#230;&#139;&#183;&#232;&#180;&#157;_2" opacity="0.5" filter="url(#filter0_f_76_4597)">
<path fill-rule="evenodd" clip-rule="evenodd" d="M105.349 61.7475C105.698 61.9661 105.972 62.2555 106.171 62.6157C106.371 62.976 106.47 63.362 106.47 63.7738C106.47 64.1855 106.371 64.5715 106.171 64.9318C105.972 65.2921 105.698 65.5815 105.349 65.8001L56.5443 96.2929C56.0198 96.6208 55.4484 96.7848 54.8298 96.7848C54.2113 96.7848 53.6398 96.6208 53.1154 96.2929L4.31108 65.8001C3.9621 65.5815 3.68799 65.2921 3.48855 64.9318C3.28912 64.5716 3.18935 64.1855 3.18935 63.7738C3.18935 63.362 3.28912 62.976 3.48855 62.6157C3.68799 62.2555 3.9621 61.9661 4.31108 61.7475L53.1154 31.2546C53.6398 30.9267 54.2113 30.7627 54.8298 30.7627C55.4484 30.7627 56.0198 30.9267 56.5443 31.2546L105.349 61.7475Z" fill="url(#paint0_linear_76_4597)" fill-opacity="0.2"/>
<path fill-rule="evenodd" clip-rule="evenodd" d="M105.349 61.7475C105.698 61.9661 105.972 62.2555 106.171 62.6157C106.371 62.976 106.47 63.362 106.47 63.7738C106.47 64.1855 106.371 64.5715 106.171 64.9318C105.972 65.2921 105.698 65.5815 105.349 65.8001L56.5443 96.2929C56.0198 96.6208 55.4484 96.7848 54.8298 96.7848C54.2113 96.7848 53.6398 96.6208 53.1154 96.2929L4.31108 65.8001C3.9621 65.5815 3.68799 65.2921 3.48855 64.9318C3.28912 64.5716 3.18935 64.1855 3.18935 63.7738C3.18935 63.362 3.28912 62.976 3.48855 62.6157C3.68799 62.2555 3.9621 61.9661 4.31108 61.7475L53.1154 31.2546C53.6398 30.9267 54.2113 30.7627 54.8298 30.7627C55.4484 30.7627 56.0198 30.9267 56.5443 31.2546L105.349 61.7475Z" stroke="url(#paint1_linear_76_4597)" stroke-width="1.06816"/>
</g>
<path id="&#229;&#189;&#162;&#231;&#138;&#182;_20" fill-rule="evenodd" clip-rule="evenodd" d="M94.0202 40.3716L56.1538 16.5629C55.7475 16.3068 55.3042 16.1787 54.8239 16.1787C54.3437 16.1787 53.9004 16.3068 53.4941 16.5629L15.6277 40.3716C15.0306 40.7476 14.7422 41.2883 14.7625 41.9936V57.9359C14.7422 58.6413 15.0305 59.182 15.6277 59.5579L53.4941 83.3667C53.9004 83.6228 54.3437 83.7509 54.8239 83.7509C55.3042 83.7509 55.7475 83.6228 56.1538 83.3667L94.0202 59.5579C94.6173 59.182 94.9057 58.6413 94.8854 57.9359V41.9936C94.9057 41.2883 94.6173 40.7476 94.0202 40.3716Z" fill="url(#paint2_linear_76_4597)"/>
<path id="&#229;&#189;&#162;&#231;&#138;&#182;_19_&#230;&#139;&#183;&#232;&#180;&#157;" opacity="0.5" fill-rule="evenodd" clip-rule="evenodd" d="M94.282 56.3937C94.554 56.5647 94.7678 56.7909 94.9232 57.0722C95.0786 57.3535 95.1564 57.6548 95.1564 57.9762C95.1564 58.2975 95.0786 58.5988 94.9232 58.8802C94.7678 59.1614 94.554 59.3876 94.282 59.5586L56.17 83.368C55.7608 83.6241 55.3148 83.7521 54.8321 83.7521C54.3493 83.7521 53.9034 83.6241 53.4942 83.368L15.3821 59.5586C15.1101 59.3876 14.8964 59.1614 14.741 58.8802C14.5856 58.5988 14.5078 58.2975 14.5078 57.9762C14.5078 57.6548 14.5856 57.3535 14.741 57.0722C14.8964 56.7909 15.1101 56.5647 15.3821 56.3937L53.4942 32.5843C53.9034 32.3283 54.3493 32.2002 54.8321 32.2002C55.3148 32.2002 55.7608 32.3283 56.17 32.5843L94.282 56.3937Z" fill="url(#paint3_linear_76_4597)" fill-opacity="0.8" stroke="url(#paint4_linear_76_4597)" stroke-width="0.534081"/>
<path id="&#229;&#189;&#162;&#231;&#138;&#182;_19_&#230;&#139;&#183;&#232;&#180;&#157;_4" opacity="0.3" fill-rule="evenodd" clip-rule="evenodd" d="M94.2829 49.4503C94.5549 49.6214 94.7686 49.8475 94.924 50.1288C95.0795 50.4101 95.1572 50.7115 95.1572 51.0328C95.1572 51.3542 95.0795 51.6555 94.924 51.9368C94.7686 52.2181 94.5549 52.4443 94.2829 52.6153L56.1709 76.4247C55.7617 76.6807 55.3157 76.8088 54.833 76.8088C54.3502 76.8088 53.9043 76.6807 53.4951 76.4247L15.3831 52.6153C15.111 52.4443 14.8973 52.2181 14.7419 51.9368C14.5865 51.6555 14.5088 51.3542 14.5088 51.0328C14.5088 50.7115 14.5865 50.4101 14.7419 50.1288C14.8973 49.8475 15.111 49.6214 15.3831 49.4503L53.4951 25.6409C53.9043 25.3849 54.3502 25.2568 54.833 25.2568C55.3157 25.2568 55.7617 25.3849 56.1709 25.6409L94.2829 49.4503Z" fill="url(#paint5_linear_76_4597)" fill-opacity="0.8" stroke="url(#paint6_linear_76_4597)" stroke-width="1.06816"/>
<path id="&#229;&#189;&#162;&#231;&#138;&#182;_19" fill-rule="evenodd" clip-rule="evenodd" d="M94.282 40.3713C94.554 40.5423 94.7678 40.7685 94.9232 41.0497C95.0786 41.3311 95.1564 41.6324 95.1564 41.9538C95.1564 42.2751 95.0786 42.5765 94.9232 42.8577C94.7678 43.139 94.554 43.3652 94.282 43.5362L56.17 67.3456C55.7608 67.6017 55.3148 67.7297 54.8321 67.7297C54.3493 67.7297 53.9034 67.6017 53.4942 67.3456L15.3821 43.5362C15.1101 43.3652 14.8964 43.139 14.741 42.8577C14.5856 42.5765 14.5078 42.2751 14.5078 41.9538C14.5078 41.6324 14.5856 41.3311 14.741 41.0497C14.8964 40.7685 15.1101 40.5423 15.3821 40.3713L53.4942 16.5619C53.9034 16.3058 54.3493 16.1777 54.8321 16.1777C55.3148 16.1777 55.7608 16.3058 56.17 16.5619L94.282 40.3713Z" fill="url(#paint7_linear_76_4597)" fill-opacity="0.8" stroke="url(#paint8_linear_76_4597)" stroke-width="1.06816"/>
<path id="&#229;&#189;&#162;&#231;&#138;&#182;_19_&#230;&#139;&#183;&#232;&#180;&#157;_3" fill-rule="evenodd" clip-rule="evenodd" d="M80.0602 40.936C80.2349 41.0471 80.3719 41.1933 80.4716 41.3747C80.5712 41.5561 80.621 41.7503 80.621 41.9572C80.621 42.1642 80.5712 42.3583 80.4716 42.5397C80.3719 42.7211 80.2349 42.8673 80.0602 42.9784L55.578 58.3423C55.0047 58.7028 54.4315 58.7028 53.8582 58.3423L29.3813 42.9784C29.2056 42.8681 29.0675 42.7222 28.9671 42.5407C28.8667 42.3592 28.8164 42.1647 28.8164 41.9572C28.8164 41.7498 28.8667 41.5553 28.9671 41.3737C29.0675 41.1922 29.2056 41.0463 29.3813 40.936L53.8582 25.5721C54.4315 25.2116 55.0047 25.2116 55.578 25.5721L80.0602 40.936Z" fill="url(#paint9_linear_76_4597)" fill-opacity="0.8" stroke="url(#paint10_linear_76_4597)" stroke-width="1.06816"/>
<path id="&#231;&#159;&#169;&#229;&#189;&#162;_7" fill-rule="evenodd" clip-rule="evenodd" d="M55.4913 58.3424C54.9199 58.7031 54.3484 58.7031 53.7769 58.3424L29.3748 42.9785C29.0915 42.801 28.9153 42.5488 28.846 42.2217H28.6377V0.0292969H80.278V41.3351C80.448 41.6157 80.4957 41.9158 80.4209 42.2352C80.3462 42.5547 80.1704 42.8025 79.8935 42.9785L55.4913 58.3424Z" fill="url(#paint11_linear_76_4597)"/>
<g id="Group 551">
<path id="Vector" d="M68.0148 19.9458C67.9476 19.7537 67.8223 19.5871 67.6563 19.4693C67.4903 19.3515 67.2918 19.2882 67.0882 19.2882H61.8058L66.0047 10.8924C66.0793 10.7427 66.1144 10.5764 66.1066 10.4093C66.0989 10.2422 66.0486 10.0799 65.9605 9.93767C65.8724 9.79549 65.7494 9.67817 65.6032 9.59687C65.457 9.51557 65.2925 9.47298 65.1252 9.47314H49.4211C49.2154 9.47316 49.015 9.53779 48.848 9.6579C48.6811 9.77801 48.5561 9.94754 48.4906 10.1425L44.5646 21.9206C44.5151 22.0682 44.5014 22.2254 44.5247 22.3794C44.5479 22.5333 44.6075 22.6795 44.6984 22.8058C44.7893 22.9322 44.9089 23.0352 45.0475 23.1062C45.186 23.1772 45.3394 23.2142 45.4951 23.2142H49.637L46.4962 35.7324C46.4443 35.9326 46.457 36.1442 46.5324 36.3368C46.6079 36.5295 46.7423 36.6933 46.9165 36.805C47.0906 36.9167 47.2956 36.9705 47.5022 36.9587C47.7088 36.9469 47.9063 36.8702 48.0666 36.7394L67.6968 21.0353C67.8555 20.9081 67.9707 20.7348 68.0266 20.5393C68.0825 20.3438 68.0763 20.1357 68.0089 19.9439" fill="#1A6E94"/>
<path id="Vector_2" d="M68.0148 18.0259C67.9476 17.8337 67.8223 17.6672 67.6563 17.5494C67.4903 17.4316 67.2918 17.3683 67.0882 17.3683H61.8058L66.0047 8.97248C66.0793 8.82277 66.1144 8.65647 66.1066 8.48938C66.0989 8.32228 66.0486 8.15994 65.9605 8.01775C65.8724 7.87556 65.7494 7.75825 65.6032 7.67695C65.457 7.59565 65.2925 7.55306 65.1252 7.55322H49.4211C49.2154 7.55324 49.015 7.61787 48.848 7.73798C48.6811 7.85809 48.5561 8.02761 48.4906 8.22261L44.5646 20.0007C44.5151 20.1483 44.5014 20.3055 44.5247 20.4594C44.5479 20.6134 44.6075 20.7596 44.6984 20.8859C44.7893 21.0123 44.9089 21.1152 45.0475 21.1863C45.186 21.2573 45.3394 21.2943 45.4951 21.2943H49.637L46.4962 33.8125C46.4443 34.0127 46.457 34.2243 46.5324 34.4169C46.6079 34.6095 46.7423 34.7734 46.9165 34.8851C47.0906 34.9968 47.2956 35.0506 47.5022 35.0388C47.7088 35.027 47.9063 34.9502 48.0666 34.8195L67.6968 19.1154C67.8555 18.9882 67.9707 18.8149 68.0266 18.6194C68.0825 18.4238 68.0763 18.2158 68.0089 18.0239" fill="url(#paint12_linear_76_4597)"/>
</g>
<g id="&#230;&#164;&#173;&#229;&#156;&#134;_5_&#230;&#139;&#183;&#232;&#180;&#157;" filter="url(#filter1_f_76_4597)">
<path fill-rule="evenodd" clip-rule="evenodd" d="M41.4811 37.8853C42.2553 37.8853 42.883 38.5129 42.883 39.2872C42.883 40.0615 42.2553 40.6892 41.4811 40.6892C40.7068 40.6892 40.0791 40.0615 40.0791 39.2872C40.0791 38.5129 40.7068 37.8853 41.4811 37.8853Z" fill="#35FFD7"/>
</g>
<g id="&#230;&#164;&#173;&#229;&#156;&#134;_5_&#230;&#139;&#183;&#232;&#180;&#157;_2" opacity="0.67" filter="url(#filter2_f_76_4597)">
<path fill-rule="evenodd" clip-rule="evenodd" d="M60.483 43.8252C61.2573 43.8252 61.885 44.4529 61.885 45.2272C61.885 46.0014 61.2573 46.6291 60.483 46.6291C59.7087 46.6291 59.0811 46.0014 59.0811 45.2272C59.0811 44.4529 59.7087 43.8252 60.483 43.8252Z" fill="#35FFD7"/>
</g>
</g>
<defs>
<filter id="filter0_f_76_4597" x="0.518947" y="28.0922" width="108.621" height="71.363" filterUnits="userSpaceOnUse" color-interpolation-filters="sRGB">
<feFlood flood-opacity="0" result="BackgroundImageFix"/>
<feBlend mode="normal" in="SourceGraphic" in2="BackgroundImageFix" result="shape"/>
<feGaussianBlur stdDeviation="1.06816" result="effect1_foregroundBlur_76_4597"/>
</filter>
<filter id="filter1_f_76_4597" x="37.9428" y="35.7489" width="7.07636" height="7.07636" filterUnits="userSpaceOnUse" color-interpolation-filters="sRGB">
<feFlood flood-opacity="0" result="BackgroundImageFix"/>
<feBlend mode="normal" in="SourceGraphic" in2="BackgroundImageFix" result="shape"/>
<feGaussianBlur stdDeviation="1.06816" result="effect1_foregroundBlur_76_4597"/>
</filter>
<filter id="filter2_f_76_4597" x="56.9447" y="41.6889" width="7.07636" height="7.07636" filterUnits="userSpaceOnUse" color-interpolation-filters="sRGB">
<feFlood flood-opacity="0" result="BackgroundImageFix"/>
<feBlend mode="normal" in="SourceGraphic" in2="BackgroundImageFix" result="shape"/>
<feGaussianBlur stdDeviation="1.06816" result="effect1_foregroundBlur_76_4597"/>
</filter>
<linearGradient id="paint0_linear_76_4597" x1="106.487" y1="96.7986" x2="106.487" y2="30.7723" gradientUnits="userSpaceOnUse">
<stop stop-color="#2CC8F4"/>
<stop offset="1" stop-color="#009CFF"/>
</linearGradient>
<linearGradient id="paint1_linear_76_4597" x1="106.487" y1="96.7986" x2="106.487" y2="30.7723" gradientUnits="userSpaceOnUse">
<stop stop-color="#4BD4FF"/>
<stop offset="1" stop-color="#0C2436"/>
</linearGradient>
<linearGradient id="paint2_linear_76_4597" x1="14.7678" y1="83.7538" x2="94.8801" y2="83.7538" gradientUnits="userSpaceOnUse">
<stop stop-color="#00235C"/>
<stop offset="0.526" stop-color="#1773C3"/>
<stop offset="0.533" stop-color="#1772C1"/>
<stop offset="1" stop-color="#00235C"/>
</linearGradient>
<linearGradient id="paint3_linear_76_4597" x1="95.1671" y1="83.7627" x2="95.1671" y2="32.2073" gradientUnits="userSpaceOnUse">
<stop stop-color="#2CC8F4"/>
<stop offset="1" stop-color="#009CFF"/>
</linearGradient>
<linearGradient id="paint4_linear_76_4597" x1="95.1671" y1="83.7627" x2="95.1671" y2="32.2073" gradientUnits="userSpaceOnUse">
<stop stop-color="#4BD4FF"/>
<stop offset="1" stop-color="#2B9ACD"/>
</linearGradient>
<linearGradient id="paint5_linear_76_4597" x1="95.168" y1="76.8193" x2="95.168" y2="25.2639" gradientUnits="userSpaceOnUse">
<stop stop-color="#2CC8F4"/>
<stop offset="1" stop-color="#00235C"/>
</linearGradient>
<linearGradient id="paint6_linear_76_4597" x1="95.168" y1="76.8193" x2="95.168" y2="25.2639" gradientUnits="userSpaceOnUse">
<stop stop-color="#4BD4FF"/>
<stop offset="1" stop-color="#00DDFF" stop-opacity="0.5"/>
</linearGradient>
<linearGradient id="paint7_linear_76_4597" x1="95.167" y1="67.7403" x2="95.167" y2="16.1849" gradientUnits="userSpaceOnUse">
<stop stop-color="#2CC8F4"/>
<stop offset="1" stop-color="#00235C"/>
</linearGradient>
<linearGradient id="paint8_linear_76_4597" x1="95.167" y1="67.7403" x2="95.167" y2="16.1849" gradientUnits="userSpaceOnUse">
<stop stop-color="#4BD4FF"/>
<stop offset="1" stop-color="#0C2436"/>
</linearGradient>
<linearGradient id="paint9_linear_76_4597" x1="80.6235" y1="58.5944" x2="80.6235" y2="25.3313" gradientUnits="userSpaceOnUse">
<stop stop-color="#0E3B5E"/>
<stop offset="1" stop-color="#0C253B"/>
</linearGradient>
<linearGradient id="paint10_linear_76_4597" x1="80.6235" y1="58.5944" x2="80.6235" y2="25.3313" gradientUnits="userSpaceOnUse">
<stop stop-color="#4BD4FF"/>
<stop offset="1" stop-color="#103D60"/>
</linearGradient>
<linearGradient id="paint11_linear_76_4597" x1="80.45" y1="58.5945" x2="80.45" y2="0.0292969" gradientUnits="userSpaceOnUse">
<stop stop-color="#00DEFF"/>
<stop offset="1" stop-color="#00235C" stop-opacity="0"/>
</linearGradient>
<linearGradient id="paint12_linear_76_4597" x1="44.5136" y1="7.55322" x2="44.5136" y2="35.0404" gradientUnits="userSpaceOnUse">
<stop offset="0.0152672" stop-color="white"/>
<stop offset="1" stop-color="#198ABD"/>
</linearGradient>
</defs>
</svg>
