<svg width="25" height="24" viewBox="0 0 25 24" fill="none" xmlns="http://www.w3.org/2000/svg">
<g id="Group 589">
<g id="&#228;&#184;&#173;&#232;&#139;&#177;&#230;&#150;&#135;">
<rect id="&#231;&#159;&#169;&#229;&#189;&#162;" opacity="0.01" x="0.065918" width="24" height="24" fill="black"/>
</g>
<path id="Union" fill-rule="evenodd" clip-rule="evenodd" d="M22.9532 9.14159H15.3308V1.14602C15.3379 0.849123 15.2268 0.56155 15.0219 0.34661C14.8169 0.13167 14.535 0.00698408 14.2381 0H1.16532C0.868413 0.00698408 0.586453 0.13167 0.38151 0.34661C0.176566 0.56155 0.0654383 0.849123 0.0725907 1.14602V13.7124C0.0654383 14.0093 0.176566 14.2969 0.38151 14.5118C0.586453 14.7267 0.868413 14.8514 1.16532 14.8584H8.80107V22.854C8.79392 23.1509 8.90504 23.4385 9.10999 23.6534C9.31493 23.8683 9.59689 23.993 9.8938 24H22.9532C23.2501 23.993 23.5321 23.8683 23.737 23.6534C23.942 23.4385 24.0531 23.1509 24.0459 22.854V10.2876C24.0531 9.99071 23.942 9.70314 23.737 9.4882C23.5321 9.27326 23.2501 9.14857 22.9532 9.14159ZM14.2381 13.7124H1.16532V1.14605H14.2381V13.7124ZM14.4195 14.9486C14.3235 15.0606 14.2275 15.1726 14.1395 15.2686H16.8035C16.8035 15.5886 16.7955 15.8846 16.7795 16.1406H17.2355V16.6206H16.7395L16.6675 17.1246H16.9955V17.5166H16.5795C16.5728 17.5366 16.5676 17.5552 16.5625 17.5731C16.5555 17.598 16.5488 17.6213 16.5395 17.6446L16.7715 17.8206C16.3395 18.0366 15.8995 18.2206 15.4515 18.3726C16.0115 18.3486 16.5555 18.3326 17.0995 18.3166C17.4355 18.1486 17.7715 17.9646 18.1155 17.7726L18.6515 18.1246C17.7395 18.6446 16.7315 19.0606 15.6275 19.3726C16.6755 19.3246 17.7075 19.2686 18.7155 19.1886L18.6436 19.1361L18.6435 19.1361C18.4895 19.0238 18.3295 18.9072 18.1635 18.7966L18.6995 18.4686C19.4595 18.9486 20.0435 19.3646 20.4515 19.7326L19.8515 20.1486C19.6835 19.9806 19.4915 19.8126 19.2835 19.6366L18.8039 19.6647L18.8037 19.6647C18.2889 19.6949 17.7929 19.7241 17.3155 19.7486V20.6846C17.3155 21.1006 17.0675 21.3166 16.5795 21.3166H15.8275L15.6995 20.7086C15.9315 20.7326 16.1555 20.7486 16.3635 20.7486C16.5155 20.7486 16.5955 20.6686 16.5955 20.5246V19.7806C15.6435 19.8286 14.7635 19.8606 13.9635 19.8846L13.8035 19.2606L13.8266 19.2615C14.0264 19.2691 14.2189 19.2766 14.4115 19.2766C14.9875 19.1566 15.5875 18.9646 16.2195 18.7086L14.3955 18.7726L14.2835 18.2446C14.5555 18.2446 14.7395 18.2206 14.8515 18.1726C15.1955 18.0446 15.5475 17.8926 15.9155 17.7006C15.9251 17.6624 15.9375 17.6242 15.9493 17.5877L15.9493 17.5877C15.9573 17.563 15.9651 17.5391 15.9715 17.5166H13.6595C13.7155 17.2126 13.7635 16.9166 13.8115 16.6206L13.8115 16.6206H13.2915V16.1406H13.8675C13.8995 15.9086 13.9235 15.6846 13.9395 15.4606C13.8355 15.5566 13.7315 15.6526 13.6275 15.7326L13.2355 15.2606C13.6755 14.9326 14.0595 14.4846 14.3795 13.9086L15.0035 14.0446L15.0035 14.0447L15.0034 14.0447C14.9315 14.1727 14.8595 14.3006 14.7875 14.4206H17.1395V14.9486H14.4195ZM14.4195 16.5566L14.3235 17.1246H15.5475C15.2595 16.9966 14.9795 16.8926 14.6995 16.8206L14.8675 16.5566H14.4195ZM15.5715 17.1246H16.0675C16.1075 16.9326 16.1395 16.7486 16.1635 16.5566H14.8995C15.2115 16.6446 15.4915 16.7406 15.7475 16.8526L15.5715 17.1246ZM16.1955 16.2206L16.2195 15.6526H14.5235C14.5075 15.8446 14.4835 16.0366 14.4595 16.2206H15.5715C15.3155 16.0926 15.0675 15.9966 14.8195 15.9246L15.0035 15.6606C15.2915 15.7406 15.5635 15.8526 15.8115 15.9806L15.6595 16.2206H16.1955ZM18.1075 15.2286C18.2355 15.6286 18.4675 15.9806 18.8035 16.2846C19.0595 15.9806 19.2595 15.6286 19.3875 15.2286H18.1075ZM18.3555 16.7006C18.0675 16.3966 17.8515 16.0766 17.7075 15.7246C17.5795 15.8846 17.4515 16.0286 17.3235 16.1566L16.9235 15.6766C17.3395 15.2446 17.6995 14.6526 18.0035 13.9006L18.6515 14.0446C18.5715 14.2526 18.4835 14.4446 18.3955 14.6286H20.4755V15.2286H20.0115C19.8675 15.8046 19.6275 16.2766 19.3075 16.6606C19.6755 16.9006 20.1155 17.1006 20.6275 17.2686L20.2835 17.8686C19.7075 17.6606 19.2275 17.4126 18.8435 17.1246C18.4435 17.4446 17.9555 17.6766 17.3955 17.8286L17.0435 17.2766C17.5715 17.1486 18.0035 16.9566 18.3555 16.7006ZM18.2275 19.9246C19.0275 20.1166 19.7635 20.3566 20.4275 20.6446L20.0435 21.2446C19.3395 20.9246 18.6035 20.6686 17.8515 20.4846L18.2275 19.9246ZM15.4195 19.9566L15.8195 20.4126C15.2275 20.7486 14.4995 21.0286 13.6435 21.2526L13.3635 20.6606C14.1955 20.4846 14.8835 20.2446 15.4195 19.9566ZM4.91992 6.52006H4.07392V11.3711H4.91992V6.52006ZM9.35692 11.3351H10.1309C10.7789 11.3351 11.1029 11.0291 11.1029 10.4261V5.48506H6.91792V6.26806H10.2569V10.1921C10.2569 10.4531 10.1579 10.5881 9.95992 10.5881L9.14992 10.5611L9.35692 11.3351ZM9.27592 6.89806H5.88292V10.4081H9.27592V6.89806ZM8.48392 8.97706V9.69706H6.69292V8.97706H8.48392ZM8.48392 8.29306H6.69292V7.59106H8.48392V8.29306ZM6.24292 6.22306C5.99092 5.89906 5.63092 5.53006 5.16292 5.11606L4.53292 5.50306C4.98292 5.93506 5.34292 6.31306 5.61292 6.65506L6.24292 6.22306ZM4.19092 5.41306C4.46092 5.10706 4.70392 4.76506 4.91992 4.38706H5.43292C5.65792 4.72006 5.85592 5.07106 6.02692 5.43106L6.78292 5.15206C6.66592 4.91806 6.51292 4.65706 6.32392 4.38706H7.51192V3.64006H5.27992C5.29581 3.60034 5.31247 3.55984 5.32946 3.51856C5.37021 3.41954 5.41281 3.31604 5.45092 3.20806L4.62292 3.02806C4.38892 3.71206 4.01092 4.35106 3.47092 4.94506L4.19092 5.41306ZM8.18692 5.27806C8.39392 5.00806 8.58292 4.71106 8.74492 4.38706H9.35692C9.57292 4.70206 9.76192 5.02606 9.92392 5.35906L10.6799 5.08006C10.5629 4.86406 10.4189 4.63006 10.2479 4.38706H11.5979V3.64006H9.07792C9.08903 3.60672 9.10014 3.57283 9.11139 3.53853C9.14569 3.43393 9.18125 3.3255 9.22192 3.21706L8.40292 3.03706C8.22292 3.66706 7.90792 4.26106 7.46692 4.81006L8.18692 5.27806Z" fill="white"/>
</g>
</svg>
