<svg width="13" height="13" viewBox="0 0 13 13" fill="none" xmlns="http://www.w3.org/2000/svg">
<path fill-rule="evenodd" clip-rule="evenodd" d="M6.00354 11.7743C6.12664 11.8974 6.29359 11.9666 6.46768 11.9666C6.64177 11.9666 6.80873 11.8974 6.93183 11.7743C7.05493 11.6512 7.12409 11.4842 7.12409 11.3101V7.44367H10.9898C11.1639 7.44367 11.3309 7.37451 11.454 7.25141C11.5771 7.12831 11.6462 6.96135 11.6462 6.78726C11.6462 6.61317 11.5771 6.44622 11.454 6.32312C11.3309 6.20002 11.1639 6.13086 10.9898 6.13086H7.12409V2.26578C7.12409 2.09169 7.05493 1.92473 6.93183 1.80163C6.80873 1.67853 6.64177 1.60938 6.46768 1.60938C6.29359 1.60938 6.12664 1.67853 6.00354 1.80163C5.88044 1.92473 5.81128 2.09169 5.81128 2.26578V6.13086H1.94547C1.77138 6.13086 1.60442 6.20002 1.48132 6.32312C1.35822 6.44622 1.28906 6.61317 1.28906 6.78726C1.28906 6.96135 1.35822 7.12831 1.48132 7.25141C1.60442 7.37451 1.77138 7.44367 1.94547 7.44367H5.81128V11.3101C5.81128 11.4842 5.88044 11.6512 6.00354 11.7743Z" fill="#00B3FF"/>
</svg>
