<svg width="17" height="17" viewBox="0 0 17 17" fill="none" xmlns="http://www.w3.org/2000/svg">
<rect opacity="0.01" x="0.50293" y="0.37207" width="16" height="16" fill="#D8D8D8"/>
<path fill-rule="evenodd" clip-rule="evenodd" d="M10.6279 2.37207L11.3779 2.37402C11.447 2.3742 11.5028 2.43031 11.5026 2.49934L11.5003 3.37304L13.5029 3.37305C14.0552 3.37305 14.5029 3.82076 14.5029 4.37305V13.373C14.5029 13.9253 14.0552 14.373 13.5029 14.373H3.50293C2.95064 14.373 2.50293 13.9253 2.50293 13.373V4.37305C2.50293 3.82076 2.95064 3.37305 3.50293 3.37305L5.50032 3.37304L5.50261 2.49675C5.50279 2.42771 5.5589 2.37189 5.62793 2.37207L6.37793 2.37402C6.44696 2.3742 6.50278 2.43031 6.5026 2.49934L6.50034 3.37304H10.5003L10.5026 2.49675C10.5028 2.42771 10.5589 2.37189 10.6279 2.37207ZM13.5029 7.37304H3.50293V13.373H13.5029V7.37304ZM3.50293 4.37305L5.49773 4.37304L5.49544 5.25456C5.49526 5.32359 5.55108 5.3797 5.62012 5.37988L6.37012 5.38183C6.43915 5.38201 6.49526 5.32619 6.49544 5.25716L6.49773 4.37304H10.4977L10.4954 5.25456C10.4953 5.32359 10.5511 5.3797 10.6201 5.37988L11.3701 5.38183C11.4392 5.38201 11.4953 5.32619 11.4954 5.25716L11.4977 4.37304L13.5029 4.37305V6.37304H3.50293V4.37305Z" fill="white"/>
</svg>
